<?xml version="1.0" encoding="utf-8"?>
<svg viewBox="39.859 90.255 162.352 96.4399" xmlns="http://www.w3.org/2000/svg">
  <defs/>
  <ellipse style="stroke: rgb(0, 49, 102); fill: rgb(0, 49, 102); fill-opacity: 0.85; paint-order: fill; stroke-opacity: 0;" cx="121.035" cy="138.042" rx="81.176" ry="47.787" transform="matrix(0.9999999999999999, 0, 0, 0.9999999999999999, -7.105427357601002e-15, 0)"/>
  <path d="M 68.76 102.53 Q 69.42 103.1 70.12 103.61 Q 70.81 104.12 71.28 104.8 Q 71.39 104.94 71.46 105.1 Q 71.53 105.26 71.63 105.4 Q 71.85 105.7 72.1 106.06 Q 72.35 106.41 72.46 106.88 Q 72.51 107.21 72.46 107.57 Q 72.4 107.94 72.46 108.33 Q 72.48 108.49 72.63 108.59 Q 72.78 108.68 72.84 108.9 Q 72.92 109.28 72.8 109.67 Q 72.67 110.05 72.73 110.54 Q 72.73 110.84 72.88 111.05 Q 73.03 111.25 73.03 111.5 Q 73.06 111.88 72.95 112.25 Q 72.84 112.62 72.78 112.97 Q 72.56 114.1 72.39 114.89 Q 72.21 115.68 71.77 116.5 Q 71.53 116.89 71.35 117.3 Q 71.17 117.71 70.95 118.03 Q 70.38 118.91 69.67 119.63 Q 68.96 120.36 68.38 121.1 Q 67.34 121.56 66.41 122 Q 65.48 122.44 64.31 122.82 Q 64.03 122.9 63.77 123.01 Q 63.51 123.12 63.21 123.2 Q 62.86 123.28 62.47 123.31 Q 62.09 123.34 61.71 123.39 Q 61.44 123.45 61.16 123.54 Q 60.89 123.64 60.59 123.67 Q 60.29 123.72 60.03 123.64 Q 59.77 123.56 59.47 123.5 Q 59.25 123.45 58.99 123.49 Q 58.73 123.53 58.51 123.5 Q 58.37 123.47 58.24 123.38 Q 58.1 123.28 57.91 123.2 Q 57.74 123.12 57.54 123.09 Q 57.33 123.06 57.17 123.01 Q 56.95 122.93 56.76 122.81 Q 56.57 122.68 56.35 122.63 Q 56.19 122.57 56.02 122.57 Q 55.86 122.57 55.72 122.52 Q 55.53 122.46 55.38 122.29 Q 55.23 122.11 55.01 121.97 Q 54.79 121.83 54.57 121.75 Q 54.35 121.67 54.22 121.56 Q 53.83 121.29 53.44 120.8 Q 53.04 120.3 52.74 119.76 Q 52.49 119.26 52.15 118.74 Q 51.81 118.22 51.62 117.65 Q 51.56 117.32 51.54 116.93 Q 51.51 116.53 51.46 116.12 Q 51.4 115.33 51.41 114.48 Q 51.43 113.63 51.59 112.62 Q 51.65 112.32 51.78 112.03 Q 51.92 111.74 52.06 111.44 Q 52.17 111.14 52.26 110.84 Q 52.36 110.54 52.47 110.27 Q 52.6 110.02 52.85 109.8 Q 53.1 109.58 53.18 109.28 Q 53.26 108.98 53.16 108.74 Q 53.07 108.49 53.12 108.16 Q 53.21 107.51 53.74 107 Q 54.27 106.49 54.74 105.95 Q 55.34 105.29 55.88 104.85 Q 56.43 104.42 57.17 103.87 Q 57.28 103.81 57.46 103.75 Q 57.63 103.68 57.8 103.57 Q 57.94 103.46 58.07 103.34 Q 58.21 103.21 58.32 103.16 Q 58.56 103.1 58.82 103.14 Q 59.08 103.19 59.33 103.13 Q 59.55 103.08 59.75 102.91 Q 59.96 102.75 60.15 102.56 Q 60.34 102.37 60.53 102.17 Q 60.72 101.98 60.92 101.87 Q 61 101.82 61.12 101.81 Q 61.24 101.79 61.35 101.74 Q 62.12 101.41 62.98 101.5 Q 63.84 101.6 64.72 101.65 Q 65.37 101.71 66.04 101.75 Q 66.71 101.79 67.29 101.96 Q 67.67 102.06 68.03 102.27 Q 68.38 102.47 68.76 102.53 Z M 63.95 119.48 Q 64.14 119.29 64.33 118.98 Q 64.53 118.66 64.74 118.36 Q 65.18 117.62 65.56 116.84 Q 65.95 116.06 66.33 115.27 Q 66.69 114.48 66.95 113.59 Q 67.21 112.7 67.51 111.8 Q 67.62 111.5 67.85 111.14 Q 68.08 110.79 68.08 110.54 Q 68.11 110.35 67.98 110.17 Q 67.86 109.99 67.83 109.86 Q 67.83 109.67 67.85 109.52 Q 67.86 109.37 67.83 109.2 Q 67.83 109.04 67.78 108.9 Q 67.72 108.76 67.67 108.63 Q 67.62 108.38 67.59 108.11 Q 67.56 107.83 67.56 107.59 Q 67.56 107.37 67.59 107.16 Q 67.62 106.96 67.59 106.74 Q 67.45 106.08 67.01 105.61 Q 66.58 105.13 66.14 104.77 Q 66 104.66 65.92 104.54 Q 65.84 104.42 65.73 104.36 Q 65.54 104.31 65.3 104.28 Q 65.07 104.25 64.91 104.28 Q 64.31 104.33 63.83 104.54 Q 63.35 104.74 62.75 104.88 Q 61.87 105.46 60.88 106.19 Q 59.88 106.93 59.25 107.86 Q 59.17 108 59.13 108.14 Q 59.08 108.27 59 108.41 Q 58.87 108.63 58.7 108.78 Q 58.54 108.93 58.4 109.15 Q 58.15 109.56 57.91 110.05 Q 57.66 110.54 57.58 110.95 Q 57.44 111.5 57.42 112.13 Q 57.39 112.76 57.31 113.39 Q 57.22 114.15 57.12 114.88 Q 57.01 115.6 57.06 116.23 Q 57.06 116.39 57.12 116.57 Q 57.17 116.75 57.2 116.94 Q 57.28 117.65 57.36 118.14 Q 57.44 118.64 57.8 119.07 Q 57.94 119.24 58.18 119.36 Q 58.43 119.48 58.59 119.65 Q 58.73 119.78 58.8 119.92 Q 58.87 120.06 59 120.17 Q 59.9 120.88 61.57 120.88 Q 62.09 120.52 62.79 120.25 Q 63.49 119.97 63.95 119.48 Z M 98.44 101.98 Q 98.3 102.28 97.98 102.41 Q 97.65 102.53 97.32 102.67 Q 96.94 102.86 96.54 103.04 Q 96.14 103.21 95.73 103.46 Q 94.97 103.87 94.34 104.57 Q 93.71 105.26 93.08 105.92 Q 92.75 106.22 92.41 106.47 Q 92.07 106.71 91.85 107.01 Q 91.55 107.31 91.28 107.64 Q 91 107.97 90.65 108.27 Q 90.4 108.46 90.16 108.6 Q 89.91 108.74 89.8 108.93 Q 89.75 108.98 89.72 109.16 Q 89.69 109.34 89.64 109.45 Q 89.5 109.75 89.23 109.95 Q 88.95 110.16 88.73 110.43 Q 88.62 110.57 88.56 110.69 Q 88.49 110.81 88.38 110.95 Q 88.24 111.09 88.08 111.21 Q 87.91 111.33 87.78 111.47 Q 87.56 111.72 87.34 111.98 Q 87.12 112.24 86.79 112.51 Q 86.52 112.76 86.18 113.08 Q 85.84 113.41 85.78 113.58 Q 85.75 113.74 85.84 113.93 Q 85.92 114.12 86.03 114.33 Q 86.14 114.53 86.25 114.72 Q 86.36 114.92 86.41 115.08 Q 86.55 115.35 86.64 115.7 Q 86.74 116.04 86.85 116.37 Q 86.98 116.69 87.16 116.99 Q 87.34 117.3 87.39 117.6 Q 87.45 117.9 87.46 118.18 Q 87.48 118.47 87.56 118.69 Q 87.67 118.91 87.86 119.07 Q 88.05 119.24 88.21 119.46 Q 88.38 119.67 88.5 119.89 Q 88.62 120.11 88.84 120.25 Q 88.98 120.63 89.1 121.03 Q 89.23 121.42 89.47 121.72 Q 89.61 121.89 89.77 122.12 Q 89.94 122.35 90.1 122.49 Q 90.24 122.6 90.4 122.63 Q 90.57 122.65 90.68 122.79 Q 90.78 122.87 90.83 123.01 Q 90.87 123.15 90.95 123.28 Q 91.17 123.56 91.55 123.79 Q 91.93 124.02 92.26 124.3 Q 92.56 124.57 92.81 124.79 Q 93.05 125.01 93.49 125.22 Q 93.57 125.28 93.7 125.28 Q 93.82 125.28 93.93 125.33 Q 94.12 125.39 94.26 125.53 Q 94.39 125.66 94.69 125.64 Q 95.11 125.8 95.27 125.84 Q 95.43 125.88 95.56 125.98 Q 95.68 126.07 95.79 126.18 Q 95.9 126.29 96.03 126.35 Q 96.31 126.21 96.69 126.32 Q 97.07 126.43 97.46 126.4 Q 97.76 126.37 97.92 126.33 Q 98.09 126.29 98.22 126.22 Q 98.36 126.15 98.51 126.11 Q 98.66 126.07 98.93 126.05 Q 99.26 126.02 99.59 125.77 Q 99.92 125.53 100.27 125.36 Q 100.55 125.22 100.81 125.16 Q 101.07 125.09 101.37 124.98 Q 101.59 124.9 101.85 124.77 Q 102.11 124.65 102.41 124.76 Q 102.43 125.2 102.12 125.55 Q 101.8 125.91 101.5 126.15 Q 100.98 126.56 100.41 126.85 Q 99.84 127.14 99.45 127.63 Q 98.41 128.07 97.28 128.49 Q 96.14 128.92 94.83 129.08 Q 94.31 129.14 93.9 129.01 Q 93.49 128.89 93.19 128.67 Q 93 128.78 92.79 128.85 Q 92.59 128.92 92.45 129.11 Q 92.29 128.94 92.03 129.03 Q 91.77 129.11 91.5 129.08 Q 91.19 129.03 90.99 128.88 Q 90.78 128.72 90.62 128.59 Q 90.32 128.64 90.18 128.55 Q 90.05 128.45 89.83 128.34 Q 88.95 127.96 88.24 127.34 Q 87.53 126.73 86.74 126.15 Q 86.52 125.99 86.26 125.85 Q 86 125.72 85.81 125.55 Q 85.7 125.42 85.63 125.25 Q 85.56 125.09 85.43 124.9 Q 85.26 124.65 85.08 124.39 Q 84.91 124.13 84.93 123.69 Q 84.41 123.45 84.04 123.01 Q 83.68 122.57 83.4 122.03 Q 83.13 121.48 82.91 120.9 Q 82.69 120.33 82.44 119.78 Q 82.39 119.65 82.29 119.58 Q 82.2 119.51 82.14 119.43 Q 81.82 118.88 81.57 118.32 Q 81.32 117.76 81.02 117.27 Q 80.18 118.17 79.33 119.06 Q 78.48 119.95 77.33 120.55 Q 77 120.93 76.58 121.19 Q 76.16 121.45 75.73 121.71 Q 75.31 121.97 74.88 122.24 Q 74.46 122.52 74.13 122.87 Q 73.83 123.01 73.5 123.16 Q 73.18 123.31 72.71 123.31 Q 72.44 123.31 72.04 123.38 Q 71.64 123.45 71.28 123.49 Q 70.91 123.53 70.63 123.47 Q 70.36 123.42 70.36 123.2 Q 70.36 123.06 70.51 122.86 Q 70.66 122.65 70.88 122.45 Q 71.1 122.24 71.29 122.07 Q 71.48 121.89 71.56 121.81 Q 71.73 121.64 71.89 121.48 Q 72.05 121.31 72.19 121.15 Q 72.6 120.69 73.05 120.19 Q 73.5 119.7 73.97 119.24 Q 74.27 119.02 74.56 118.83 Q 74.84 118.64 75.01 118.33 Q 75.06 118.2 75.12 118.06 Q 75.17 117.92 75.23 117.79 Q 75.5 117.4 75.86 117.14 Q 76.21 116.89 76.54 116.67 Q 76.68 116.53 76.83 116.38 Q 76.98 116.23 77.11 116.06 Q 77.25 115.9 77.41 115.76 Q 77.58 115.63 77.71 115.49 Q 77.8 115.38 77.84 115.26 Q 77.88 115.14 77.96 115 Q 78.18 114.72 78.51 114.51 Q 78.84 114.29 79.03 113.99 Q 78.81 113.22 78.7 112.47 Q 78.59 111.72 78.26 110.95 Q 78.15 110.71 78.02 110.47 Q 77.88 110.24 77.77 110.02 Q 77.55 109.47 77.37 108.96 Q 77.19 108.44 76.95 107.97 Q 76.84 107.75 76.7 107.56 Q 76.57 107.37 76.43 107.18 Q 76.18 106.77 76.01 106.34 Q 75.83 105.92 75.61 105.51 Q 75.53 105.37 75.39 105.28 Q 75.25 105.18 75.2 105.05 Q 75.09 104.83 75.05 104.54 Q 75.01 104.25 74.87 103.95 Q 74.79 103.76 74.65 103.57 Q 74.52 103.38 74.54 103.19 Q 74.57 103.02 74.82 102.78 Q 75.06 102.53 75.36 102.47 Q 75.44 102.45 75.55 102.46 Q 75.66 102.47 75.77 102.42 Q 75.88 102.39 76.1 102.3 Q 76.32 102.2 76.54 102.11 Q 76.76 102.01 76.96 101.94 Q 77.17 101.87 77.28 101.87 Q 77.47 101.87 77.51 102.04 Q 77.55 102.2 77.69 102.37 Q 77.91 102.67 78.23 102.95 Q 78.56 103.24 78.92 103.46 Q 78.97 103.4 78.93 103.25 Q 78.89 103.1 79.03 103.05 Q 79.46 102.83 79.83 102.82 Q 80.2 102.8 80.53 103.16 Q 80.94 103.62 81.32 104.43 Q 81.71 105.24 82.01 106 Q 82.14 106.3 82.31 106.49 Q 82.47 106.69 82.53 106.9 Q 82.61 107.18 82.6 107.44 Q 82.58 107.7 82.69 107.86 Q 82.8 108.05 82.98 108.14 Q 83.16 108.22 83.27 108.3 Q 83.43 108.93 83.51 109.39 Q 83.59 109.86 83.95 110.4 Q 84.41 110.16 84.77 109.79 Q 85.12 109.42 85.44 109.01 Q 85.75 108.6 86.08 108.19 Q 86.41 107.78 86.79 107.45 Q 87.09 107.26 87.35 107.07 Q 87.61 106.88 87.83 106.66 Q 87.86 106.25 88.06 105.95 Q 88.27 105.65 88.54 105.4 Q 88.82 105.15 89.12 104.92 Q 89.42 104.69 89.66 104.42 Q 89.88 104.14 90.07 103.79 Q 90.27 103.43 90.48 103.13 Q 90.57 103.05 90.66 102.97 Q 90.76 102.89 90.81 102.83 Q 90.87 102.69 90.92 102.52 Q 90.98 102.34 91.03 102.26 Q 91.33 101.87 91.97 101.78 Q 92.62 101.68 93.25 101.74 Q 93.55 101.76 94.08 101.86 Q 94.61 101.96 94.91 101.98 Q 95.3 102.01 95.75 101.97 Q 96.2 101.93 96.64 101.87 Q 96.88 101.85 97.16 101.76 Q 97.43 101.68 97.66 101.65 Q 97.89 101.63 98.1 101.68 Q 98.3 101.74 98.44 101.98 Z M 100.76 112.76 Q 100.57 113.47 100.3 114.18 Q 100.02 114.89 99.91 115.76 Q 99.89 115.98 99.93 116.26 Q 99.97 116.53 99.97 116.83 Q 99.97 117.13 99.93 117.56 Q 99.89 117.98 99.9 118.38 Q 99.91 118.77 100.01 119.09 Q 100.11 119.4 100.38 119.48 Q 100.71 119.59 101.14 119.54 Q 101.58 119.48 102.05 119.39 Q 102.51 119.29 102.99 119.18 Q 103.47 119.07 103.91 119.1 Q 104.29 119.13 104.7 119.22 Q 105.11 119.32 105.49 119.26 Q 105.71 119.24 105.94 119.17 Q 106.18 119.1 106.39 119.07 Q 106.7 119.05 107.04 119.07 Q 107.38 119.1 107.73 119.05 Q 108.06 118.99 108.42 118.91 Q 108.77 118.83 109.07 118.8 Q 109.51 118.8 109.94 118.88 Q 110.36 118.96 110.76 119.09 Q 111.15 119.21 111.56 119.29 Q 111.97 119.37 112.38 119.37 Q 112.63 119.35 112.86 119.28 Q 113.09 119.21 113.29 119.48 Q 113.23 119.78 113.08 119.93 Q 112.93 120.08 112.79 120.28 Q 112.16 120.49 111.62 120.48 Q 111.07 120.47 110.47 120.52 Q 109.65 120.58 108.69 120.85 Q 107.73 121.12 106.94 121.34 Q 106.48 121.48 105.98 121.66 Q 105.49 121.83 104.95 121.97 Q 104.29 122.19 103.63 122.35 Q 102.98 122.52 102.35 122.76 Q 101.69 123.04 101.05 123.37 Q 100.41 123.69 99.7 123.86 Q 99.26 123.99 98.79 124.12 Q 98.33 124.24 97.92 124.24 Q 97.59 124.24 97.25 124.17 Q 96.91 124.1 96.59 123.97 Q 96.28 123.83 96.03 123.64 Q 95.79 123.45 95.65 123.23 Q 95.38 123.42 95.13 123.45 Q 94.88 123.47 94.64 123.43 Q 94.39 123.39 94.14 123.31 Q 93.9 123.23 93.63 123.2 Q 93.49 122.96 93.31 122.76 Q 93.13 122.57 92.97 122.35 Q 92.91 121.81 93.19 121.38 Q 93.46 120.96 93.63 120.47 Q 93.9 119.81 94.14 119.09 Q 94.39 118.36 94.53 117.65 Q 94.64 117.05 94.64 116.28 Q 94.64 115.52 94.86 114.92 L 96.09 111.83 Q 95.98 111.39 96 111.03 Q 96.03 110.68 96.14 110.32 Q 96.25 109.97 96.39 109.6 Q 96.52 109.23 96.66 108.76 Q 96.8 108.19 96.95 107.6 Q 97.1 107.01 97.15 106.28 Q 97.21 105.65 97.21 105.05 Q 97.21 104.44 96.88 104.03 Q 96.8 103.92 96.61 103.8 Q 96.41 103.68 96.22 103.56 Q 96.03 103.43 95.89 103.28 Q 95.76 103.13 95.76 102.99 Q 95.76 102.8 95.94 102.68 Q 96.11 102.56 96.36 102.49 Q 96.61 102.42 96.88 102.41 Q 97.15 102.39 97.4 102.39 Q 97.86 102.42 98.37 102.5 Q 98.88 102.58 99.34 102.64 Q 99.48 102.67 99.61 102.64 Q 99.75 102.61 99.89 102.64 Q 100.11 102.67 100.28 102.75 Q 100.46 102.83 100.63 102.83 Q 100.76 102.86 101.13 102.82 Q 101.5 102.78 101.64 102.8 Q 101.8 102.8 101.95 102.87 Q 102.1 102.94 102.29 102.97 Q 102.73 103.02 103.2 102.97 Q 103.66 102.91 104.11 102.86 Q 104.56 102.8 105.04 102.76 Q 105.52 102.72 106.01 102.8 Q 105.98 103.16 105.7 103.34 Q 105.41 103.51 105.22 103.65 Q 105.11 103.76 105.01 103.86 Q 104.92 103.95 104.81 104.03 Q 104.67 104.14 104.56 104.21 Q 104.45 104.28 104.34 104.39 Q 104.02 104.74 103.88 105.09 Q 103.74 105.43 103.52 105.92 Q 103.47 106.06 103.37 106.18 Q 103.28 106.3 103.2 106.44 Q 103.14 106.6 103.1 106.8 Q 103.06 106.99 102.98 107.12 Q 102.87 107.29 102.66 107.41 Q 102.46 107.53 102.32 107.75 Q 102.43 108.08 102.38 108.39 Q 102.32 108.71 102.22 109 Q 102.13 109.28 101.99 109.57 Q 101.86 109.86 101.8 110.13 Z" transform="matrix(2.076475, 0, 0, 2.215406, -49.193844, -113.805084)" style="fill: rgb(245, 245, 245);"/>
</svg>