<svg xmlns="http://www.w3.org/2000/svg" xmlns:xlink="http://www.w3.org/1999/xlink" xmlns:lucid="lucid" width="1421" height="789.77"><g transform="translate(81 60)" lucid:page-tab-id="0_0"><path d="M-60 26a6 6 0 0 1 6-6h1168a6 6 0 0 1 6 6v588a6 6 0 0 1-6 6H-54a6 6 0 0 1-6-6z" stroke="#3a414a" stroke-width="2" fill="#edf5ff"/><use xlink:href="#a" transform="matrix(1,0,0,1,-55,25) translate(510.6111111111111 32)"/><path d="M650 186a6 6 0 0 1 6-6h168a6 6 0 0 1 6 6v78a6 6 0 0 1-6 6H656a6 6 0 0 1-6-6z" stroke="#3a414a" stroke-width="2" fill="#ffdda6"/><use xlink:href="#b" transform="matrix(1,0,0,1,662,192) translate(14.635802469135804 23.96527777777778)"/><use xlink:href="#c" transform="matrix(1,0,0,1,662,192) translate(15.469135802469133 50.63194444444445)"/><use xlink:href="#d" transform="matrix(1,0,0,1,662,192) translate(66.02469135802468 50.63194444444445)"/><path d="M741.5 319.75c0 .83-.67 1.5-1.5 1.5s-1.5-.67-1.5-1.5.67-1.5 1.5-1.5 1.5.67 1.5 1.5zm0-5.63c0 .83-.67 1.5-1.5 1.5s-1.5-.67-1.5-1.5c0-.82.67-1.5 1.5-1.5s1.5.68 1.5 1.5zm0-5.62c0 .83-.67 1.5-1.5 1.5s-1.5-.67-1.5-1.5.67-1.5 1.5-1.5 1.5.67 1.5 1.5zm0-5.63c0 .83-.67 1.5-1.5 1.5s-1.5-.67-1.5-1.5.67-1.5 1.5-1.5 1.5.67 1.5 1.5zm0-5.62c0 .82-.67 1.5-1.5 1.5s-1.5-.68-1.5-1.5c0-.83.67-1.5 1.5-1.5s1.5.67 1.5 1.5zm0-5.63c0 .83-.67 1.5-1.5 1.5s-1.5-.67-1.5-1.5.67-1.5 1.5-1.5 1.5.67 1.5 1.5z" fill="#3a414a"/><path d="M741.48 321.25h-2.96v-1.54h2.96z" stroke="#3a414a" stroke-width=".05" fill="#3a414a"/><path d="M740 275.85l4.63 14.27h-9.26z" stroke="#3a414a" stroke-width="3" fill="#3a414a"/><path d="M580 160.63c0 29-26.86 52.5-60 52.5s-60-23.5-60-52.5 26.86-52.5 60-52.5 60 23.5 60 52.5z" stroke="#3a414a" stroke-width="2" fill="#fff7a1"/><use xlink:href="#e" transform="matrix(1,0,0,1,465,113.125) translate(13.20987654320988 53.40277777777778)"/><path d="M1184 649.13c-13.26 0-24-10.75-24-24 0-10.6 6.5-19.55 16.58-22.83-.58-31.17 39.42-37.17 55.42-25.17 8-18 48-12 48 6 24-6 48 18 32 48 16 24 0 54-32 42-8 15.6-40 15.6-48 0-16 12-48 6-48-24z" stroke="#6f7681" stroke-width="2" fill="#e81313"/><use xlink:href="#f" transform="matrix(1,0,0,1,1165,570.125) translate(30.770432098765426 42.07638888888889)"/><use xlink:href="#g" transform="matrix(1,0,0,1,1165,570.125) translate(28.69635802469136 79.40972222222223)"/><path d="M580 373.75c0 29-26.86 52.5-60 52.5s-60-23.5-60-52.5 26.86-52.5 60-52.5 60 23.5 60 52.5z" stroke="#3a414a" stroke-width="2" fill="#fff7a1"/><use xlink:href="#h" transform="matrix(1,0,0,1,465,326.25) translate(2.6851851851851833 53.40277777777778)"/><path d="M521.06 298.57l.44 1.06-.44 1.06-1.06.43-1.06-.44-.44-1.07.44-1.06 1.06-.44zm0-6l.44 1.06-.44 1.06-1.06.43-1.06-.44-.44-1.07.44-1.06 1.06-.44zm0-6l.44 1.06-.44 1.06-1.06.43-1.06-.44-.44-1.07.44-1.06 1.06-.44zm0-6l.44 1.06-.44 1.06-1.06.43-1.06-.44-.44-1.07.44-1.06 1.06-.44zm0-6l.44 1.06-.44 1.06-1.06.43-1.06-.44-.44-1.07.44-1.06 1.06-.44zm0-6l.44 1.06-.44 1.06-1.06.43-1.06-.44-.44-1.07.44-1.06 1.06-.44zm0-6l.44 1.06-.44 1.06-1.06.43-1.06-.44-.44-1.07.44-1.06 1.06-.44zm0-3.88l-1.06.43-1.06-.44-.03-.1h2.2zm0-26.13l.44 1.06-.44 1.06-1.06.43-1.06-.44-.44-1.07.44-1.06 1.06-.44zm0-6l.44 1.06-.44 1.06-1.06.43-1.06-.44-.44-1.07.44-1.06 1.06-.44zm0-6l.44 1.06-.44 1.06-1.06.43-1.06-.44-.44-1.07.44-1.06 1.06-.44zm0-6l.44 1.06-.44 1.06-1.06.43-1.06-.44-.44-1.07.44-1.06 1.06-.44z" fill="#3a414a"/><path d="M520 214.13l1.48-.06v1.6h-2.96v-1.6z" fill="#3a414a"/><path stroke="#3a414a" stroke-width=".05" fill="#3a414a"/><path d="M520 315.4l-4.63-14.27h9.26z" fill="#3a414a"/><path d="M520 320.17l-6.66-20.52h13.32zm-2.6-17.57l2.6 8.02 2.6-8.02z" stroke="#3a414a" stroke-width=".05" fill="#3a414a"/><use xlink:href="#i" transform="matrix(1,0,0,1,481.0617283950617,237.27319856177633) translate(0 14.222222222222223)"/><use xlink:href="#j" transform="matrix(1,0,0,1,481.0617283950617,237.27319856177633) translate(15.753086419753089 14.222222222222223)"/><path d="M1251.42 530.6l1.15.3 1.08.44 1 .6.9.77.76.9.62 1 .45 1.1.27 1.13.1 1.1v6.84h-2.96v-6.7l-.06-.78-.17-.7-.27-.65-.37-.6-.45-.55-.54-.46-.6-.37-.65-.27-.7-.17-.75-.05H731.68v-2.96h518.63zM612.5 533.5v-2.96h5.7v2.96z" stroke="#6f7681" stroke-width=".05" fill="#6f7681"/><path d="M612.54 533.48H611v-2.96h1.54z" fill="#6f7681"/><path stroke="#6f7681" stroke-width=".05" fill="#6f7681"/><path d="M1256.26 560.54l-4.64-14.27h9.27z" fill="#6f7681"/><path d="M1256.26 565.3l-6.67-20.5h13.32zm-2.6-17.55l2.6 8 2.6-8z" stroke="#6f7681" stroke-width=".05" fill="#6f7681"/><use xlink:href="#k" transform="matrix(1,0,0,1,618.2025909668996,521.3333333333334) translate(0 14.222222222222223)"/><use xlink:href="#l" transform="matrix(1,0,0,1,618.2025909668996,521.3333333333334) translate(44.39506172839507 14.222222222222223)"/><use xlink:href="#m" transform="matrix(1,0,0,1,618.2025909668996,521.3333333333334) translate(64.14814814814815 14.222222222222223)"/><path d="M100 185c22.1 0 40 17.9 40 40s-17.9 40-40 40H20c-22.1 0-40-17.9-40-40s17.9-40 40-40z" stroke="#3a414a" stroke-width="2" fill="#f4d9ff"/><use xlink:href="#n" transform="matrix(1,0,0,1,-15,190) translate(9.660493827160508 39.65277777777778)"/><use xlink:href="#o" transform="matrix(1,0,0,1,-15,190) translate(61.3888888888889 39.65277777777778)"/><path d="M900 186a6 6 0 0 1 6-6h168a6 6 0 0 1 6 6v78a6 6 0 0 1-6 6H906a6 6 0 0 1-6-6z" stroke="#3a414a" stroke-width="2" fill="#b8f5ed"/><use xlink:href="#p" transform="matrix(1,0,0,1,912,192) translate(20.777777777777786 17.77777777777778)"/><use xlink:href="#q" transform="matrix(1,0,0,1,912,192) translate(81.0246913580247 17.77777777777778)"/><path d="M1020 225c11.05 0 20 8.95 20 20s-8.95 20-20 20h-60c-11.05 0-20-8.95-20-20s8.95-20 20-20z" stroke="#3a414a" stroke-width="2" fill="#fcce14"/><use xlink:href="#r" transform="matrix(1,0,0,1,945,230) translate(7.412407407407409 19.65277777777778)"/><path d="M521.06 454.94l.44 1.06-.44 1.06-1.06.44-1.06-.44-.44-1.06.44-1.06 1.06-.44zm1.76-4.24l.44 1.06-.44 1.06-1.06.44-1.06-.44-.44-1.06.44-1.06 1.06-.44zm4.24-1.76l.44 1.06-.44 1.06-1.06.44-1.06-.44-.44-1.06.44-1.06 1.06-.44zm6.03 0l.43 1.06-.44 1.06-1.07.44-1.06-.44-.44-1.06.44-1.06 1.06-.44zm6 0l.45 1.06-.44 1.06-1.05.44-1.06-.44-.45-1.06.44-1.06 1.05-.44zm6.04 0l.44 1.06-.44 1.06-1.06.44-1.06-.44-.44-1.06.44-1.06 1.06-.44zm6.03 0l.44 1.06-.43 1.06-1.06.44-1.06-.44-.43-1.06.44-1.06 1.07-.44zm6.02 0l.43 1.06-.44 1.06-1.07.44-1.06-.44-.44-1.06.44-1.06 1.06-.44zm6.02 0l.44 1.06-.44 1.06-1.06.44-1.06-.44-.44-1.06.44-1.06 1.06-.44zm6.02 0l.44 1.06-.43 1.06-1.07.44-1.06-.44-.44-1.06.44-1.06 1.06-.44zm6.03 0l.44 1.06-.43 1.06-1.06.44-1.05-.44-.44-1.06.45-1.06 1.06-.44zm6.03 0l.44 1.06-.44 1.06-1.06.44-1.06-.44-.44-1.06.44-1.06 1.06-.44zm6.02 0l.44 1.06-.44 1.06-1.06.44-1.06-.44-.44-1.06.44-1.06 1.06-.44zm6.03 0l.44 1.06-.45 1.06-1.06.44-1.07-.44-.44-1.06.43-1.06 1.06-.44zm6.03 0l.44 1.06-.44 1.06-1.06.44-1.07-.44-.43-1.06.43-1.06 1.07-.44zm6.02 0l.44 1.06-.44 1.06-1.06.44-1.06-.44-.44-1.06.44-1.06 1.06-.44zm6.03 0l.44 1.06-.44 1.06-1.06.44-1.06-.44-.43-1.06.44-1.06 1.07-.44zm6.03 0l.43 1.06-.44 1.06-1.07.44-1.07-.44-.44-1.06.43-1.06 1.06-.44zm6.02 0l.44 1.06-.44 1.06-1.06.44-1.06-.44-.44-1.06.44-1.06 1.06-.44zm6.03 0l.45 1.06-.44 1.06-1.05.44-1.06-.44-.45-1.06.44-1.06 1.05-.44zm6.03 0l.44 1.06-.44 1.06-1.06.44-1.06-.44-.43-1.06.44-1.06 1.07-.44zm6.03 0L642 450l-.44 1.06-1.06.44-1.06-.44L639 450l.44-1.06 1.06-.44zm6.03 0l.43 1.06-.44 1.06-1.07.44-1.06-.44-.44-1.06.44-1.06 1.06-.44zm6 0l.45 1.06-.44 1.06-1.05.44-1.06-.44-.45-1.06.44-1.06 1.05-.44zm6.04 0l.44 1.06-.44 1.06-1.06.44-1.06-.44-.44-1.06.44-1.06 1.06-.44zm6.03 0l.44 1.06-.43 1.06-1.06.44-1.06-.44-.43-1.06.44-1.06 1.07-.44zm6.02 0l.43 1.06-.44 1.06-1.07.44-1.06-.44-.44-1.06.44-1.06 1.06-.44zm6.02 0l.44 1.06-.44 1.06-1.06.44-1.06-.44-.44-1.06.44-1.06 1.06-.44zm6.02 0l.44 1.06-.43 1.06-1.07.44-1.06-.44-.44-1.06.44-1.06 1.06-.44zm6.03 0l.44 1.06-.43 1.06-1.06.44-1.05-.44-.44-1.06.45-1.06 1.06-.44zm6.03 0l.44 1.06-.44 1.06-1.06.44-1.06-.44-.44-1.06.44-1.06 1.06-.44zm6.02 0l.44 1.06-.44 1.06-1.06.44-1.06-.44-.44-1.06.44-1.06 1.06-.44zm6.03 0l.44 1.06-.45 1.06-1.06.44-1.07-.44-.44-1.06.43-1.06 1.06-.44zm6.03 0l.44 1.06-.44 1.06-1.06.44-1.07-.44-.43-1.06.43-1.06 1.07-.44zm6.02 0l.44 1.06-.44 1.06-1.06.44-1.06-.44-.44-1.06.44-1.06 1.06-.44zm6.03 0l.44 1.06-.44 1.06-1.06.44-1.06-.44-.43-1.06.44-1.06 1.07-.44zm6.03 0l.43 1.06-.44 1.06-1.07.44-1.07-.44-.44-1.06.43-1.06 1.06-.44zm6.02 0l.44 1.06-.44 1.06-1.06.44-1.06-.44-.44-1.06.44-1.06 1.06-.44zm6.03 0l.45 1.06-.44 1.06-1.05.44-1.06-.44-.45-1.06.44-1.06 1.05-.44zm6.03 0l.44 1.06-.44 1.06-1.06.44-1.06-.44-.43-1.06.44-1.06 1.07-.44zm6.03 0l.44 1.06-.44 1.06-1.06.44-1.06-.44-.44-1.06.44-1.06 1.06-.44zm6.03 0l.43 1.06-.44 1.06-1.07.44-1.06-.44-.44-1.06.44-1.06 1.06-.44zm6 0l.45 1.06-.44 1.06-1.05.44-1.06-.44-.45-1.06.44-1.06 1.05-.44zm6.04 0l.44 1.06-.44 1.06-1.06.44-1.06-.44-.44-1.06.44-1.06 1.06-.44zm6.03 0l.44 1.06-.43 1.06-1.06.44-1.06-.44-.43-1.06.44-1.06 1.07-.44zm6.02 0l.43 1.06-.44 1.06-1.07.44-1.06-.44-.44-1.06.44-1.06 1.06-.44zm6.02 0l.44 1.06-.44 1.06-1.06.44-1.06-.44-.44-1.06.44-1.06 1.06-.44zm6.02 0l.44 1.06-.43 1.06-1.07.44-1.06-.44-.44-1.06.44-1.06 1.06-.44zm6.03 0l.44 1.06-.43 1.06-1.06.44-1.05-.44-.44-1.06.45-1.06 1.06-.44zm6.03 0l.44 1.06-.44 1.06-1.06.44-1.06-.44-.44-1.06.44-1.06 1.06-.44zm6.02 0l.44 1.06-.44 1.06-1.06.44-1.06-.44-.44-1.06.44-1.06 1.06-.44zm6.03 0l.44 1.06-.45 1.06-1.06.44-1.07-.44-.44-1.06.43-1.06 1.06-.44zm6.03 0l.44 1.06-.44 1.06-1.06.44-1.07-.44-.43-1.06.43-1.06 1.07-.44zm6.02 0l.44 1.06-.44 1.06-1.06.44-1.06-.44-.44-1.06.44-1.06 1.06-.44zm6.03 0l.44 1.06-.44 1.06-1.06.44-1.06-.44-.43-1.06.44-1.06 1.07-.44zm6.03 0l.43 1.06-.44 1.06-1.07.44-1.07-.44-.44-1.06.43-1.06 1.06-.44zm6.02 0l.44 1.06-.44 1.06-1.06.44-1.06-.44-.44-1.06.44-1.06 1.06-.44zm6.03 0l.45 1.06-.44 1.06-1.05.44-1.06-.44-.45-1.06.44-1.06 1.05-.44zm6.03 0l.44 1.06-.44 1.06-1.06.44-1.06-.44-.43-1.06.44-1.06 1.07-.44zm6.03 0L871 450l-.44 1.06-1.06.44-1.06-.44L868 450l.44-1.06 1.06-.44zm6.03 0l.43 1.06-.44 1.06-1.07.44-1.06-.44-.44-1.06.44-1.06 1.06-.44zm6 0l.45 1.06-.44 1.06-1.05.44-1.06-.44-.45-1.06.44-1.06 1.05-.44zm6.04 0l.44 1.06-.44 1.06-1.06.44-1.06-.44-.44-1.06.44-1.06 1.06-.44zm6.03 0l.44 1.06-.43 1.06-1.06.44-1.06-.44-.43-1.06.44-1.06 1.07-.44zm6.02 0l.43 1.06-.44 1.06-1.07.44-1.06-.44-.44-1.06.44-1.06 1.06-.44zm6.02 0l.44 1.06-.44 1.06-1.06.44-1.06-.44-.44-1.06.44-1.06 1.06-.44zm6.02 0l.44 1.06-.43 1.06-1.07.44-1.06-.44-.44-1.06.44-1.06 1.06-.44zm6.03 0l.44 1.06-.43 1.06-1.06.44-1.05-.44-.44-1.06.45-1.06 1.06-.44zm6.03 0l.44 1.06-.44 1.06-1.06.44-1.06-.44-.44-1.06.44-1.06 1.06-.44zm6.02 0l.44 1.06-.44 1.06-1.06.44-1.06-.44-.44-1.06.44-1.06 1.06-.44zm6.03 0l.44 1.06-.45 1.06-1.06.44-1.07-.44-.44-1.06.43-1.06 1.06-.44zm6.03 0l.44 1.06-.44 1.06-1.06.44-1.07-.44-.43-1.06.43-1.06 1.07-.44zm6.02 0l.44 1.06-.44 1.06-1.06.44-1.06-.44-.44-1.06.44-1.06 1.06-.44zm6.03 0l.44 1.06-.44 1.06-1.06.44-1.06-.44-.43-1.06.44-1.06 1.07-.44zm6.03 0l.43 1.06-.44 1.06-1.07.44-1.07-.44-.44-1.06.43-1.06 1.06-.44zm6.02 0l.44 1.06-.44 1.06-1.06.44-1.06-.44-.44-1.06.44-1.06 1.06-.44zm6.03 0l.45 1.06-.44 1.06-1.05.44-1.06-.44-.45-1.06.44-1.06 1.05-.44zm6.03 0l.44 1.06-.44 1.06-1.06.44-1.06-.44-.43-1.06.44-1.06 1.07-.44zm6.03 0l.44 1.06-.44 1.06-1.06.44-1.06-.44-.44-1.06.44-1.06 1.06-.44zm4.24-1.76l.44 1.06-.44 1.06-1.06.44-1.06-.44-.44-1.06.44-1.06 1.06-.44zm1.76-4.24l.44 1.06-.44 1.06-1.06.44-1.06-.44-.44-1.06.44-1.06 1.06-.44zm0-5.9l.44 1.05-.44 1.05-1.06.44-1.06-.45-.44-1.06.44-1.07 1.06-.44zm0-5.93l.44 1.07-.44 1.06-1.06.44-1.06-.44-.44-1.06.44-1.06 1.06-.43zm0-5.9l.44 1.06-.44 1.06-1.06.44-1.06-.44-.44-1.06.44-1.06 1.06-.44zm0-5.92l.44 1.07-.44 1.05-1.06.45-1.06-.45-.44-1.05.44-1.07 1.06-.43zm0-5.9l.44 1.05-.44 1.06-1.06.43-1.06-.44-.44-1.07.44-1.06 1.06-.44zm0-5.92l.44 1.06-.44 1.06-1.06.44-1.06-.44-.44-1.06.44-1.06 1.06-.44zm0-5.92l.44 1.06-.44 1.06-1.06.44-1.06-.44-.44-1.06.44-1.06 1.06-.44zm0-5.9l.44 1.05-.44 1.05-1.06.44-1.06-.45-.44-1.06.44-1.07 1.06-.44zm0-5.93l.44 1.08-.44 1.06-1.06.44-1.06-.44-.44-1.06.44-1.06 1.06-.44zm0-5.9l.44 1.06-.44 1.06-1.06.44-1.06-.44-.44-1.06.44-1.06 1.06-.44zm0-5.9l.44 1.05-.44 1.06-1.06.45-1.06-.44-.44-1.05.44-1.06 1.06-.45zm0-5.93l.44 1.06-.44 1.07-1.06.43-1.06-.43-.44-1.07.44-1.06 1.06-.44zm0-5.9l.44 1.05-.44 1.06-1.06.44-1.06-.44-.44-1.06.44-1.06 1.06-.44zm0-5.92l.44 1.06-.44 1.07-1.06.44-1.06-.43-.44-1.06.44-1.05 1.06-.44zm0-5.92l.44 1.06-.44 1.05-1.06.44-1.06-.45-.44-1.06.44-1.07 1.06-.44zm0-5.9l.44 1.05-.44 1.06-1.06.44-1.06-.44-.44-1.06.44-1.06 1.06-.44zm0-5.93l.44 1.06-.44 1.07-1.06.44-1.06-.44-.44-1.06.44-1.07 1.06-.44zm0-5.9l.44 1.05-.44 1.06-1.06.45-1.06-.44-.44-1.05.44-1.06 1.06-.45zm0-5.92l.44 1.06-.44 1.06-1.06.44-1.06-.44-.44-1.06.44-1.06 1.06-.44zm0-5.92l.44 1.06-.44 1.06-1.06.44-1.06-.44-.44-1.06.44-1.06 1.06-.44zm0-5.9l.44 1.05-.44 1.07-1.06.44-1.06-.43-.44-1.06.44-1.05 1.06-.44zm0-5.92l.44 1.06-.44 1.06-1.06.44-1.06-.44-.44-1.06.44-1.06 1.06-.44zm0-3.8l-1.06.44-1.06-.44-.04-.1h2.2zm0-25.77l.44 1.06-.44 1.06-1.06.43-1.06-.44-.44-1.07.44-1.06 1.06-.44zm0-5.92l.44 1.06-.44 1.07-1.06.44-1.06-.43-.44-1.06.44-1.05 1.06-.44zm0-5.9l.44 1.05-.44 1.06-1.06.44-1.06-.44-.44-1.06.44-1.06L990 271z" fill="#3a414a"/><path d="M991.48 272.54h-2.96V271h2.96z" fill="#3a414a"/><path stroke="#3a414a" stroke-width=".05" fill="#3a414a"/><path d="M520 474.15l-4.63-14.27h9.26z" fill="#3a414a"/><path d="M520 478.92l-6.66-20.52h13.32zm-2.6-17.56l2.6 8 2.6-8z" stroke="#3a414a" stroke-width=".05" fill="#3a414a"/><use xlink:href="#s" transform="matrix(1,0,0,1,942.2222222222222,287.61109733554525) translate(0 14.222222222222223)"/><use xlink:href="#t" transform="matrix(1,0,0,1,942.2222222222222,287.61109733554525) translate(15.753086419753089 14.222222222222223)"/><path d="M629.44 373.2l.44 1.05-.44 1.06-1.06.45-1.06-.44-.44-1.05.44-1.06 1.06-.45zm-6.56 0l.44 1.05-.44 1.06-1.06.45-1.07-.44-.43-1.05.43-1.06 1.07-.45zm-7.07-.5l.45 1.05-.44 1.06-1.05.45-1.06-.44-.45-1.05.44-1.06 1.05-.45zm-6.44 0l.44 1.05-.44 1.06-1.06.45-1.06-.44-.44-1.05.44-1.06 1.06-.45zm-6.45 0l.45 1.05-.44 1.06-1.05.45-1.06-.44-.45-1.05.44-1.06 1.05-.45zm-12.94-.03v2.16l-1 .42-1.07-.44-.45-1.05.44-1.06 1.05-.45zm-6.4.02l.44 1.05-.44 1.06-1.06.45-1.06-.44-.44-1.05.44-1.06 1.06-.45z" fill="#3a414a"/><path d="M582.54 375.23h-1.6l.06-1.48-.05-1.48h1.6z" fill="#3a414a"/><path stroke="#3a414a" stroke-width=".05" fill="#3a414a"/><path d="M644.15 374.25l-14.27 4.63v-9.26z" fill="#3a414a"/><path d="M648.92 374.25l-20.5 6.67v-13.34zm-17.56 2.6l8-2.6-8-2.6z" stroke="#3a414a" stroke-width=".05" fill="#3a414a"/><use xlink:href="#u" transform="matrix(1,0,0,1,589.9617283950619,363.0833333333333) translate(0 14.222222222222223)"/><path d="M240-34a6 6 0 0 1 6-6h568a6 6 0 0 1 6 6v28a6 6 0 0 1-6 6H246a6 6 0 0 1-6-6z" fill="none"/><use xlink:href="#v" transform="matrix(1,0,0,1,240,-40) translate(74.96296296296293 25.333333333333336)"/><use xlink:href="#w" transform="matrix(1,0,0,1,240,-40) translate(172.59259259259255 25.333333333333336)"/><use xlink:href="#x" transform="matrix(1,0,0,1,240,-40) translate(395.4814814814815 25.333333333333336)"/><path d="M142.5 225h45.88" stroke="#3a414a" stroke-width="3" fill="none"/><path d="M142.54 226.47h-1.63l.1-1.46-.05-1.47h1.6z" stroke="#3a414a" stroke-width=".05" fill="#3a414a"/><path d="M204.15 225l-14.27 4.63v-9.26z" stroke="#3a414a" stroke-width="3" fill="#3a414a"/><path d="M741.06 176.44l.44 1.06-.44 1.06-1.06.44-1.06-.44-.44-1.06.44-1.06L740 176zm0-5.44l.44 1.06-.44 1.06-1.06.44-1.06-.44-.44-1.06.44-1.06 1.06-.44zm0-5.44l.44 1.06-.44 1.07-1.06.43-1.06-.44-.44-1.07.44-1.07 1.06-.44zm-1.76-4.24l.44 1.06-.44 1.06-1.06.44-1.06-.44-.44-1.06.44-1.06 1.06-.44zm-136.62-1.76l.44 1.06-.44 1.07-1.06.43-1.06-.44-.44-1.07.44-1.07 1.06-.44zm6.02 0l.44 1.06-.44 1.07-1.06.43-1.06-.44-.44-1.07.44-1.07 1.06-.44zm5.5-.2v2.54l-.55.22-1.06-.43-.45-1.07.44-1.07 1.05-.44zm12.55.2l.44 1.06-.45 1.07-1.06.43-1.07-.44-.44-1.07.43-1.07 1.06-.44zm6.02 0l.44 1.06-.43 1.07-1.06.43-1.05-.44-.44-1.07.45-1.07 1.06-.44zm6 0l.45 1.06-.44 1.07-1.06.43-1.06-.44-.44-1.07.44-1.07 1.06-.44zm6.03 0l.44 1.06-.44 1.07-1.06.43-1.06-.44-.44-1.07.44-1.07 1.06-.44zm6.02 0l.44 1.06-.44 1.07-1.06.43-1.06-.44-.44-1.07.44-1.07 1.06-.44zm6.02 0l.44 1.06-.44 1.07-1.06.43-1.06-.44-.44-1.07.44-1.07 1.06-.44zm6 0l.45 1.06-.45 1.07-1.06.43-1.07-.44-.44-1.07.43-1.07 1.06-.44zm6.03 0l.44 1.06-.43 1.07-1.06.43-1.05-.44-.44-1.07.45-1.07 1.06-.44zm6.02 0l.43 1.06-.44 1.07-1.07.43-1.06-.44-.44-1.07.44-1.07 1.06-.44zm6 0l.45 1.06-.45 1.07-1.05.43-1.07-.44-.43-1.07.43-1.07 1.07-.44zm6.02 0l.44 1.06-.44 1.07-1.06.43-1.06-.44-.44-1.07.44-1.07 1.06-.44zm6.02 0l.44 1.06-.44 1.07-1.06.43-1.06-.44-.44-1.07.44-1.07 1.06-.44zm6.02 0l.44 1.06-.44 1.07-1.06.43-1.06-.44-.44-1.07.44-1.07 1.06-.44zm6 0l.45 1.06-.43 1.07-1.06.43-1.05-.44-.44-1.07.45-1.07 1.06-.44zm6.03 0l.43 1.06-.44 1.07-1.07.43-1.06-.44-.44-1.07.44-1.07 1.06-.44zm6 0l.45 1.06-.44 1.07-1.05.43-1.06-.44-.45-1.07.44-1.07 1.05-.44zm6.03 0l.44 1.06-.44 1.07-1.06.43-1.07-.44-.43-1.07.43-1.07 1.07-.44zm6 0l.45 1.06-.44 1.07-1.06.43-1.06-.44-.44-1.07.44-1.07 1.06-.44zm6.03 0l.44 1.06-.44 1.07-1.06.43-1.06-.44-.44-1.07.44-1.07 1.06-.44z" fill="#3a414a"/><path d="M741.48 179h-2.96v-1.54h2.96z" fill="#3a414a"/><path stroke="#3a414a" stroke-width=".05" fill="#3a414a"/><path d="M600.12 165.26l-14.26-4.63L600.1 156z" fill="#3a414a"/><path d="M601.6 167.3l-20.52-6.68 20.52-6.66zm-10.97-6.68l8.02 2.6v-5.2z" stroke="#3a414a" stroke-width=".05" fill="#3a414a"/><use xlink:href="#y" transform="matrix(1,0,0,1,614.2024671728307,149.95833333333334) translate(0 14.222222222222223)"/><path d="M61.48 713.94l.05.77.17.7.27.65.37.6.46.55.54.46.6.37.66.27.7.17.76.05h5.98v2.96h-6.1l-1.1-.1-1.15-.27-1.1-.44-1-.6-.9-.77-.75-.9-.6-1-.46-1.1-.3-1.13-.08-1.1v-5.95h2.95zm34.73 7.53H84.13v-2.95h12.1zm24.17 0H108.3v-2.95h12.08zm24.17 0h-12.08v-2.95h12.08zm24.17 0h-12.07v-2.95h12.08zm24.18 0h-12.1v-2.95h12.1zm24.16 0h-12.08v-2.95h12.08zm24.17 0h-12.07v-2.95h12.08zm24.18 0h-12.1v-2.95h12.1zm24.16 0h-12.08v-2.95h12.08zm24.17 0h-12.07v-2.95h12.08zm24.18 0h-12.1v-2.95h12.1zm24.16 0h-12.08v-2.95h12.08zm24.17 0h-12.07v-2.95h12.08zm24.18 0h-12.1v-2.95h12.1zm24.16 0h-12.08v-2.95h12.08zm24.17 0h-12.07v-2.95h12.08zm24.18 0h-12.1v-2.95h12.1zm24.16 0h-12.08v-2.95h12.08zm24.17 0h-12.07v-2.95h12.08zm24.18 0h-12.1v-2.95h12.1zm24.16 0h-12.08v-2.95h12.08zm24.17 0h-12.07v-2.95h12.08zm24.18 0h-12.1v-2.95h12.1zm24.16 0h-12.08v-2.95h12.08zm24.17 0h-12.07v-2.95h12.08zm24.18 0h-12.1v-2.95h12.1zm24.16 0h-12.08v-2.95h12.08zm24.17 0h-12.07v-2.95h12.08zm24.18 0h-12.1v-2.95h12.1zm24.16 0h-12.08v-2.95h12.08zm24.17 0h-12.07v-2.95h12.08zm24.18 0H833.3v-2.95h12.08zm24.17 0h-12.1v-2.95h12.1zm24.16 0h-12.07v-2.95h12.08zm24.18 0H905.8v-2.95h12.08zm24.17 0h-12.1v-2.95h12.1zm24.16 0h-12.07v-2.95h12.08zm24.18 0H978.3v-2.95h12.08zm24.17 0h-12.1v-2.95h12.1zm24.16 0h-12.07v-2.95h12.08zm24.18 0h-12.08v-2.95h12.08zm24.17 0h-12.1v-2.95h12.1zm24.16 0h-12.07v-2.95h12.08zm24.18 0h-12.08v-2.95h12.08zm24.17 0h-12.1v-2.95h12.1zm24.16 0h-12.07v-2.95h12.08zm24.18 0h-12.08v-2.95h12.08zm24.17 0h-12.1v-2.95h12.1zm25.6-7.4l-.1 1.1-.26 1.14-.46 1.1-.62 1-.76.9-.9.75-1 .6-1.08.46-1.14.3-1.1.08h-6.1v-2.96h5.97l.78-.05.7-.17.64-.27.6-.37.55-.46.46-.54.37-.6.27-.66.17-.7.06-.76v-7.55h2.95zM61.47 696.36h-2.95v-11.75h2.95zm0-23.5h-2.95v-11.75h2.95zm0-23.5h-2.95v-11.75h2.95zm0-23.5h-2.95v-11.75h2.95zm0-23.5h-2.95v-11.75h2.95zm0-23.5h-2.95v-11.75h2.95zm0-23.5h-2.95v-11.75h2.95zm0-23.5h-2.95v-11.75h2.95zm0-23.5h-2.95v-11.75h2.95zm0-23.5h-2.95v-11.75h2.95zm0-23.5h-2.95v-11.75h2.95zm0-23.5h-2.95v-11.75h2.95zm0-23.5h-2.95v-11.75h2.95zm0-23.5h-2.95v-11.75h2.95zm0-23.5h-2.95v-11.75h2.95zm0-23.5h-2.95v-11.75h2.95zm0-23.5h-2.95v-11.75h2.95zm0-23.5h-2.95v-11.75h2.95zm0-23.5h-2.95v-5.87h2.95z" stroke="#6f7681" stroke-width=".05" fill="#6f7681"/><path d="M61.48 267.54h-2.95V266h2.95z" fill="#6f7681"/><path stroke="#6f7681" stroke-width=".05" fill="#6f7681"/><path d="M1260.8 704.9h-9.26l4.63-14.27z" fill="#6f7681"/><path d="M1262.84 706.37h-13.33l6.67-20.52zm-9.27-2.95h5.2l-2.6-8.02z" stroke="#6f7681" stroke-width=".05" fill="#6f7681"/><path d="M210 334.75a6 6 0 0 1 6-6h168a6 6 0 0 1 6 6v78a6 6 0 0 1-6 6H216a6 6 0 0 1-6-6z" stroke="#3a414a" stroke-width="2" fill="#ffdda6"/><use xlink:href="#z" transform="matrix(1,0,0,1,222,340.75) translate(41.73456790123457 23.96527777777778)"/><use xlink:href="#A" transform="matrix(1,0,0,1,222,340.75) translate(15.469135802469133 50.63194444444445)"/><use xlink:href="#B" transform="matrix(1,0,0,1,222,340.75) translate(66.02469135802468 50.63194444444445)"/><path d="M991.06 151.08l.44 1.06-.44 1.06-1.06.44-1.06-.44-.44-1.06.44-1.06 1.06-.44zm0-6.24l.44 1.06-.44 1.06-1.06.44-1.06-.44-.44-1.06.44-1.06 1.06-.44zm0-6.24l.44 1.07-.44 1.06-1.06.44-1.06-.44-.44-1.06.44-1.06 1.06-.43zm0-6.23l.44 1.06-.44 1.06-1.06.43-1.06-.44-.44-1.07.44-1.06 1.06-.44zm0-6.24l.44 1.06-.44 1.05-1.06.44-1.06-.45-.44-1.06.44-1.07 1.06-.44zm0-6.24l.44 1.05-.44 1.06-1.06.45-1.06-.44-.44-1.05.44-1.06 1.06-.45zm0-6.25l.44 1.06-.44 1.08-1.06.43-1.06-.42-.44-1.07.44-1.05 1.06-.44zm0-6.23l.44 1.06-.44 1.06-1.06.44-1.06-.44-.44-1.06.44-1.06 1.06-.44zm-469.56-1.8l-.44 1.06-1.06.44-1.06-.44-.44-1.06.43-1.03h2.14zm469.56-4.44l.44 1.06-.44 1.06-1.06.44-1.06-.44-.44-1.06.44-1.06 1.06-.44zm0-6.24l.44 1.06-.44 1.06-1.06.44-1.06-.44-.44-1.06.44-1.06 1.06-.44zm-1.76-4.24l.44 1.06-.44 1.06-1.06.44-1.06-.44-.44-1.06.44-1.06 1.06-.44zm-4.24-1.76l.44 1.06-.44 1.06-1.06.44-1.06-.44-.44-1.06.44-1.06 1.06-.44zm-6.03 0l.44 1.06-.44 1.06-1.06.44-1.06-.44-.43-1.06.44-1.06 1.07-.44zm-6.02 0l.45 1.06-.44 1.06-1.05.44-1.06-.44-.45-1.06.44-1.06 1.05-.44zm-6.02 0l.44 1.06-.44 1.06-1.06.44-1.06-.44-.44-1.06.44-1.06 1.06-.44zm-6.02 0l.43 1.06-.44 1.06-1.07.44-1.07-.44-.44-1.06.43-1.06 1.06-.44zm-6.03 0l.44 1.06-.44 1.06-1.06.44-1.06-.44-.43-1.06.44-1.06 1.07-.44zm-6.03 0l.44 1.06-.44 1.06-1.06.44-1.06-.44-.44-1.06.44-1.06 1.06-.44zm-6.02 0l.44 1.06-.44 1.06-1.06.44-1.07-.44-.43-1.06.43-1.06 1.07-.44zm-6.03 0l.44 1.06-.45 1.06-1.06.44-1.07-.44-.44-1.06.43-1.06 1.06-.44zm-6.03 0l.44 1.06-.44 1.06-1.06.44-1.06-.44-.44-1.06.44-1.06 1.06-.44zm-6.02 0l.44 1.06-.44 1.06-1.06.44-1.06-.44-.44-1.06.44-1.06 1.06-.44zm-6.03 0l.44 1.06-.43 1.06-1.06.44-1.05-.44-.44-1.06.45-1.06 1.06-.44zm-6.02 0l.43 1.06-.43 1.06-1.07.44-1.06-.44-.44-1.06.44-1.06 1.06-.44zm-6.03 0l.44 1.06-.44 1.06-1.06.44-1.06-.44-.44-1.06.44-1.06 1.06-.44zm-6.03 0l.43 1.06-.44 1.06-1.07.44-1.06-.44-.44-1.06.44-1.06 1.06-.44zm-6.03 0l.44 1.06-.43 1.06-1.06.44-1.06-.44-.43-1.06.44-1.06 1.07-.44zm-6.03 0l.44 1.06-.44 1.06-1.06.44-1.06-.44-.44-1.06.44-1.06 1.06-.44zm-6.03 0l.45 1.06-.44 1.06-1.05.44-1.06-.44-.45-1.06.44-1.06 1.05-.44zm-6 0l.43 1.06-.44 1.06-1.07.44-1.06-.44-.44-1.06.44-1.06 1.06-.44zm-6.04 0L871 90l-.44 1.06-1.06.44-1.06-.44L868 90l.44-1.06 1.06-.44zm-6.03 0l.44 1.06-.44 1.06-1.06.44-1.06-.44-.43-1.06.44-1.06 1.07-.44zm-6.02 0l.45 1.06-.44 1.06-1.05.44-1.06-.44-.45-1.06.44-1.06 1.05-.44zm-6.02 0l.44 1.06-.44 1.06-1.06.44-1.06-.44-.44-1.06.44-1.06 1.06-.44zm-6.02 0l.43 1.06-.44 1.06-1.07.44-1.07-.44-.44-1.06.43-1.06 1.06-.44zm-6.03 0l.44 1.06-.44 1.06-1.06.44-1.06-.44-.43-1.06.44-1.06 1.07-.44zm-6.03 0l.44 1.06-.44 1.06-1.06.44-1.06-.44-.44-1.06.44-1.06 1.06-.44zm-6.02 0l.44 1.06-.44 1.06-1.06.44-1.07-.44-.43-1.06.43-1.06 1.07-.44zm-6.03 0l.44 1.06-.45 1.06-1.06.44-1.07-.44-.44-1.06.43-1.06 1.06-.44zm-6.03 0l.44 1.06-.44 1.06-1.06.44-1.06-.44-.44-1.06.44-1.06 1.06-.44zm-6.02 0l.44 1.06-.44 1.06-1.06.44-1.06-.44-.44-1.06.44-1.06 1.06-.44zm-6.03 0l.44 1.06-.43 1.06-1.06.44-1.05-.44-.44-1.06.45-1.06 1.06-.44zm-6.02 0l.43 1.06-.43 1.06-1.07.44-1.06-.44-.44-1.06.44-1.06 1.06-.44zm-6.03 0l.44 1.06-.44 1.06-1.06.44-1.06-.44-.44-1.06.44-1.06 1.06-.44zm-6.03 0l.43 1.06-.44 1.06-1.07.44-1.06-.44-.44-1.06.44-1.06 1.06-.44zm-6.03 0l.44 1.06-.43 1.06-1.06.44-1.06-.44-.43-1.06.44-1.06 1.07-.44zm-6.03 0l.44 1.06-.44 1.06-1.06.44-1.06-.44-.44-1.06.44-1.06 1.06-.44zm-6.03 0l.45 1.06-.44 1.06-1.05.44-1.06-.44-.45-1.06.44-1.06 1.05-.44zm-6 0l.43 1.06-.44 1.06-1.07.44-1.06-.44-.44-1.06.44-1.06 1.06-.44zm-6.04 0l.44 1.06-.44 1.06-1.06.44-1.06-.44-.44-1.06.44-1.06 1.06-.44zm-6.03 0l.44 1.06-.44 1.06-1.06.44-1.06-.44-.43-1.06.44-1.06 1.07-.44zm-6.02 0l.45 1.06-.44 1.06-1.05.44-1.06-.44-.45-1.06.44-1.06 1.05-.44zm-6.02 0l.44 1.06-.44 1.06-1.06.44-1.06-.44-.44-1.06.44-1.06 1.06-.44zm-6.02 0l.43 1.06-.44 1.06-1.07.44-1.07-.44-.44-1.06.43-1.06 1.06-.44zm-6.03 0l.44 1.06-.44 1.06-1.06.44-1.06-.44-.43-1.06.44-1.06 1.07-.44zm-6.03 0l.44 1.06-.44 1.06-1.06.44-1.06-.44-.44-1.06.44-1.06 1.06-.44zm-6.02 0l.44 1.06-.44 1.06-1.06.44-1.07-.44-.43-1.06.43-1.06 1.07-.44zm-6.03 0l.44 1.06-.45 1.06-1.06.44-1.07-.44-.44-1.06.43-1.06 1.06-.44zm-6.03 0l.44 1.06-.44 1.06-1.06.44-1.06-.44-.44-1.06.44-1.06 1.06-.44zm-6.02 0l.44 1.06-.44 1.06-1.06.44-1.06-.44-.44-1.06.44-1.06 1.06-.44zm-6.03 0l.44 1.06-.43 1.06-1.06.44-1.05-.44-.44-1.06.45-1.06 1.06-.44zm-6.02 0l.43 1.06-.43 1.06-1.07.44-1.06-.44-.44-1.06.44-1.06 1.06-.44zm-6.03 0l.44 1.06-.44 1.06-1.06.44-1.06-.44-.44-1.06.44-1.06 1.06-.44zm-6.03 0l.43 1.06-.44 1.06-1.07.44-1.06-.44-.44-1.06.44-1.06 1.06-.44zm-6.03 0l.44 1.06-.43 1.06-1.06.44-1.06-.44-.43-1.06.44-1.06 1.07-.44zm-6.03 0l.44 1.06-.44 1.06-1.06.44-1.06-.44-.44-1.06.44-1.06 1.06-.44zm-6.03 0l.45 1.06-.44 1.06-1.05.44-1.06-.44-.45-1.06.44-1.06 1.05-.44zm-6 0l.43 1.06-.44 1.06-1.07.44-1.06-.44-.44-1.06.44-1.06 1.06-.44zm-6.04 0L642 90l-.44 1.06-1.06.44-1.06-.44L639 90l.44-1.06 1.06-.44zm-6.03 0l.44 1.06-.44 1.06-1.06.44-1.06-.44-.43-1.06.44-1.06 1.07-.44zm-6.02 0l.45 1.06-.44 1.06-1.05.44-1.06-.44-.45-1.06.44-1.06 1.05-.44zm-6.02 0l.44 1.06-.44 1.06-1.06.44-1.06-.44-.44-1.06.44-1.06 1.06-.44zm-6.02 0l.43 1.06-.44 1.06-1.07.44-1.07-.44-.44-1.06.43-1.06 1.06-.44zm-6.03 0l.44 1.06-.44 1.06-1.06.44-1.06-.44-.43-1.06.44-1.06 1.07-.44zm-6.03 0l.44 1.06-.44 1.06-1.06.44-1.06-.44-.44-1.06.44-1.06 1.06-.44zm-6.02 0l.44 1.06-.44 1.06-1.06.44-1.07-.44-.43-1.06.43-1.06 1.07-.44zm-6.03 0l.44 1.06-.45 1.06-1.06.44-1.07-.44-.44-1.06.43-1.06 1.06-.44zm-6.03 0l.44 1.06-.44 1.06-1.06.44-1.06-.44-.44-1.06.44-1.06 1.06-.44zm-6.02 0l.44 1.06-.44 1.06-1.06.44-1.06-.44-.44-1.06.44-1.06 1.06-.44zm-6.03 0l.44 1.06-.43 1.06-1.06.44-1.05-.44-.44-1.06.45-1.06 1.06-.44zm-6.02 0l.43 1.06-.43 1.06-1.07.44-1.06-.44-.44-1.06.44-1.06 1.06-.44zm-6.03 0l.44 1.06-.44 1.06-1.06.44-1.06-.44-.44-1.06.44-1.06 1.06-.44zm-6.03 0l.43 1.06-.44 1.06-1.07.44-1.06-.44-.44-1.06.44-1.06 1.06-.44zm-6.03 0l.44 1.06-.43 1.06-1.06.44-1.06-.44-.43-1.06.44-1.06 1.07-.44zm-6.03 0l.44 1.06-.44 1.06-1.06.44-1.06-.44-.44-1.06.44-1.06 1.06-.44zm-6.03 0l.45 1.06-.44 1.06-1.05.44-1.06-.44-.45-1.06.44-1.06 1.05-.44zm-6 0l.43 1.06-.44 1.06-1.07.44-1.06-.44-.44-1.06.44-1.06 1.06-.44zm-6.04 0l.44 1.06-.44 1.06-1.06.44-1.06-.44v-2.12l1.06-.44z" fill="#3a414a"/><path d="M521.48 107.19l-1.48-.08-1.48.06v-1.6h2.96z" fill="#3a414a"/><path stroke="#3a414a" stroke-width=".05" fill="#3a414a"/><path d="M990 174.15l-4.63-14.27h9.26z" fill="#3a414a"/><path d="M990 178.92l-6.66-20.5h13.32zm-2.6-17.56l2.6 8 2.6-8z" stroke="#3a414a" stroke-width=".05" fill="#3a414a"/><use xlink:href="#C" transform="matrix(1,0,0,1,515.0617283950618,83.25856560262443) translate(0 14.222222222222223)"/><path d="M660 640c11.05 0 20 8.95 20 20s-8.95 20-20 20H380c-11.05 0-20-8.95-20-20s8.95-20 20-20z" stroke="#fff" stroke-width="2" fill="#4c535d"/><use xlink:href="#D" transform="matrix(1,0,0,1,365,645) translate(10.961790123456788 19.65277777777778)"/><use xlink:href="#E" transform="matrix(1,0,0,1,365,645) translate(129.0482098765432 19.65277777777778)"/><path d="M650 328.25a6 6 0 0 1 6-6h168a6 6 0 0 1 6 6v92a6 6 0 0 1-6 6H656a6 6 0 0 1-6-6z" stroke="#3a414a" stroke-width="2" fill="#ffdda6"/><use xlink:href="#F" transform="matrix(1,0,0,1,662,334.25) translate(14.635802469135804 20.27777777777778)"/><use xlink:href="#G" transform="matrix(1,0,0,1,662,334.25) translate(6.549382716049379 46.94444444444444)"/><use xlink:href="#H" transform="matrix(1,0,0,1,662,334.25) translate(57.10493827160494 46.94444444444444)"/><use xlink:href="#I" transform="matrix(1,0,0,1,662,334.25) translate(30.592592592592595 73.61111111111111)"/><use xlink:href="#J" transform="matrix(1,0,0,1,662,334.25) translate(68.80246913580248 73.61111111111111)"/><path d="M210 179a6 6 0 0 1 6-6h168a6 6 0 0 1 6 6v92a6 6 0 0 1-6 6H216a6 6 0 0 1-6-6z" stroke="#3a414a" stroke-width="2" fill="#ffdda6"/><use xlink:href="#z" transform="matrix(1,0,0,1,222,185) translate(41.73456790123457 20.27777777777778)"/><use xlink:href="#G" transform="matrix(1,0,0,1,222,185) translate(6.549382716049379 46.94444444444444)"/><use xlink:href="#H" transform="matrix(1,0,0,1,222,185) translate(57.10493827160494 46.94444444444444)"/><use xlink:href="#K" transform="matrix(1,0,0,1,222,185) translate(24.41975308641976 73.61111111111111)"/><use xlink:href="#J" transform="matrix(1,0,0,1,222,185) translate(74.97530864197532 73.61111111111111)"/><path d="M430 486a6 6 0 0 1 6-6h168a6 6 0 0 1 6 6v92a6 6 0 0 1-6 6H436a6 6 0 0 1-6-6z" stroke="#3a414a" stroke-width="2" fill="#b8f5ed"/><g><use xlink:href="#z" transform="matrix(1,0,0,1,442,492) translate(41.73456790123457 30.27777777777778)"/><use xlink:href="#L" transform="matrix(1,0,0,1,442,492) translate(50.90123456790124 56.94444444444445)"/></g><path d="M301.5 279.5c0 .83-.67 1.5-1.5 1.5s-1.5-.67-1.5-1.5.67-1.5 1.5-1.5 1.5.67 1.5 1.5zm0 5.53c0 .82-.67 1.5-1.5 1.5s-1.5-.68-1.5-1.5c0-.83.67-1.5 1.5-1.5s1.5.67 1.5 1.5zm0 5.52c0 .83-.67 1.5-1.5 1.5s-1.5-.67-1.5-1.5.67-1.5 1.5-1.5 1.5.67 1.5 1.5zm0 5.53c0 .83-.67 1.5-1.5 1.5s-1.5-.67-1.5-1.5.67-1.5 1.5-1.5 1.5.67 1.5 1.5zm0 5.52c0 .83-.67 1.5-1.5 1.5s-1.5-.67-1.5-1.5c0-.82.67-1.5 1.5-1.5s1.5.68 1.5 1.5z" fill="#3a414a"/><path d="M301.48 279.54h-2.96V278h2.96z" stroke="#3a414a" stroke-width=".05" fill="#3a414a"/><path d="M300 322.9l-4.63-14.27h9.26z" stroke="#3a414a" stroke-width="3" fill="#3a414a"/><path d="M409.44 530.94l.44 1.06-.44 1.06-1.06.44-1.06-.44-.44-1.06.44-1.06 1.06-.44zm-6.02 0l.44 1.06-.44 1.06-1.06.44-1.06-.44-.44-1.06.44-1.06 1.06-.44zm-6.02 0l.44 1.06-.44 1.06-1.06.44-1.06-.44-.44-1.06.44-1.06 1.06-.44zm-6.03 0l.44 1.06-.43 1.06-1.06.44-1.05-.44-.44-1.06.45-1.06 1.06-.44zm-6.02 0l.44 1.06-.45 1.06-1.06.44-1.07-.44-.44-1.06.43-1.06 1.06-.44zm-6.02 0l.44 1.06-.44 1.06-1.06.44-1.06-.44-.43-1.06.44-1.06 1.07-.44zm-6.02 0l.45 1.06-.44 1.06-1.05.44-1.06-.44-.45-1.06.44-1.06 1.05-.44zm-6.02 0l.44 1.06-.44 1.06-1.06.44-1.06-.44-.44-1.06.44-1.06 1.06-.44zm-6.02 0l.44 1.06-.44 1.06-1.06.44-1.06-.44-.44-1.06.44-1.06 1.06-.44zm-6.02 0l.44 1.06-.44 1.06-1.06.44-1.06-.44-.44-1.06.44-1.06 1.06-.44zm-6.02 0l.44 1.06-.44 1.06-1.06.44-1.06-.44-.44-1.06.44-1.06 1.06-.44zm-6.03 0l.43 1.06-.44 1.06-1.07.44-1.06-.44-.44-1.06.44-1.06 1.06-.44zm-6.03 0l.44 1.06-.43 1.06-1.06.44-1.05-.44-.44-1.06.45-1.06 1.06-.44zm-6.02 0l.44 1.06-.45 1.06-1.06.44-1.07-.44-.44-1.06.43-1.06 1.06-.44zm-6.02 0l.44 1.06-.44 1.06-1.06.44-1.06-.44-.43-1.06.44-1.06 1.07-.44zm-6.02 0l.44 1.06-.44 1.06-1.06.44-1.06-.44-.44-1.06.44-1.06 1.06-.44zm-6.02 0l.44 1.06-.44 1.06-1.06.44-1.06-.44-.44-1.06.44-1.06 1.06-.44zm-6.02 0l.44 1.06-.44 1.06-1.06.44-1.06-.44-.44-1.06.44-1.06 1.06-.44zm-4.24-1.76l.44 1.06-.44 1.06-1.06.44-1.06-.44-.44-1.06.44-1.06 1.06-.44zm-1.76-4.24l.44 1.06-.44 1.06-1.06.44-1.06-.44-.44-1.06.44-1.06 1.06-.44zm0-6.16l.44 1.06-.44 1.06-1.06.44-1.06-.44-.44-1.06.44-1.06 1.06-.44zm0-6.16l.44 1.06-.44 1.06-1.06.44-1.06-.44-.44-1.06.44-1.06 1.06-.44zm0-6.17l.44 1.06-.44 1.07-1.06.44-1.06-.43-.44-1.06.44-1.05L300 506zm0-6.16l.44 1.05-.44 1.06-1.06.45-1.06-.44-.44-1.05.44-1.06 1.06-.45zm0-6.17l.44 1.06-.44 1.05-1.06.44-1.06-.45-.44-1.06.44-1.07 1.06-.44zm0-6.16l.44 1.06-.44 1.06-1.06.43-1.06-.44-.44-1.07.44-1.06 1.06-.44zm0-6.16l.44 1.07-.44 1.06-1.06.44-1.06-.44-.44-1.06.44-1.06 1.06-.43zm0-6.16l.44 1.07-.44 1.07-1.06.44-1.06-.43-.44-1.06.44-1.06 1.06-.43zm0-6.16l.44 1.06-.44 1.06-1.06.44-1.06-.44-.44-1.06.44-1.06 1.06-.44zm0-6.16l.44 1.06-.44 1.06-1.06.44-1.06-.44-.44-1.06.44-1.06 1.06-.44zm0-6.16l.44 1.06-.44 1.06-1.06.44-1.06-.44-.44-1.06.44-1.06 1.06-.44zm0-6.16l.44 1.06-.44 1.06-1.06.44-1.06-.44-.44-1.06.44-1.06 1.06-.44zm0-6.16l.44 1.06-.44 1.06-1.06.44-1.06-.44-.44-1.06.44-1.06 1.06-.44zm0-6.16l.44 1.06-.44 1.06-1.06.44-1.06-.44-.44-1.06.44-1.06 1.06-.44zm0-6.17l.44 1.07-.44 1.06-1.06.44-1.06-.44-.44-1.06.44-1.06 1.06-.43zm0-6.15l.44 1.06-.44 1.07-1.06.44-1.06-.43-.44-1.06.44-1.05 1.06-.44zm0-6.16l.44 1.05-.44 1.06-1.06.45-1.06-.44-.44-1.05.44-1.06 1.06-.45z" fill="#3a414a"/><path d="M301.48 421.3h-2.96v-1.55h2.96z" fill="#3a414a"/><path stroke="#3a414a" stroke-width=".05" fill="#3a414a"/><path d="M424.15 532l-14.27 4.63v-9.26z" fill="#3a414a"/><path d="M428.92 532l-20.52 6.66v-13.32zm-17.56 2.6l8-2.6-8-2.6z" stroke="#3a414a" stroke-width=".05" fill="#3a414a"/><path d="M417.06 504.74l.44 1.06-.44 1.06-1.06.44-1.06-.44-.44-1.06.44-1.06 1.06-.44zm5.75 0l.45 1.06-.44 1.06-1.05.44-1.06-.44-.45-1.06.44-1.06 1.05-.44zm5.76 0l.44 1.06-.44 1.06-1.06.44-1.06-.44-.44-1.06.44-1.06 1.06-.44zm-15.74-1.76l.44 1.06-.44 1.06-1.06.44-1.06-.44-.44-1.06.44-1.06 1.06-.44zm-1.76-4.24l.44 1.06-.44 1.06-1.06.44-1.06-.44-.44-1.06.44-1.06 1.06-.44zm0-5.95l.44 1.05-.44 1.06-1.06.45-1.06-.44-.44-1.05.44-1.06 1.06-.45zm0-5.96l.44 1.06-.44 1.06-1.06.44-1.06-.44-.44-1.06.44-1.06 1.06-.44zm0-5.95l.44 1.05-.44 1.06-1.06.45-1.06-.44-.44-1.05.44-1.06 1.06-.45zm0-47.6l.44 1.06-.44 1.06-1.06.44-1.06-.44-.44-1.06.44-1.07 1.06-.44zm0-5.95l.44 1.05-.44 1.07-1.06.43-1.06-.43-.44-1.07.44-1.05 1.06-.45zm0-5.96l.44 1.06-.44 1.06-1.06.44-1.06-.44-.44-1.06.44-1.06 1.06-.44zm0-5.95l.44 1.06-.44 1.07-1.06.44-1.06-.43-.44-1.06.44-1.05L410 415zm0-5.95l.44 1.06-.44 1.06-1.06.44-1.06-.44-.44-1.06.44-1.06 1.06-.44zm0-5.95l.44 1.06-.44 1.07-1.06.44-1.06-.43-.44-1.06.44-1.05 1.06-.44zm0-5.95l.44 1.06-.44 1.06-1.06.44-1.06-.44-.44-1.06.44-1.06 1.06-.44zm0-5.95l.44 1.06-.44 1.07-1.06.44-1.06-.43-.44-1.06.44-1.05 1.06-.44zm0-5.95l.44 1.06-.44 1.06-1.06.44-1.06-.44-.44-1.06.44-1.06 1.06-.44zm0-5.95l.44 1.06-.44 1.07-1.06.44-1.06-.43-.44-1.06.44-1.05 1.06-.44zm0-5.95l.44 1.06-.44 1.06-1.06.44-1.06-.44-.44-1.06.44-1.06 1.06-.44zm0-5.95l.44 1.06-.44 1.07-1.06.44-1.06-.43-.44-1.06.44-1.05 1.06-.44zm0-5.95l.44 1.06-.44 1.06-1.06.44-1.06-.44-.44-1.06.44-1.06 1.06-.44zm0-5.95l.44 1.06-.44 1.07-1.06.44-1.06-.43-.44-1.06.44-1.05 1.06-.44zm0-5.95l.44 1.06-.44 1.06-1.06.44-1.06-.44-.44-1.06.44-1.06 1.06-.44zm0-5.95l.44 1.06-.44 1.07-1.06.44-1.06-.43-.44-1.06.44-1.05 1.06-.44zm0-5.95l.44 1.06-.44 1.06-1.06.44-1.06-.44-.44-1.06.44-1.06 1.06-.44zm0-5.95l.44 1.06-.44 1.07-1.06.44-1.06-.43-.44-1.06.44-1.05 1.06-.44zm0-5.95l.44 1.06-.44 1.06-1.06.44-1.06-.44-.44-1.06.44-1.06 1.06-.44zm0-5.95l.44 1.06-.44 1.07-1.06.44-1.06-.43-.44-1.06.44-1.05 1.06-.44zm0-5.95l.44 1.06-.44 1.06-1.06.44-1.06-.44-.44-1.06.44-1.06 1.06-.44zm0-5.95l.44 1.06-.44 1.08-1.06.43-1.06-.42-.44-1.07.44-1.05 1.06-.44zm0-5.95l.44 1.06-.44 1.06-1.06.44-1.06-.44-.44-1.06.44-1.06 1.06-.44zm0-5.94l.44 1.06-.44 1.06-1.06.44-1.06-.44-.44-1.06.44-1.06L410 296zm0-5.95l.44 1.07-.44 1.06-1.06.44-1.06-.44-.44-1.06.44-1.06 1.06-.43zm0-5.94l.44 1.06-.44 1.06-1.06.44-1.06-.44-.44-1.06.44-1.06 1.06-.44zm0-5.95l.44 1.07-.44 1.06-1.06.44-1.06-.44-.44-1.06.44-1.06 1.06-.43zm0-5.94l.44 1.06-.44 1.06-1.06.44-1.06-.44-.44-1.06.44-1.06 1.06-.44zm0-5.95l.44 1.07-.44 1.06-1.06.44-1.06-.44-.44-1.06.44-1.06 1.06-.43zm0-5.94l.44 1.06-.44 1.06-1.06.44-1.06-.44-.44-1.06.44-1.06 1.06-.44zm0-5.95l.44 1.07-.44 1.06-1.06.44-1.06-.44-.44-1.06.44-1.06 1.06-.43zm0-5.94l.44 1.06-.44 1.06-1.06.44-1.06-.44-.44-1.06.44-1.06 1.06-.44zm0-5.95l.44 1.07-.44 1.06-1.06.44-1.06-.44-.44-1.06.44-1.06 1.06-.43zm0-5.94l.44 1.06-.44 1.06-1.06.44-1.06-.44-.44-1.06.44-1.06 1.06-.44zm0-5.95l.44 1.07-.44 1.06-1.06.44-1.06-.44-.44-1.06.44-1.06 1.06-.43zm0-5.94l.44 1.06-.44 1.06-1.06.44-1.06-.44-.44-1.06.44-1.06 1.06-.44zm0-5.95l.44 1.07-.44 1.06-1.06.44-1.06-.44-.44-1.06.44-1.06 1.06-.43zm0-5.94l.44 1.06-.44 1.06-1.06.44-1.06-.44-.44-1.06.44-1.06 1.06-.44zm0-5.95l.44 1.07-.44 1.06-1.06.44-1.06-.44-.44-1.06.44-1.06 1.06-.43zm0-5.94l.44 1.06-.44 1.06-1.06.44-1.06-.44-.44-1.06.44-1.06 1.06-.44zm0-5.95l.44 1.07-.44 1.06-1.06.44-1.06-.44-.44-1.06.44-1.06 1.06-.43zm0-5.94l.44 1.06-.44 1.06-1.06.44-1.06-.44-.44-1.06.44-1.06 1.06-.44zm0-5.95l.44 1.07-.44 1.06-1.06.44-1.06-.44-.44-1.06.44-1.06 1.06-.43zm0-5.94l.44 1.06-.44 1.06-1.06.44-1.06-.44-.44-1.06.44-1.06 1.06-.44zm0-5.95l.44 1.07-.44 1.06-1.06.44-1.06-.44-.44-1.06.44-1.06 1.06-.43zm0-5.94l.44 1.06-.44 1.07-1.06.43-1.06-.44-.44-1.07.44-1.07 1.06-.44zm1.76-4.24l.44 1.06-.44 1.06-1.06.44-1.06-.44-.44-1.06.44-1.06 1.06-.44zm26.62-1.76l.44 1.06-.44 1.07-1.06.43-1.06-.44-.44-1.07.44-1.07 1.06-.44zm-5.6 0l.45 1.06-.45 1.07-1.06.43-1.08-.44-.44-1.07.44-1.07 1.06-.44zm-5.6 0l.45 1.06-.45 1.07-1.06.43-1.07-.44-.44-1.07.43-1.07 1.06-.44zm-12.78 2.34l-.52-.2-.44-1.07.44-1.07.52-.2z" fill="#3a414a"/><path d="M429 507.27h-1.54v-2.94H429z" fill="#3a414a"/><path stroke="#3a414a" stroke-width=".05" fill="#3a414a"/><path d="M454.14 160.63l-14.26 4.63V156z" fill="#3a414a"/><path d="M458.92 160.63l-20.52 6.66v-13.34zm-17.57 2.6l8.02-2.6-8.02-2.6z" stroke="#3a414a" stroke-width=".05" fill="#3a414a"/><g><use xlink:href="#k" transform="matrix(1,0,0,1,374.04938271604937,436.58254999748937) translate(0.005000000000002558 14.222222222222223)"/><use xlink:href="#M" transform="matrix(1,0,0,1,374.04938271604937,436.58254999748937) translate(44.40006172839507 14.222222222222223)"/><use xlink:href="#N" transform="matrix(1,0,0,1,374.04938271604937,436.58254999748937) translate(11.288950617283955 35.55555555555556)"/></g><g><use xlink:href="#O" transform="matrix(1,0,0,1,415.4617283950616,149.95833333333334) translate(0 14.222222222222223)"/></g><defs><path fill="#3a414a" d="M76-208v77h127v40H76V0H24v-248h183v40H76" id="P"/><path fill="#3a414a" d="M25-224v-37h50v37H25zM25 0v-190h50V0H25" id="Q"/><path fill="#3a414a" d="M135-150c-39-12-60 13-60 57V0H25l-1-190h47c2 13-1 29 3 40 6-28 27-53 61-41v41" id="R"/><path fill="#3a414a" d="M185-48c-13 30-37 53-82 52C43 2 14-33 14-96s30-98 90-98c62 0 83 45 84 108H66c0 31 8 55 39 56 18 0 30-7 34-22zm-45-69c5-46-57-63-70-21-2 6-4 13-4 21h74" id="S"/><path fill="#3a414a" d="M231 0h-52l-39-155L100 0H48L-1-190h46L77-45c9-52 24-97 36-145h53l37 145 32-145h46" id="T"/><path fill="#3a414a" d="M133-34C117-15 103 5 69 4 32 3 11-16 11-54c-1-60 55-63 116-61 1-26-3-47-28-47-18 1-26 9-28 27l-52-2c7-38 36-58 82-57s74 22 75 68l1 82c-1 14 12 18 25 15v27c-30 8-71 5-69-32zm-48 3c29 0 43-24 42-57-32 0-66-3-65 30 0 17 8 27 23 27" id="U"/><path fill="#3a414a" d="M25 0v-261h50V0H25" id="V"/><g id="a"><use transform="matrix(0.1111111111111111,0,0,0.1111111111111111,0,0)" xlink:href="#P"/><use transform="matrix(0.1111111111111111,0,0,0.1111111111111111,24.333333333333332,0)" xlink:href="#Q"/><use transform="matrix(0.1111111111111111,0,0,0.1111111111111111,35.44444444444444,0)" xlink:href="#R"/><use transform="matrix(0.1111111111111111,0,0,0.1111111111111111,51,0)" xlink:href="#S"/><use transform="matrix(0.1111111111111111,0,0,0.1111111111111111,73.22222222222223,0)" xlink:href="#T"/><use transform="matrix(0.1111111111111111,0,0,0.1111111111111111,104.33333333333334,0)" xlink:href="#U"/><use transform="matrix(0.1111111111111111,0,0,0.1111111111111111,126.55555555555557,0)" xlink:href="#V"/><use transform="matrix(0.1111111111111111,0,0,0.1111111111111111,137.66666666666669,0)" xlink:href="#V"/></g><path fill="#3a414a" d="M24-248c93 1 206-16 204 79-1 75-69 88-152 82V0H24v-248zm52 121c47 0 100 7 100-41 0-47-54-39-100-39v80" id="W"/><path fill="#3a414a" d="M14-72v-43h91v43H14" id="X"/><path fill="#3a414a" d="M240-174c0 40-23 61-54 70L253 0h-59l-57-94H76V0H24v-248c93 4 217-23 216 74zM76-134c48-2 112 12 112-38 0-48-66-32-112-35v73" id="Y"/><path fill="#3a414a" d="M110-194c64 0 96 36 96 99 0 64-35 99-97 99-61 0-95-36-95-99 0-62 34-99 96-99zm-1 164c35 0 45-28 45-65 0-40-10-65-43-65-34 0-45 26-45 65 0 36 10 65 43 65" id="Z"/><path fill="#3a414a" d="M85 4C-2 5 27-109 22-190h50c7 57-23 150 33 157 60-5 35-97 40-157h50l1 190h-47c-2-12 1-28-3-38-12 25-28 42-61 42" id="aa"/><path fill="#3a414a" d="M115-3C79 11 28 4 28-45v-112H4v-33h27l15-45h31v45h36v33H77v99c-1 23 16 31 38 25v30" id="ab"/><path fill="#3a414a" d="M135-194c87-1 58 113 63 194h-50c-7-57 23-157-34-157-59 0-34 97-39 157H25l-1-190h47c2 12-1 28 3 38 12-26 28-41 61-42" id="ac"/><path fill="#3a414a" d="M195-6C206 82 75 100 31 46c-4-6-6-13-8-21l49-6c3 16 16 24 34 25 40 0 42-37 40-79-11 22-30 35-61 35-53 0-70-43-70-97 0-56 18-96 73-97 30 0 46 14 59 34l2-30h47zm-90-29c32 0 41-27 41-63 0-35-9-62-40-62-32 0-39 29-40 63 0 36 9 62 39 62" id="ad"/><g id="b"><use transform="matrix(0.06172839506172839,0,0,0.06172839506172839,0,0)" xlink:href="#W"/><use transform="matrix(0.06172839506172839,0,0,0.06172839506172839,14.814814814814813,0)" xlink:href="#R"/><use transform="matrix(0.06172839506172839,0,0,0.06172839506172839,23.456790123456788,0)" xlink:href="#S"/><use transform="matrix(0.06172839506172839,0,0,0.06172839506172839,35.80246913580247,0)" xlink:href="#X"/><use transform="matrix(0.06172839506172839,0,0,0.06172839506172839,43.148148148148145,0)" xlink:href="#Y"/><use transform="matrix(0.06172839506172839,0,0,0.06172839506172839,59.1358024691358,0)" xlink:href="#Z"/><use transform="matrix(0.06172839506172839,0,0,0.06172839506172839,72.65432098765432,0)" xlink:href="#aa"/><use transform="matrix(0.06172839506172839,0,0,0.06172839506172839,86.17283950617283,0)" xlink:href="#ab"/><use transform="matrix(0.06172839506172839,0,0,0.06172839506172839,93.51851851851852,0)" xlink:href="#Q"/><use transform="matrix(0.06172839506172839,0,0,0.06172839506172839,99.69135802469135,0)" xlink:href="#ac"/><use transform="matrix(0.06172839506172839,0,0,0.06172839506172839,113.20987654320987,0)" xlink:href="#ad"/></g><path fill="#3a414a" d="M16-82v-28h88v28H16" id="ae"/><path fill="#3a414a" d="M27 0v-27h64v-190l-56 39v-29l58-41h29v221h61V0H27" id="af"/><path fill="#3a414a" d="M101-251c68 0 85 55 85 127S166 4 100 4C33 4 14-52 14-124c0-73 17-127 87-127zm-1 229c47 0 54-49 54-102s-4-102-53-102c-51 0-55 48-55 102 0 53 5 102 54 102" id="ag"/><g id="c"><use transform="matrix(0.06172839506172839,0,0,0.06172839506172839,0,0)" xlink:href="#ae"/><use transform="matrix(0.06172839506172839,0,0,0.06172839506172839,7.345679012345679,0)" xlink:href="#af"/><use transform="matrix(0.06172839506172839,0,0,0.06172839506172839,19.691358024691358,0)" xlink:href="#ag"/><use transform="matrix(0.06172839506172839,0,0,0.06172839506172839,32.03703703703704,0)" xlink:href="#ag"/></g><path fill="#3a414a" d="M87 75C49 33 22-17 22-94c0-76 28-126 65-167h31c-38 41-64 92-64 168S80 34 118 75H87" id="ah"/><path fill="#3a414a" d="M24-248c120-7 223 5 221 122C244-46 201 0 124 0H24v-248zM76-40c74 7 117-18 117-86 0-67-45-88-117-82v168" id="ai"/><path fill="#3a414a" d="M175 0L67-191c6 58 2 128 3 191H24v-248h59L193-55c-6-58-2-129-3-193h46V0h-61" id="aj"/><path fill="#3a414a" d="M199 0l-22-63H83L61 0H9l90-248h61L250 0h-51zm-33-102l-36-108c-10 38-24 72-36 108h72" id="ak"/><path fill="#3a414a" d="M136-208V0H84v-208H4v-40h212v40h-80" id="al"/><path fill="#3a414a" d="M33-261c38 41 65 92 65 168S71 34 33 75H2C39 34 66-17 66-93S39-220 2-261h31" id="am"/><g id="d"><use transform="matrix(0.06172839506172839,0,0,0.06172839506172839,0,0)" xlink:href="#ah"/><use transform="matrix(0.06172839506172839,0,0,0.06172839506172839,7.345679012345679,0)" xlink:href="#ai"/><use transform="matrix(0.06172839506172839,0,0,0.06172839506172839,23.333333333333332,0)" xlink:href="#aj"/><use transform="matrix(0.06172839506172839,0,0,0.06172839506172839,39.32098765432099,0)" xlink:href="#ak"/><use transform="matrix(0.06172839506172839,0,0,0.06172839506172839,53.641975308641975,0)" xlink:href="#al"/><use transform="matrix(0.06172839506172839,0,0,0.06172839506172839,67.1604938271605,0)" xlink:href="#am"/></g><g id="e"><use transform="matrix(0.06172839506172839,0,0,0.06172839506172839,0,0)" xlink:href="#Y"/><use transform="matrix(0.06172839506172839,0,0,0.06172839506172839,15.987654320987653,0)" xlink:href="#Z"/><use transform="matrix(0.06172839506172839,0,0,0.06172839506172839,29.50617283950617,0)" xlink:href="#aa"/><use transform="matrix(0.06172839506172839,0,0,0.06172839506172839,43.02469135802469,0)" xlink:href="#ab"/><use transform="matrix(0.06172839506172839,0,0,0.06172839506172839,50.37037037037037,0)" xlink:href="#Q"/><use transform="matrix(0.06172839506172839,0,0,0.06172839506172839,56.54320987654321,0)" xlink:href="#ac"/><use transform="matrix(0.06172839506172839,0,0,0.06172839506172839,70.06172839506172,0)" xlink:href="#ad"/></g><path fill="#fff" d="M136-208V0H84v-208H4v-40h212v40h-80" id="an"/><path fill="#fff" d="M133-34C117-15 103 5 69 4 32 3 11-16 11-54c-1-60 55-63 116-61 1-26-3-47-28-47-18 1-26 9-28 27l-52-2c7-38 36-58 82-57s74 22 75 68l1 82c-1 14 12 18 25 15v27c-30 8-71 5-69-32zm-48 3c29 0 43-24 42-57-32 0-66-3-65 30 0 17 8 27 23 27" id="ao"/><path fill="#fff" d="M135-150c-39-12-60 13-60 57V0H25l-1-190h47c2 13-1 29 3 40 6-28 27-53 61-41v41" id="ap"/><path fill="#fff" d="M195-6C206 82 75 100 31 46c-4-6-6-13-8-21l49-6c3 16 16 24 34 25 40 0 42-37 40-79-11 22-30 35-61 35-53 0-70-43-70-97 0-56 18-96 73-97 30 0 46 14 59 34l2-30h47zm-90-29c32 0 41-27 41-63 0-35-9-62-40-62-32 0-39 29-40 63 0 36 9 62 39 62" id="aq"/><path fill="#fff" d="M185-48c-13 30-37 53-82 52C43 2 14-33 14-96s30-98 90-98c62 0 83 45 84 108H66c0 31 8 55 39 56 18 0 30-7 34-22zm-45-69c5-46-57-63-70-21-2 6-4 13-4 21h74" id="ar"/><path fill="#fff" d="M115-3C79 11 28 4 28-45v-112H4v-33h27l15-45h31v45h36v33H77v99c-1 23 16 31 38 25v30" id="as"/><g id="f"><use transform="matrix(0.08641975308641976,0,0,0.08641975308641976,0,0)" xlink:href="#an"/><use transform="matrix(0.08641975308641976,0,0,0.08641975308641976,16.592592592592595,0)" xlink:href="#ao"/><use transform="matrix(0.08641975308641976,0,0,0.08641975308641976,33.876543209876544,0)" xlink:href="#ap"/><use transform="matrix(0.08641975308641976,0,0,0.08641975308641976,45.97530864197531,0)" xlink:href="#aq"/><use transform="matrix(0.08641975308641976,0,0,0.08641975308641976,64.90123456790124,0)" xlink:href="#ar"/><use transform="matrix(0.08641975308641976,0,0,0.08641975308641976,82.18518518518519,0)" xlink:href="#as"/></g><path fill="#fff" d="M169-182c-1-43-94-46-97-3 18 66 151 10 154 114 3 95-165 93-204 36-6-8-10-19-12-30l50-8c3 46 112 56 116 5-17-69-150-10-154-114-4-87 153-88 188-35 5 8 8 18 10 28" id="at"/><path fill="#fff" d="M128 0H69L1-190h53L99-40l48-150h52" id="au"/><path fill="#fff" d="M25-224v-37h50v37H25zM25 0v-190h50V0H25" id="av"/><path fill="#fff" d="M190-63c-7 42-38 67-86 67-59 0-84-38-90-98-12-110 154-137 174-36l-49 2c-2-19-15-32-35-32-30 0-35 28-38 64-6 74 65 87 74 30" id="aw"/><g id="g"><use transform="matrix(0.08641975308641976,0,0,0.08641975308641976,0,0)" xlink:href="#at"/><use transform="matrix(0.08641975308641976,0,0,0.08641975308641976,20.740740740740744,0)" xlink:href="#ar"/><use transform="matrix(0.08641975308641976,0,0,0.08641975308641976,38.0246913580247,0)" xlink:href="#ap"/><use transform="matrix(0.08641975308641976,0,0,0.08641975308641976,50.12345679012346,0)" xlink:href="#au"/><use transform="matrix(0.08641975308641976,0,0,0.08641975308641976,67.40740740740742,0)" xlink:href="#av"/><use transform="matrix(0.08641975308641976,0,0,0.08641975308641976,76.0493827160494,0)" xlink:href="#aw"/><use transform="matrix(0.08641975308641976,0,0,0.08641975308641976,93.33333333333334,0)" xlink:href="#ar"/></g><path fill="#3a414a" d="M24 0v-248h52v208h133V0H24" id="ax"/><path fill="#3a414a" d="M135-194c53 0 70 44 70 98 0 56-19 98-73 100-31 1-45-17-59-34 3 33 2 69 2 105H25l-1-265h48c2 10 0 23 3 31 11-24 29-35 60-35zM114-30c33 0 39-31 40-66 0-38-9-64-40-64-56 0-55 130 0 130" id="ay"/><path fill="#3a414a" d="M135-194c52 0 70 43 70 98 0 56-19 99-73 100-30 1-46-15-58-35L72 0H24l1-261h50v104c11-23 29-37 60-37zM114-30c31 0 40-27 40-66 0-37-7-63-39-63s-41 28-41 65c0 36 8 64 40 64" id="az"/><path fill="#3a414a" d="M190-63c-7 42-38 67-86 67-59 0-84-38-90-98-12-110 154-137 174-36l-49 2c-2-19-15-32-35-32-30 0-35 28-38 64-6 74 65 87 74 30" id="aA"/><path fill="#3a414a" d="M147 0L96-86 75-71V0H25v-261h50v150l67-79h53l-66 74L201 0h-54" id="aB"/><g id="h"><use transform="matrix(0.06172839506172839,0,0,0.06172839506172839,0,0)" xlink:href="#ax"/><use transform="matrix(0.06172839506172839,0,0,0.06172839506172839,13.518518518518517,0)" xlink:href="#Z"/><use transform="matrix(0.06172839506172839,0,0,0.06172839506172839,27.037037037037035,0)" xlink:href="#Z"/><use transform="matrix(0.06172839506172839,0,0,0.06172839506172839,40.55555555555555,0)" xlink:href="#ay"/><use transform="matrix(0.06172839506172839,0,0,0.06172839506172839,54.07407407407407,0)" xlink:href="#az"/><use transform="matrix(0.06172839506172839,0,0,0.06172839506172839,67.59259259259258,0)" xlink:href="#U"/><use transform="matrix(0.06172839506172839,0,0,0.06172839506172839,79.93827160493827,0)" xlink:href="#aA"/><use transform="matrix(0.06172839506172839,0,0,0.06172839506172839,92.28395061728395,0)" xlink:href="#aB"/></g><path fill="#333" d="M24 0v-248h52V0H24" id="aC"/><path fill="#333" d="M121-226c-27-7-43 5-38 36h38v33H83V0H34v-157H6v-33h28c-9-59 32-81 87-68v32" id="aD"/><g id="i"><use transform="matrix(0.04938271604938272,0,0,0.04938271604938272,0,0)" xlink:href="#aC"/><use transform="matrix(0.04938271604938272,0,0,0.04938271604938272,4.938271604938272,0)" xlink:href="#aD"/></g><path fill="#333" d="M230 0l2-204L168 0h-37L68-204 70 0H24v-248h70l56 185 57-185h69V0h-46" id="aE"/><path fill="#333" d="M133-34C117-15 103 5 69 4 32 3 11-16 11-54c-1-60 55-63 116-61 1-26-3-47-28-47-18 1-26 9-28 27l-52-2c7-38 36-58 82-57s74 22 75 68l1 82c-1 14 12 18 25 15v27c-30 8-71 5-69-32zm-48 3c29 0 43-24 42-57-32 0-66-3-65 30 0 17 8 27 23 27" id="aF"/><path fill="#333" d="M135-150c-39-12-60 13-60 57V0H25l-1-190h47c2 13-1 29 3 40 6-28 27-53 61-41v41" id="aG"/><path fill="#333" d="M147 0L96-86 75-71V0H25v-261h50v150l67-79h53l-66 74L201 0h-54" id="aH"/><path fill="#333" d="M185-48c-13 30-37 53-82 52C43 2 14-33 14-96s30-98 90-98c62 0 83 45 84 108H66c0 31 8 55 39 56 18 0 30-7 34-22zm-45-69c5-46-57-63-70-21-2 6-4 13-4 21h74" id="aI"/><path fill="#333" d="M88-194c31-1 46 15 58 34l-1-101h50l1 261h-48c-2-10 0-23-3-31C134-8 116 4 84 4 32 4 16-41 15-95c0-56 19-97 73-99zm17 164c33 0 40-30 41-66 1-37-9-64-41-64s-38 30-39 65c0 43 13 65 39 65" id="aJ"/><g id="j"><use transform="matrix(0.04938271604938272,0,0,0.04938271604938272,0,0)" xlink:href="#aE"/><use transform="matrix(0.04938271604938272,0,0,0.04938271604938272,14.765432098765434,0)" xlink:href="#aF"/><use transform="matrix(0.04938271604938272,0,0,0.04938271604938272,24.641975308641978,0)" xlink:href="#aG"/><use transform="matrix(0.04938271604938272,0,0,0.04938271604938272,31.555555555555557,0)" xlink:href="#aH"/><use transform="matrix(0.04938271604938272,0,0,0.04938271604938272,41.4320987654321,0)" xlink:href="#aI"/><use transform="matrix(0.04938271604938272,0,0,0.04938271604938272,51.308641975308646,0)" xlink:href="#aJ"/></g><path fill="#333" d="M238-95c0 69-44 99-111 99C63 4 22-25 22-93v-155h51v151c-1 38 19 59 55 60 90 1 49-130 58-211h52v153" id="aK"/><path fill="#333" d="M137-138c1-29-70-34-71-4 15 46 118 7 119 86 1 83-164 76-172 9l43-7c4 19 20 25 44 25 33 8 57-30 24-41C81-84 22-81 20-136c-2-80 154-74 161-7" id="aL"/><g id="k"><use transform="matrix(0.04938271604938272,0,0,0.04938271604938272,0,0)" xlink:href="#aK"/><use transform="matrix(0.04938271604938272,0,0,0.04938271604938272,12.790123456790125,0)" xlink:href="#aL"/><use transform="matrix(0.04938271604938272,0,0,0.04938271604938272,22.66666666666667,0)" xlink:href="#aI"/><use transform="matrix(0.04938271604938272,0,0,0.04938271604938272,32.543209876543216,0)" xlink:href="#aG"/></g><path fill="#333" d="M25-224v-37h50v37H25zM25 0v-190h50V0H25" id="aM"/><g id="l"><use transform="matrix(0.04938271604938272,0,0,0.04938271604938272,0,0)" xlink:href="#aM"/><use transform="matrix(0.04938271604938272,0,0,0.04938271604938272,4.938271604938272,0)" xlink:href="#aL"/></g><path fill="#333" d="M24-248c93 1 206-16 204 79-1 75-69 88-152 82V0H24v-248zm52 121c47 0 100 7 100-41 0-47-54-39-100-39v80" id="aN"/><path fill="#333" d="M110-194c64 0 96 36 96 99 0 64-35 99-97 99-61 0-95-36-95-99 0-62 34-99 96-99zm-1 164c35 0 45-28 45-65 0-40-10-65-43-65-34 0-45 26-45 65 0 36 10 65 43 65" id="aO"/><path fill="#333" d="M144 0l-44-69L55 0H2l70-98-66-92h53l41 62 40-62h54l-67 91 71 99h-54" id="aP"/><path fill="#333" d="M123 10C108 53 80 86 19 72V37c35 8 53-11 59-39L3-190h52l48 148c12-52 28-100 44-148h51" id="aQ"/><g id="m"><use transform="matrix(0.04938271604938272,0,0,0.04938271604938272,0,0)" xlink:href="#aN"/><use transform="matrix(0.04938271604938272,0,0,0.04938271604938272,11.851851851851853,0)" xlink:href="#aG"/><use transform="matrix(0.04938271604938272,0,0,0.04938271604938272,18.765432098765434,0)" xlink:href="#aO"/><use transform="matrix(0.04938271604938272,0,0,0.04938271604938272,29.58024691358025,0)" xlink:href="#aP"/><use transform="matrix(0.04938271604938272,0,0,0.04938271604938272,39.45679012345679,0)" xlink:href="#aQ"/></g><path fill="#3a414a" d="M114-157C55-157 80-60 75 0H25v-261h50l-1 109c12-26 28-41 61-42 86-1 58 113 63 194h-50c-7-57 23-157-34-157" id="aR"/><path fill="#3a414a" d="M137-138c1-29-70-34-71-4 15 46 118 7 119 86 1 83-164 76-172 9l43-7c4 19 20 25 44 25 33 8 57-30 24-41C81-84 22-81 20-136c-2-80 154-74 161-7" id="aS"/><g id="n"><use transform="matrix(0.06172839506172839,0,0,0.06172839506172839,0,0)" xlink:href="#al"/><use transform="matrix(0.06172839506172839,0,0,0.06172839506172839,13.518518518518517,0)" xlink:href="#aR"/><use transform="matrix(0.06172839506172839,0,0,0.06172839506172839,27.037037037037035,0)" xlink:href="#Q"/><use transform="matrix(0.06172839506172839,0,0,0.06172839506172839,33.20987654320987,0)" xlink:href="#aS"/></g><path fill="#3a414a" d="M169-182c-1-43-94-46-97-3 18 66 151 10 154 114 3 95-165 93-204 36-6-8-10-19-12-30l50-8c3 46 112 56 116 5-17-69-150-10-154-114-4-87 153-88 188-35 5 8 8 18 10 28" id="aT"/><path fill="#3a414a" d="M123 10C108 53 80 86 19 72V37c35 8 53-11 59-39L3-190h52l48 148c12-52 28-100 44-148h51" id="aU"/><path fill="#3a414a" d="M220-157c-53 9-28 100-34 157h-49v-107c1-27-5-49-29-50C55-147 81-57 75 0H25l-1-190h47c2 12-1 28 3 38 10-53 101-56 108 0 13-22 24-43 59-42 82 1 51 116 57 194h-49v-107c-1-25-5-48-29-50" id="aV"/><g id="o"><use transform="matrix(0.06172839506172839,0,0,0.06172839506172839,0,0)" xlink:href="#aT"/><use transform="matrix(0.06172839506172839,0,0,0.06172839506172839,14.814814814814813,0)" xlink:href="#aU"/><use transform="matrix(0.06172839506172839,0,0,0.06172839506172839,27.160493827160494,0)" xlink:href="#aS"/><use transform="matrix(0.06172839506172839,0,0,0.06172839506172839,39.50617283950617,0)" xlink:href="#ab"/><use transform="matrix(0.06172839506172839,0,0,0.06172839506172839,46.85185185185185,0)" xlink:href="#S"/><use transform="matrix(0.06172839506172839,0,0,0.06172839506172839,59.197530864197525,0)" xlink:href="#aV"/></g><path fill="#3a414a" d="M24 0v-248h52V0H24" id="aW"/><g id="p"><use transform="matrix(0.06172839506172839,0,0,0.06172839506172839,0,0)" xlink:href="#aW"/><use transform="matrix(0.06172839506172839,0,0,0.06172839506172839,6.172839506172839,0)" xlink:href="#ac"/><use transform="matrix(0.06172839506172839,0,0,0.06172839506172839,19.691358024691358,0)" xlink:href="#ay"/><use transform="matrix(0.06172839506172839,0,0,0.06172839506172839,33.20987654320987,0)" xlink:href="#aa"/><use transform="matrix(0.06172839506172839,0,0,0.06172839506172839,46.72839506172839,0)" xlink:href="#ab"/></g><g id="q"><use transform="matrix(0.06172839506172839,0,0,0.06172839506172839,0,0)" xlink:href="#P"/><use transform="matrix(0.06172839506172839,0,0,0.06172839506172839,13.518518518518517,0)" xlink:href="#Q"/><use transform="matrix(0.06172839506172839,0,0,0.06172839506172839,19.691358024691358,0)" xlink:href="#V"/><use transform="matrix(0.06172839506172839,0,0,0.06172839506172839,25.864197530864196,0)" xlink:href="#ab"/><use transform="matrix(0.06172839506172839,0,0,0.06172839506172839,33.20987654320987,0)" xlink:href="#S"/><use transform="matrix(0.06172839506172839,0,0,0.06172839506172839,45.55555555555555,0)" xlink:href="#R"/></g><path fill="#3a414a" d="M144 0l-44-69L55 0H2l70-98-66-92h53l41 62 40-62h54l-67 91 71 99h-54" id="aX"/><g id="r"><use transform="matrix(0.06172839506172839,0,0,0.06172839506172839,0,0)" xlink:href="#al"/><use transform="matrix(0.06172839506172839,0,0,0.06172839506172839,13.518518518518517,0)" xlink:href="#W"/><use transform="matrix(0.06172839506172839,0,0,0.06172839506172839,28.33333333333333,0)" xlink:href="#R"/><use transform="matrix(0.06172839506172839,0,0,0.06172839506172839,36.9753086419753,0)" xlink:href="#Z"/><use transform="matrix(0.06172839506172839,0,0,0.06172839506172839,50.49382716049382,0)" xlink:href="#aX"/><use transform="matrix(0.06172839506172839,0,0,0.06172839506172839,62.8395061728395,0)" xlink:href="#aU"/></g><g id="s"><use transform="matrix(0.04938271604938272,0,0,0.04938271604938272,0,0)" xlink:href="#aC"/><use transform="matrix(0.04938271604938272,0,0,0.04938271604938272,4.938271604938272,0)" xlink:href="#aD"/></g><path fill="#333" d="M199 0l-22-63H83L61 0H9l90-248h61L250 0h-51zm-33-102l-36-108c-10 38-24 72-36 108h72" id="aY"/><path fill="#333" d="M190-63c-7 42-38 67-86 67-59 0-84-38-90-98-12-110 154-137 174-36l-49 2c-2-19-15-32-35-32-30 0-35 28-38 64-6 74 65 87 74 30" id="aZ"/><path fill="#333" d="M135-194c53 0 70 44 70 98 0 56-19 98-73 100-31 1-45-17-59-34 3 33 2 69 2 105H25l-1-265h48c2 10 0 23 3 31 11-24 29-35 60-35zM114-30c33 0 39-31 40-66 0-38-9-64-40-64-56 0-55 130 0 130" id="ba"/><path fill="#333" d="M115-3C79 11 28 4 28-45v-112H4v-33h27l15-45h31v45h36v33H77v99c-1 23 16 31 38 25v30" id="bb"/><g id="t"><use transform="matrix(0.04938271604938272,0,0,0.04938271604938272,0,0)" xlink:href="#aY"/><use transform="matrix(0.04938271604938272,0,0,0.04938271604938272,12.790123456790125,0)" xlink:href="#aZ"/><use transform="matrix(0.04938271604938272,0,0,0.04938271604938272,22.66666666666667,0)" xlink:href="#aZ"/><use transform="matrix(0.04938271604938272,0,0,0.04938271604938272,32.543209876543216,0)" xlink:href="#aI"/><use transform="matrix(0.04938271604938272,0,0,0.04938271604938272,42.41975308641976,0)" xlink:href="#ba"/><use transform="matrix(0.04938271604938272,0,0,0.04938271604938272,53.23456790123457,0)" xlink:href="#bb"/><use transform="matrix(0.04938271604938272,0,0,0.04938271604938272,59.111111111111114,0)" xlink:href="#aI"/><use transform="matrix(0.04938271604938272,0,0,0.04938271604938272,68.98765432098767,0)" xlink:href="#aJ"/></g><path fill="#333" d="M182-182c0 78-84 86-111 141h115V0H12c-6-101 99-100 120-180 1-22-12-31-33-32-23 0-32 14-35 34l-49-3c5-45 32-70 84-70 51 0 83 22 83 69" id="bc"/><use transform="matrix(0.04938271604938272,0,0,0.04938271604938272,0,0)" xlink:href="#bc" id="u"/><path fill="#6f7681" d="M136-208V0H84v-208H4v-40h212v40h-80" id="bd"/><path fill="#6f7681" d="M24-248c93 1 206-16 204 79-1 75-69 88-152 82V0H24v-248zm52 121c47 0 100 7 100-41 0-47-54-39-100-39v80" id="be"/><path fill="#6f7681" d="M135-150c-39-12-60 13-60 57V0H25l-1-190h47c2 13-1 29 3 40 6-28 27-53 61-41v41" id="bf"/><path fill="#6f7681" d="M110-194c64 0 96 36 96 99 0 64-35 99-97 99-61 0-95-36-95-99 0-62 34-99 96-99zm-1 164c35 0 45-28 45-65 0-40-10-65-43-65-34 0-45 26-45 65 0 36 10 65 43 65" id="bg"/><path fill="#6f7681" d="M144 0l-44-69L55 0H2l70-98-66-92h53l41 62 40-62h54l-67 91 71 99h-54" id="bh"/><path fill="#6f7681" d="M123 10C108 53 80 86 19 72V37c35 8 53-11 59-39L3-190h52l48 148c12-52 28-100 44-148h51" id="bi"/><g id="v"><use transform="matrix(0.07407407407407408,0,0,0.07407407407407408,0,0)" xlink:href="#bd"/><use transform="matrix(0.07407407407407408,0,0,0.07407407407407408,16.222222222222225,0)" xlink:href="#be"/><use transform="matrix(0.07407407407407408,0,0,0.07407407407407408,34,0)" xlink:href="#bf"/><use transform="matrix(0.07407407407407408,0,0,0.07407407407407408,44.370370370370374,0)" xlink:href="#bg"/><use transform="matrix(0.07407407407407408,0,0,0.07407407407407408,60.592592592592595,0)" xlink:href="#bh"/><use transform="matrix(0.07407407407407408,0,0,0.07407407407407408,75.40740740740742,0)" xlink:href="#bi"/></g><path fill="#6f7681" d="M140-251c80 0 125 45 125 126S219 4 139 4C58 4 15-44 15-125s44-126 125-126zm-1 214c52 0 73-35 73-88 0-50-21-86-72-86-52 0-73 35-73 86s22 88 72 88" id="bj"/><path fill="#6f7681" d="M85 4C-2 5 27-109 22-190h50c7 57-23 150 33 157 60-5 35-97 40-157h50l1 190h-47c-2-12 1-28-3-38-12 25-28 42-61 42" id="bk"/><path fill="#6f7681" d="M115-3C79 11 28 4 28-45v-112H4v-33h27l15-45h31v45h36v33H77v99c-1 23 16 31 38 25v30" id="bl"/><path fill="#6f7681" d="M135-194c52 0 70 43 70 98 0 56-19 99-73 100-30 1-46-15-58-35L72 0H24l1-261h50v104c11-23 29-37 60-37zM114-30c31 0 40-27 40-66 0-37-7-63-39-63s-41 28-41 65c0 36 8 64 40 64" id="bm"/><path fill="#6f7681" d="M135-194c87-1 58 113 63 194h-50c-7-57 23-157-34-157-59 0-34 97-39 157H25l-1-190h47c2 12-1 28 3 38 12-26 28-41 61-42" id="bn"/><path fill="#6f7681" d="M88-194c31-1 46 15 58 34l-1-101h50l1 261h-48c-2-10 0-23-3-31C134-8 116 4 84 4 32 4 16-41 15-95c0-56 19-97 73-99zm17 164c33 0 40-30 41-66 1-37-9-64-41-64s-38 30-39 65c0 43 13 65 39 65" id="bo"/><path fill="#6f7681" d="M14-72v-43h91v43H14" id="bp"/><path fill="#6f7681" d="M133-34C117-15 103 5 69 4 32 3 11-16 11-54c-1-60 55-63 116-61 1-26-3-47-28-47-18 1-26 9-28 27l-52-2c7-38 36-58 82-57s74 22 75 68l1 82c-1 14 12 18 25 15v27c-30 8-71 5-69-32zm-48 3c29 0 43-24 42-57-32 0-66-3-65 30 0 17 8 27 23 27" id="bq"/><path fill="#6f7681" d="M121-226c-27-7-43 5-38 36h38v33H83V0H34v-157H6v-33h28c-9-59 32-81 87-68v32" id="br"/><path fill="#6f7681" d="M25-224v-37h50v37H25zM25 0v-190h50V0H25" id="bs"/><path fill="#6f7681" d="M190-63c-7 42-38 67-86 67-59 0-84-38-90-98-12-110 154-137 174-36l-49 2c-2-19-15-32-35-32-30 0-35 28-38 64-6 74 65 87 74 30" id="bt"/><g id="w"><use transform="matrix(0.07407407407407408,0,0,0.07407407407407408,0,0)" xlink:href="#bj"/><use transform="matrix(0.07407407407407408,0,0,0.07407407407407408,20.740740740740744,0)" xlink:href="#bk"/><use transform="matrix(0.07407407407407408,0,0,0.07407407407407408,36.96296296296297,0)" xlink:href="#bl"/><use transform="matrix(0.07407407407407408,0,0,0.07407407407407408,45.777777777777786,0)" xlink:href="#bm"/><use transform="matrix(0.07407407407407408,0,0,0.07407407407407408,62.000000000000014,0)" xlink:href="#bg"/><use transform="matrix(0.07407407407407408,0,0,0.07407407407407408,78.22222222222224,0)" xlink:href="#bk"/><use transform="matrix(0.07407407407407408,0,0,0.07407407407407408,94.44444444444447,0)" xlink:href="#bn"/><use transform="matrix(0.07407407407407408,0,0,0.07407407407407408,110.6666666666667,0)" xlink:href="#bo"/><use transform="matrix(0.07407407407407408,0,0,0.07407407407407408,126.88888888888893,0)" xlink:href="#bp"/><use transform="matrix(0.07407407407407408,0,0,0.07407407407407408,135.70370370370375,0)" xlink:href="#bd"/><use transform="matrix(0.07407407407407408,0,0,0.07407407407407408,150.44444444444449,0)" xlink:href="#bf"/><use transform="matrix(0.07407407407407408,0,0,0.07407407407407408,160.81481481481487,0)" xlink:href="#bq"/><use transform="matrix(0.07407407407407408,0,0,0.07407407407407408,175.62962962962968,0)" xlink:href="#br"/><use transform="matrix(0.07407407407407408,0,0,0.07407407407407408,184.44444444444446,0)" xlink:href="#br"/><use transform="matrix(0.07407407407407408,0,0,0.07407407407407408,193.2592592592593,0)" xlink:href="#bs"/><use transform="matrix(0.07407407407407408,0,0,0.07407407407407408,200.6666666666667,0)" xlink:href="#bt"/></g><path fill="#6f7681" d="M24 0v-248h195v40H76v63h132v40H76v65h150V0H24" id="bu"/><path fill="#6f7681" d="M220-157c-53 9-28 100-34 157h-49v-107c1-27-5-49-29-50C55-147 81-57 75 0H25l-1-190h47c2 12-1 28 3 38 10-53 101-56 108 0 13-22 24-43 59-42 82 1 51 116 57 194h-49v-107c-1-25-5-48-29-50" id="bv"/><path fill="#6f7681" d="M135-194c53 0 70 44 70 98 0 56-19 98-73 100-31 1-45-17-59-34 3 33 2 69 2 105H25l-1-265h48c2 10 0 23 3 31 11-24 29-35 60-35zM114-30c33 0 39-31 40-66 0-38-9-64-40-64-56 0-55 130 0 130" id="bw"/><path fill="#6f7681" d="M25 0v-261h50V0H25" id="bx"/><path fill="#6f7681" d="M185-48c-13 30-37 53-82 52C43 2 14-33 14-96s30-98 90-98c62 0 83 45 84 108H66c0 31 8 55 39 56 18 0 30-7 34-22zm-45-69c5-46-57-63-70-21-2 6-4 13-4 21h74" id="by"/><g id="x"><use transform="matrix(0.07407407407407408,0,0,0.07407407407407408,0,0)" xlink:href="#bu"/><use transform="matrix(0.07407407407407408,0,0,0.07407407407407408,17.77777777777778,0)" xlink:href="#bh"/><use transform="matrix(0.07407407407407408,0,0,0.07407407407407408,32.592592592592595,0)" xlink:href="#bq"/><use transform="matrix(0.07407407407407408,0,0,0.07407407407407408,47.40740740740741,0)" xlink:href="#bv"/><use transform="matrix(0.07407407407407408,0,0,0.07407407407407408,71.11111111111111,0)" xlink:href="#bw"/><use transform="matrix(0.07407407407407408,0,0,0.07407407407407408,87.33333333333334,0)" xlink:href="#bx"/><use transform="matrix(0.07407407407407408,0,0,0.07407407407407408,94.74074074074075,0)" xlink:href="#by"/></g><path fill="#333" d="M128-127c34 4 56 21 59 58 7 91-148 94-172 28-4-9-6-17-7-26l51-5c1 24 16 35 40 36 23 0 39-12 38-36-1-31-31-36-65-34v-40c32 2 59-3 59-33 0-20-13-33-34-33s-33 13-35 32l-50-3c6-44 37-68 86-68 50 0 83 20 83 66 0 35-22 52-53 58" id="bz"/><use transform="matrix(0.04938271604938272,0,0,0.04938271604938272,0,0)" xlink:href="#bz" id="y"/><path fill="#3a414a" d="M140-251c80 0 125 45 125 126S219 4 139 4C58 4 15-44 15-125s44-126 125-126zm-1 214c52 0 73-35 73-88 0-50-21-86-72-86-52 0-73 35-73 86s22 88 72 88" id="bA"/><g id="z"><use transform="matrix(0.06172839506172839,0,0,0.06172839506172839,0,0)" xlink:href="#bA"/><use transform="matrix(0.06172839506172839,0,0,0.06172839506172839,17.28395061728395,0)" xlink:href="#aa"/><use transform="matrix(0.06172839506172839,0,0,0.06172839506172839,30.80246913580247,0)" xlink:href="#ab"/><use transform="matrix(0.06172839506172839,0,0,0.06172839506172839,38.148148148148145,0)" xlink:href="#ay"/><use transform="matrix(0.06172839506172839,0,0,0.06172839506172839,51.666666666666664,0)" xlink:href="#aa"/><use transform="matrix(0.06172839506172839,0,0,0.06172839506172839,65.18518518518518,0)" xlink:href="#ab"/></g><g id="A"><use transform="matrix(0.06172839506172839,0,0,0.06172839506172839,0,0)" xlink:href="#ae"/><use transform="matrix(0.06172839506172839,0,0,0.06172839506172839,7.345679012345679,0)" xlink:href="#af"/><use transform="matrix(0.06172839506172839,0,0,0.06172839506172839,19.691358024691358,0)" xlink:href="#ag"/><use transform="matrix(0.06172839506172839,0,0,0.06172839506172839,32.03703703703704,0)" xlink:href="#ag"/></g><g id="B"><use transform="matrix(0.06172839506172839,0,0,0.06172839506172839,0,0)" xlink:href="#ah"/><use transform="matrix(0.06172839506172839,0,0,0.06172839506172839,7.345679012345679,0)" xlink:href="#ai"/><use transform="matrix(0.06172839506172839,0,0,0.06172839506172839,23.333333333333332,0)" xlink:href="#aj"/><use transform="matrix(0.06172839506172839,0,0,0.06172839506172839,39.32098765432099,0)" xlink:href="#ak"/><use transform="matrix(0.06172839506172839,0,0,0.06172839506172839,53.641975308641975,0)" xlink:href="#al"/><use transform="matrix(0.06172839506172839,0,0,0.06172839506172839,67.1604938271605,0)" xlink:href="#am"/></g><path fill="#333" d="M165-50V0h-47v-50H5v-38l105-160h55v161h33v37h-33zm-47-37l2-116L46-87h72" id="bB"/><use transform="matrix(0.04938271604938272,0,0,0.04938271604938272,0,0)" xlink:href="#bB" id="C"/><path fill="#fff" d="M67-125c0 53 21 87 73 88 37 1 54-22 65-47l45 17C233-25 199 4 140 4 58 4 20-42 15-125 8-235 124-281 211-232c18 10 29 29 36 50l-46 12c-8-25-30-41-62-41-52 0-71 34-72 86" id="bC"/><path fill="#fff" d="M110-194c64 0 96 36 96 99 0 64-35 99-97 99-61 0-95-36-95-99 0-62 34-99 96-99zm-1 164c35 0 45-28 45-65 0-40-10-65-43-65-34 0-45 26-45 65 0 36 10 65 43 65" id="bD"/><path fill="#fff" d="M135-194c53 0 70 44 70 98 0 56-19 98-73 100-31 1-45-17-59-34 3 33 2 69 2 105H25l-1-265h48c2 10 0 23 3 31 11-24 29-35 60-35zM114-30c33 0 39-31 40-66 0-38-9-64-40-64-56 0-55 130 0 130" id="bE"/><path fill="#fff" d="M123 10C108 53 80 86 19 72V37c35 8 53-11 59-39L3-190h52l48 148c12-52 28-100 44-148h51" id="bF"/><path fill="#fff" d="M114-157C55-157 80-60 75 0H25v-261h50l-1 109c12-26 28-41 61-42 86-1 58 113 63 194h-50c-7-57 23-157-34-157" id="bG"/><path fill="#fff" d="M35-132v-50h50v50H35zM35 0v-49h50V0H35" id="bH"/><g id="D"><use transform="matrix(0.06172839506172839,0,0,0.06172839506172839,0,0)" xlink:href="#bC"/><use transform="matrix(0.06172839506172839,0,0,0.06172839506172839,15.987654320987653,0)" xlink:href="#bD"/><use transform="matrix(0.06172839506172839,0,0,0.06172839506172839,29.50617283950617,0)" xlink:href="#bE"/><use transform="matrix(0.06172839506172839,0,0,0.06172839506172839,43.02469135802469,0)" xlink:href="#bF"/><use transform="matrix(0.06172839506172839,0,0,0.06172839506172839,55.37037037037037,0)" xlink:href="#ap"/><use transform="matrix(0.06172839506172839,0,0,0.06172839506172839,64.01234567901234,0)" xlink:href="#av"/><use transform="matrix(0.06172839506172839,0,0,0.06172839506172839,70.18518518518518,0)" xlink:href="#aq"/><use transform="matrix(0.06172839506172839,0,0,0.06172839506172839,83.7037037037037,0)" xlink:href="#bG"/><use transform="matrix(0.06172839506172839,0,0,0.06172839506172839,97.22222222222221,0)" xlink:href="#as"/><use transform="matrix(0.06172839506172839,0,0,0.06172839506172839,104.5679012345679,0)" xlink:href="#bH"/></g><path fill="#fff" d="M88-194c31-1 46 15 58 34l-1-101h50l1 261h-48c-2-10 0-23-3-31C134-8 116 4 84 4 32 4 16-41 15-95c0-56 19-97 73-99zm17 164c33 0 40-30 41-66 1-37-9-64-41-64s-38 30-39 65c0 43 13 65 39 65" id="bI"/><path fill="#fff" d="M137-138c1-29-70-34-71-4 15 46 118 7 119 86 1 83-164 76-172 9l43-7c4 19 20 25 44 25 33 8 57-30 24-41C81-84 22-81 20-136c-2-80 154-74 161-7" id="bJ"/><path fill="#fff" d="M24 0v-54h51V0H24" id="bK"/><path fill="#fff" d="M140-251c80 0 125 45 125 126S219 4 139 4C58 4 15-44 15-125s44-126 125-126zm-1 214c52 0 73-35 73-88 0-50-21-86-72-86-52 0-73 35-73 86s22 88 72 88" id="bL"/><path fill="#fff" d="M14-72v-43h91v43H14" id="bM"/><path fill="#fff" d="M182 0l-62-99L58 0H3l86-130-79-118h55l55 88 55-88h55l-75 118L237 0h-55" id="bN"/><path fill="#fff" d="M24 0v-248h52v208h133V0H24" id="bO"/><path fill="#fff" d="M220-157c-53 9-28 100-34 157h-49v-107c1-27-5-49-29-50C55-147 81-57 75 0H25l-1-190h47c2 12-1 28 3 38 10-53 101-56 108 0 13-22 24-43 59-42 82 1 51 116 57 194h-49v-107c-1-25-5-48-29-50" id="bP"/><g id="E"><use transform="matrix(0.06172839506172839,0,0,0.06172839506172839,0,0)" xlink:href="#bI"/><use transform="matrix(0.06172839506172839,0,0,0.06172839506172839,13.518518518518517,0)" xlink:href="#bD"/><use transform="matrix(0.06172839506172839,0,0,0.06172839506172839,27.037037037037035,0)" xlink:href="#aw"/><use transform="matrix(0.06172839506172839,0,0,0.06172839506172839,39.382716049382715,0)" xlink:href="#bJ"/><use transform="matrix(0.06172839506172839,0,0,0.06172839506172839,51.72839506172839,0)" xlink:href="#bK"/><use transform="matrix(0.06172839506172839,0,0,0.06172839506172839,57.901234567901234,0)" xlink:href="#bL"/><use transform="matrix(0.06172839506172839,0,0,0.06172839506172839,75.18518518518519,0)" xlink:href="#bM"/><use transform="matrix(0.06172839506172839,0,0,0.06172839506172839,82.53086419753087,0)" xlink:href="#bN"/><use transform="matrix(0.06172839506172839,0,0,0.06172839506172839,97.34567901234568,0)" xlink:href="#bM"/><use transform="matrix(0.06172839506172839,0,0,0.06172839506172839,104.69135802469137,0)" xlink:href="#bO"/><use transform="matrix(0.06172839506172839,0,0,0.06172839506172839,118.20987654320989,0)" xlink:href="#bK"/><use transform="matrix(0.06172839506172839,0,0,0.06172839506172839,124.38271604938272,0)" xlink:href="#aw"/><use transform="matrix(0.06172839506172839,0,0,0.06172839506172839,136.7283950617284,0)" xlink:href="#bD"/><use transform="matrix(0.06172839506172839,0,0,0.06172839506172839,150.2469135802469,0)" xlink:href="#bP"/></g><g id="F"><use transform="matrix(0.06172839506172839,0,0,0.06172839506172839,0,0)" xlink:href="#W"/><use transform="matrix(0.06172839506172839,0,0,0.06172839506172839,14.814814814814813,0)" xlink:href="#R"/><use transform="matrix(0.06172839506172839,0,0,0.06172839506172839,23.456790123456788,0)" xlink:href="#S"/><use transform="matrix(0.06172839506172839,0,0,0.06172839506172839,35.80246913580247,0)" xlink:href="#X"/><use transform="matrix(0.06172839506172839,0,0,0.06172839506172839,43.148148148148145,0)" xlink:href="#Y"/><use transform="matrix(0.06172839506172839,0,0,0.06172839506172839,59.1358024691358,0)" xlink:href="#Z"/><use transform="matrix(0.06172839506172839,0,0,0.06172839506172839,72.65432098765432,0)" xlink:href="#aa"/><use transform="matrix(0.06172839506172839,0,0,0.06172839506172839,86.17283950617283,0)" xlink:href="#ab"/><use transform="matrix(0.06172839506172839,0,0,0.06172839506172839,93.51851851851852,0)" xlink:href="#Q"/><use transform="matrix(0.06172839506172839,0,0,0.06172839506172839,99.69135802469135,0)" xlink:href="#ac"/><use transform="matrix(0.06172839506172839,0,0,0.06172839506172839,113.20987654320987,0)" xlink:href="#ad"/></g><path fill="#3a414a" d="M54-142c48-35 137-8 131 61C196 18 31 33 14-55l32-4c7 23 22 37 52 37 35-1 51-22 54-58 4-55-73-65-99-34H22l8-134h141v27H59" id="bQ"/><g id="G"><use transform="matrix(0.06172839506172839,0,0,0.06172839506172839,0,0)" xlink:href="#ae"/><use transform="matrix(0.06172839506172839,0,0,0.06172839506172839,7.345679012345679,0)" xlink:href="#af"/><use transform="matrix(0.06172839506172839,0,0,0.06172839506172839,19.691358024691358,0)" xlink:href="#bQ"/><use transform="matrix(0.06172839506172839,0,0,0.06172839506172839,32.03703703703704,0)" xlink:href="#ag"/></g><g id="H"><use transform="matrix(0.06172839506172839,0,0,0.06172839506172839,0,0)" xlink:href="#ah"/><use transform="matrix(0.06172839506172839,0,0,0.06172839506172839,7.345679012345679,0)" xlink:href="#aV"/><use transform="matrix(0.06172839506172839,0,0,0.06172839506172839,27.098765432098766,0)" xlink:href="#U"/><use transform="matrix(0.06172839506172839,0,0,0.06172839506172839,39.44444444444444,0)" xlink:href="#ac"/><use transform="matrix(0.06172839506172839,0,0,0.06172839506172839,52.96296296296296,0)" xlink:href="#ad"/><use transform="matrix(0.06172839506172839,0,0,0.06172839506172839,66.48148148148148,0)" xlink:href="#V"/><use transform="matrix(0.06172839506172839,0,0,0.06172839506172839,72.65432098765432,0)" xlink:href="#S"/><use transform="matrix(0.06172839506172839,0,0,0.06172839506172839,85,0)" xlink:href="#am"/></g><path fill="#3a414a" d="M17-49c1-102 45-165 103-212h30C92-210 49-145 49-46 49 4 63 43 85 75H54C30 43 18 2 17-49" id="bR"/><path fill="#3a414a" d="M67-158c22-48 132-52 116 29L158 0h-32l25-140c3-38-53-32-70-12C52-117 51-52 38 0H6l36-190h30" id="bS"/><path fill="#3a414a" d="M30-147c31-64 166-65 159 27C183-49 158 1 86 4 9 8 1-88 30-147zM88-20c53 0 68-48 68-100 0-31-11-51-44-50-52 1-68 46-68 97 0 32 13 53 44 53" id="bT"/><g id="I"><use transform="matrix(0.06172839506172839,0,0,0.06172839506172839,0,0)" xlink:href="#bR"/><use transform="matrix(0.06172839506172839,0,0,0.06172839506172839,7.345679012345679,0)" xlink:href="#bS"/><use transform="matrix(0.06172839506172839,0,0,0.06172839506172839,19.691358024691358,0)" xlink:href="#bT"/></g><path fill="#3a414a" d="M248-111c6-24 9-61-24-58-72 9-57 108-77 169h-31l26-142c3-37-50-30-64-10C52-115 50-51 37 0H6l36-190h30c-1 10-6 24-4 32 13-43 101-52 105 5 13-22 29-41 61-41 90 0 28 129 23 194h-31" id="bU"/><path fill="#3a414a" d="M165-48c-4 18 1 34 23 27l-3 20c-29 8-62 0-52-35h-2C116-14 99 4 63 4 30 4 8-16 8-49c0-68 71-67 138-67 10-26 0-56-31-54-26 1-42 9-47 31l-32-5c8-67 160-71 144 15-5 28-9 54-15 81zM42-50c3 52 80 24 89-6 7-12 7-24 11-38-47 1-103-4-100 44" id="bV"/><path fill="#3a414a" d="M66-151c12-25 30-51 66-40l-6 26C45-176 58-65 38 0H6l36-190h30" id="bW"/><path fill="#3a414a" d="M127 0L80-88 50-66 37 0H6l51-261h31L57-100l99-90h39l-93 82L161 0h-34" id="bX"/><path fill="#3a414a" d="M98-137C97-35 54 29-4 75h-31C23 23 67-41 67-140c0-50-15-89-37-121h31c24 32 36 73 37 124" id="bY"/><g id="J"><use transform="matrix(0.06172839506172839,0,0,0.06172839506172839,0,0)" xlink:href="#bU"/><use transform="matrix(0.06172839506172839,0,0,0.06172839506172839,18.456790123456788,0)" xlink:href="#bV"/><use transform="matrix(0.06172839506172839,0,0,0.06172839506172839,30.80246913580247,0)" xlink:href="#bW"/><use transform="matrix(0.06172839506172839,0,0,0.06172839506172839,38.148148148148145,0)" xlink:href="#bX"/><use transform="matrix(0.06172839506172839,0,0,0.06172839506172839,49.25925925925925,0)" xlink:href="#bY"/></g><path fill="#3a414a" d="M133-28C103 26-5 8 13-77c13-62 24-115 90-117 29-1 46 15 56 35l19-102h32L160 0h-30zM45-64c-2 27 10 43 35 43 54-1 69-50 69-103 0-29-15-46-42-46-53-1-58 58-62 106" id="bZ"/><g id="K"><use transform="matrix(0.06172839506172839,0,0,0.06172839506172839,0,0)" xlink:href="#bR"/><use transform="matrix(0.06172839506172839,0,0,0.06172839506172839,7.345679012345679,0)" xlink:href="#bV"/><use transform="matrix(0.06172839506172839,0,0,0.06172839506172839,19.691358024691358,0)" xlink:href="#bZ"/><use transform="matrix(0.06172839506172839,0,0,0.06172839506172839,32.03703703703704,0)" xlink:href="#bZ"/></g><g id="L"><use transform="matrix(0.06172839506172839,0,0,0.06172839506172839,0,0)" xlink:href="#P"/><use transform="matrix(0.06172839506172839,0,0,0.06172839506172839,13.518518518518517,0)" xlink:href="#Q"/><use transform="matrix(0.06172839506172839,0,0,0.06172839506172839,19.691358024691358,0)" xlink:href="#V"/><use transform="matrix(0.06172839506172839,0,0,0.06172839506172839,25.864197530864196,0)" xlink:href="#ab"/><use transform="matrix(0.06172839506172839,0,0,0.06172839506172839,33.20987654320987,0)" xlink:href="#S"/><use transform="matrix(0.06172839506172839,0,0,0.06172839506172839,45.55555555555555,0)" xlink:href="#R"/></g><path fill="#333" d="M135-194c87-1 58 113 63 194h-50c-7-57 23-157-34-157-59 0-34 97-39 157H25l-1-190h47c2 12-1 28 3 38 12-26 28-41 61-42" id="ca"/><g id="M"><use transform="matrix(0.04938271604938272,0,0,0.04938271604938272,0,0)" xlink:href="#ca"/><use transform="matrix(0.04938271604938272,0,0,0.04938271604938272,10.814814814814815,0)" xlink:href="#aO"/><use transform="matrix(0.04938271604938272,0,0,0.04938271604938272,21.62962962962963,0)" xlink:href="#bb"/></g><g id="N"><use transform="matrix(0.04938271604938272,0,0,0.04938271604938272,0,0)" xlink:href="#aN"/><use transform="matrix(0.04938271604938272,0,0,0.04938271604938272,11.851851851851853,0)" xlink:href="#aG"/><use transform="matrix(0.04938271604938272,0,0,0.04938271604938272,18.765432098765434,0)" xlink:href="#aO"/><use transform="matrix(0.04938271604938272,0,0,0.04938271604938272,29.58024691358025,0)" xlink:href="#aP"/><use transform="matrix(0.04938271604938272,0,0,0.04938271604938272,39.45679012345679,0)" xlink:href="#aQ"/></g><path fill="#333" d="M23 0v-37h61v-169l-59 37v-38l62-41h46v211h57V0H23" id="cb"/><use transform="matrix(0.04938271604938272,0,0,0.04938271604938272,0,0)" xlink:href="#cb" id="O"/></defs></g></svg>