<svg xmlns="http://www.w3.org/2000/svg" xmlns:xlink="http://www.w3.org/1999/xlink" xmlns:lucid="lucid" width="1005.5" height="718.83"><g transform="translate(924 337.3333333333333)" lucid:page-tab-id="0_0"><path d="M-840 156.83a6 6 0 0 1 6-6h188a6 6 0 0 1 6 6v26.34a6 6 0 0 1-6 6h-188a6 6 0 0 1-6-6z" stroke="#3a414a" fill="#4c535d"/><use xlink:href="#a" transform="matrix(1,0,0,1,-828,162.83333333333331) translate(0 12.541666666666663)"/><use xlink:href="#b" transform="matrix(1,0,0,1,-828,162.83333333333331) translate(70.14814814814811 12.541666666666663)"/><path d="M-100-257.64a6 6 0 0 1 6-6H38a6 6 0 0 1 6 6v102c-24.05-18.03-39.02-18.03-48.1-18.03-14.4 0-33.55 18.03-47.95 18.03-8.93 0-24.05 0-47.95-18.03z" stroke="#979ea8" stroke-width="3" fill="#fbf0ff"/><path d="M-92-248.1a6 6 0 0 1 6-6H46a6 6 0 0 1 6 6v102c-24.05-18.04-39.02-18.04-48.1-18.04-14.4 0-33.55 18.03-47.95 18.03-8.93 0-24.05 0-47.95-18.04z" stroke="#979ea8" stroke-width="3" fill="#fbf0ff"/><path d="M-84-238.58a6 6 0 0 1 6-6H54a6 6 0 0 1 6 6v102C35.95-154.6 20.98-154.6 11.9-154.6c-14.4 0-33.55 18.02-47.95 18.02-8.93 0-24.05 0-47.95-18.03z" stroke="#979ea8" stroke-width="3" fill="#fbf0ff"/><use xlink:href="#c" transform="matrix(1,0,0,1,-79,-239.57671779184096) translate(21.969135802469133 17.77777777777778)"/><use xlink:href="#d" transform="matrix(1,0,0,1,-79,-239.57671779184096) translate(23.172839506172842 44.44444444444444)"/><use xlink:href="#e" transform="matrix(1,0,0,1,-79,-239.57671779184096) translate(36.16666666666667 71.11111111111111)"/><path d="M-420-254a6 6 0 0 1 6-6h148a6 6 0 0 1 6 6v108a6 6 0 0 1-6 6h-148a6 6 0 0 1-6-6z" stroke="#979ea8" stroke-width="3" fill="#6db1ff"/><use xlink:href="#f" transform="matrix(1,0,0,1,-408,-248) translate(18.12345679012345 26.77777777777778)"/><use xlink:href="#g" transform="matrix(1,0,0,1,-408,-248) translate(23.648148148148152 53.44444444444445)"/><use xlink:href="#h" transform="matrix(1,0,0,1,-408,-248) translate(31.086419753086417 80.11111111111111)"/><path d="M-745.27-253.7a11 11 0 0 1 10.54 0l99.46 54.25a3.27 3.27 0 0 1 0 5.75l-99.46 54.25a11 11 0 0 1-10.54 0l-99.46-54.25a3.27 3.27 0 0 1 0-5.75z" stroke="#979ea8" stroke-width="3" fill="#6db1ff"/><use xlink:href="#f" transform="matrix(1,0,0,1,-845,-251.57671779184096) translate(55.128456790123444 39.78777777777778)"/><use xlink:href="#i" transform="matrix(1,0,0,1,-845,-251.57671779184096) translate(49.511172839506166 66.45444444444445)"/><use xlink:href="#j" transform="matrix(1,0,0,1,-845,-251.57671779184096) translate(87.1654938271605 93.1211111111111)"/><path d="M-745.27-17.13a11 11 0 0 1 10.54 0l99.46 54.26a3.27 3.27 0 0 1 0 5.74l-99.46 54.26a11 11 0 0 1-10.54 0l-99.46-54.26a3.27 3.27 0 0 1 0-5.74z" stroke="#979ea8" stroke-width="3" fill="#cfe4ff"/><use xlink:href="#f" transform="matrix(1,0,0,1,-845,-15) translate(55.128456790123444 39.78777777777778)"/><use xlink:href="#i" transform="matrix(1,0,0,1,-845,-15) translate(49.511172839506166 66.45444444444445)"/><use xlink:href="#j" transform="matrix(1,0,0,1,-845,-15) translate(87.1654938271605 93.1211111111111)"/><path d="M-420-14a6 6 0 0 1 6-6h148a6 6 0 0 1 6 6V94a6 6 0 0 1-6 6h-148a6 6 0 0 1-6-6z" stroke="#979ea8" stroke-width="3" fill="#cfe4ff"/><use xlink:href="#k" transform="matrix(1,0,0,1,-408,-8) translate(7.012345679012341 26.77777777777778)"/><use xlink:href="#l" transform="matrix(1,0,0,1,-408,-8) translate(18.12345679012345 53.44444444444445)"/><use xlink:href="#m" transform="matrix(1,0,0,1,-408,-8) translate(23.648148148148152 80.11111111111111)"/><path d="M-338.52-42.12h-2.96v-24.55h2.96zm0-51.2h-2.96V-137h2.96z" stroke="#979ea8" stroke-width=".05" fill="#979ea8"/><path d="M-338.52-136.96h-2.96v-1.54h2.96z" fill="#979ea8"/><path stroke="#979ea8" stroke-width=".05" fill="#979ea8"/><path d="M-340-26.36l-4.63-14.26h9.26z" fill="#979ea8"/><path d="M-340-21.58l-6.67-20.52h13.34zm-2.6-17.57l2.6 8.02 2.6-8.02z" stroke="#979ea8" stroke-width=".05" fill="#979ea8"/><use xlink:href="#n" transform="matrix(1,0,0,1,-364.01234567901236,-93.33333333333333) translate(0 17.77777777777778)"/><path d="M-589.68-195.1h-21.75v-2.95h21.75zm166.68-3.43h-40.88v-2.94H-423z" stroke="#979ea8" stroke-width=".05" fill="#979ea8"/><path d="M-421.5-198.53h-1.54v-2.94h1.54z" fill="#979ea8"/><path stroke="#979ea8" stroke-width=".05" fill="#979ea8"/><path d="M-612.93-191.94l-14.27-4.64 14.27-4.63z" fill="#979ea8"/><path d="M-611.46-189.9l-20.5-6.68 20.5-6.66zm-10.97-6.68l8.02 2.6v-5.2z" stroke="#979ea8" stroke-width=".05" fill="#979ea8"/><use xlink:href="#o" transform="matrix(1,0,0,1,-589.6778107482152,-224.9550255625871) translate(13.029691358024692 17.77777777777778)"/><use xlink:href="#p" transform="matrix(1,0,0,1,-589.6778107482152,-224.9550255625871) translate(0.005000000000002558 44.44444444444444)"/><use xlink:href="#q" transform="matrix(1,0,0,1,-589.6778107482152,-224.9550255625871) translate(27.042037037037037 44.44444444444444)"/><path d="M-587.15 41.48h-24.28v-2.95h24.28zm164.15 0h-43.4v-2.95h43.4z" stroke="#979ea8" stroke-width=".05" fill="#979ea8"/><path d="M-421.5 41.48h-1.54v-2.95h1.54z" fill="#979ea8"/><path stroke="#979ea8" stroke-width=".05" fill="#979ea8"/><path d="M-612.93 44.63L-627.2 40l14.27-4.63z" fill="#979ea8"/><path d="M-611.46 46.66l-20.5-6.66 20.5-6.66zM-622.42 40l8 2.6v-5.2z" stroke="#979ea8" stroke-width=".05" fill="#979ea8"/><use xlink:href="#o" transform="matrix(1,0,0,1,-587.1469465506843,0) translate(10.498827160493839 17.77777777777778)"/><use xlink:href="#p" transform="matrix(1,0,0,1,-587.1469465506843,0) translate(18.49265432098767 44.44444444444444)"/><use xlink:href="#r" transform="matrix(1,0,0,1,-587.1469465506843,0) translate(45.52969135802471 44.44444444444444)"/><use xlink:href="#s" transform="matrix(1,0,0,1,-587.1469465506843,0) translate(0.005000000000002558 71.11111111111111)"/><path d="M-103-201.47v2.95h-49.93v-2.95zm-104.07 0v2.95h-30.8v-2.95z" stroke="#979ea8" stroke-width=".05" fill="#979ea8"/><path d="M-101.5-198.52h-1.54v-2.95h1.54z" fill="#979ea8"/><path stroke="#979ea8" stroke-width=".05" fill="#979ea8"/><path d="M-239.38-195.37l-14.27-4.63 14.27-4.63z" fill="#979ea8"/><path d="M-237.9-193.34l-20.52-6.66 20.52-6.66zm-10.97-6.66l8.02 2.6v-5.2z" stroke="#979ea8" stroke-width=".05" fill="#979ea8"/><use xlink:href="#t" transform="matrix(1,0,0,1,-207.06792623456758,-213.3326741435411) translate(0 17.77777777777778)"/><path d="M-840 246a6 6 0 0 1 6-6H54a6 6 0 0 1 6 6v108a6 6 0 0 1-6 6h-888a6 6 0 0 1-6-6z" stroke="#979ea8" stroke-width="3" fill="#fff3d9"/><path d="M-670 260c22.1 0 40 17.9 40 40s-17.9 40-40 40h-100c-22.1 0-40-17.9-40-40s17.9-40 40-40z" stroke="#3a414a" fill="#dedeff"/><use xlink:href="#u" transform="matrix(1,0,0,1,-805,265) translate(61.60993827160494 26.52777777777778)"/><use xlink:href="#v" transform="matrix(1,0,0,1,-805,265) translate(29.572901234567887 53.19444444444445)"/><path d="M-450 260c22.1 0 40 17.9 40 40s-17.9 40-40 40h-100c-22.1 0-40-17.9-40-40s17.9-40 40-40z" stroke="#3a414a" fill="#dedeff"/><use xlink:href="#w" transform="matrix(1,0,0,1,-585,265) translate(52.35067901234568 26.52777777777778)"/><use xlink:href="#v" transform="matrix(1,0,0,1,-585,265) translate(29.572901234567887 53.19444444444445)"/><path d="M-230 260c22.1 0 40 17.9 40 40s-17.9 40-40 40h-100c-22.1 0-40-17.9-40-40s17.9-40 40-40z" stroke="#3a414a" fill="#dedeff"/><use xlink:href="#x" transform="matrix(1,0,0,1,-365,265) translate(14.202530864197536 26.52777777777778)"/><use xlink:href="#y" transform="matrix(1,0,0,1,-365,265) translate(81.85685185185186 26.52777777777778)"/><use xlink:href="#v" transform="matrix(1,0,0,1,-365,265) translate(29.572901234567887 53.19444444444445)"/><path d="M-10 260c22.1 0 40 17.9 40 40s-17.9 40-40 40h-100c-22.1 0-40-17.9-40-40s17.9-40 40-40z" stroke="#3a414a" fill="#dedeff"/><use xlink:href="#z" transform="matrix(1,0,0,1,-145,265) translate(51.1161111111111 26.52777777777778)"/><use xlink:href="#v" transform="matrix(1,0,0,1,-145,265) translate(29.572901234567887 53.19444444444445)"/><path d="M-18.52 218.88h-2.96V62.92h2.96zm0-182.63h-2.96v-175.1h2.96z" stroke="#979ea8" stroke-width=".05" fill="#979ea8"/><path d="M-18.52-138.8h-2.96v-.82l2.96-1.43z" fill="#979ea8"/><path stroke="#979ea8" stroke-width=".05" fill="#979ea8"/><path d="M-20 234.65l-4.64-14.27h9.28z" fill="#979ea8"/><path d="M-20 239.42l-6.66-20.52h13.32zm-2.6-17.57l2.6 8.02 2.6-8.02z" stroke="#979ea8" stroke-width=".05" fill="#979ea8"/><use xlink:href="#A" transform="matrix(1,0,0,1,-40.33950590124314,36.24908853628826) translate(0 17.77777777777778)"/><path d="M-231.93 38.72l-3.26.68-2.53.43-.48-2.9 2.46-.43 3.2-.67zm22.35-7.83l-1.95.95-3.58 1.6-3.7 1.45-1.7.6-.98-2.8 1.65-.57 3.58-1.4 3.47-1.55 1.9-.94zm19.72-13.12l-1.45 1.24-3.3 2.6-3.32 2.4-1.4.93-1.62-2.46 1.34-.9 3.2-2.33 3.2-2.53 1.4-1.2zM-173.58.63l-.53.7-3.63 4.36-3.48 3.84-2.2-1.98 3.44-3.8 3.54-4.27.5-.65zm13.16-19.5l-1.5 2.55-4.37 6.88-.38.57-2.42-1.7.36-.5 4.3-6.78 1.46-2.5zm10.9-20.85l-1.6 3.73-3.6 6.85-2.6-1.37 3.52-6.75 1.6-3.63zm4.7-10.7l-2.72-1.2 3.33-7.6h3.2zm32.96-74.82l-4.3 9.16-.62 1.4-2.7-1.18.63-1.44 4.32-9.2zm10.34-20.88l-4.93 9.4-.43.9-2.67-1.25.45-.96 4.96-9.46zm8.54-15.23l-2.92 5.06-2.56-1.47 2.93-5.06z" stroke="#979ea8" stroke-width=".05" fill="#979ea8"/><path d="M-93.5-163.38l1.2.88-.7 1.18-2.55-1.48 2.05-3.53z" fill="#979ea8"/><path stroke="#979ea8" stroke-width=".05" fill="#979ea8"/><path d="M-239.07 43.1l-14.6-3.48 13.86-5.75z" fill="#979ea8"/><path d="M-237.44 45.02l-20.98-5.03 19.92-8.27zm-11.46-5.78l8.2 1.96-.42-5.2zM-161.46 217.86l-2.95.04-.1-6.14 2.96-.03zm-.24-18.4l-2.95.03-.16-12.28 2.94-.04zm-.32-24.56l-2.95.04-.16-12.27 2.95-.04zm-.32-24.55l-2.95.04-.15-12.28 2.95-.04zm-.32-24.54l-2.95.05-.17-12.28 2.95-.04zm-.25-36.75l-.17 5.36.1 6.86-2.96.04-.1-6.9.17-5.44zm.7-24.54l-.36 12.28-2.95-.1.34-12.26zm1.64-24.42l-.87 12.24-2.95-.2.88-12.25zm2.9-24.25l-.63 4.03-.9 8.08-2.94-.34.93-8.13.63-4.1zm4.24-24.12l-2.1 10.42-.23 1.58-2.92-.46.26-1.64 2.1-10.47zm5.54-23.77l-.12.42-2.8 11.44-2.86-.7 2.8-11.5.15-.5zm7.1-23.44l-2.25 6.68-1.44 4.96-2.83-.82 1.45-5.02 2.26-6.74zm28-67.85l-5.2 10.8h-.66l-2.12-1.02 5.34-11.06zm11.18-21.78l-5.8 10.82-2.6-1.4 5.8-10.83zm8.7-16.24l-2.9 5.4-2.6-1.38 2.9-5.4z" stroke="#979ea8" stroke-width=".05" fill="#979ea8"/><path d="M-93.5-163.38l1.2.88-.63 1.17-2.6-1.4 2.03-3.78z" fill="#979ea8"/><path stroke="#979ea8" stroke-width=".05" fill="#979ea8"/><path d="M-162.73 233.65l-4.82-14.2 9.27-.13z" fill="#979ea8"/><path d="M-162.67 238.42L-169.6 218l13.33-.18zm-2.83-17.53l2.7 7.97 2.5-8.05z" stroke="#979ea8" stroke-width=".05" fill="#979ea8"/><use xlink:href="#B" transform="matrix(1,0,0,1,-178.07089136339877,-112.55047097527566) translate(0.005000000000002558 17.77777777777778)"/><use xlink:href="#C" transform="matrix(1,0,0,1,-178.07089136339877,-112.55047097527566) translate(19.72722222222223 44.44444444444444)"/><path d="M-24.83-321.4l1.14.3 1.1.44 1 .6.9.77.75.9.6 1 .46 1.1.3 1.13.08 1.1v47.44h-2.96v-47.3l-.05-.78-.17-.7-.27-.65-.37-.6-.46-.55-.54-.46-.6-.37-.66-.27-.7-.16-.76-.06H-440.5v-2.96h414.56zm-585.72 2.88h-123.4l-.76.06-.7.16-.65.27-.6.37-.55.46-.46.54-.37.6-.27.66-.17.7-.05.76v36.77h-2.96v-36.9l.1-1.1.27-1.14.44-1.1.6-1 .77-.9.9-.75 1-.6 1.1-.46 1.13-.3 1.1-.08h123.52z" stroke="#979ea8" stroke-width=".05" fill="#979ea8"/><path d="M-18.52-265.13h-2.96v-1.54h2.96z" fill="#979ea8"/><path stroke="#979ea8" stroke-width=".05" fill="#979ea8"/><path d="M-740-261.4l-4.63-14.27h9.26z" fill="#979ea8"/><path d="M-740-256.63l-6.66-20.5h13.32zm-2.6-17.56l2.6 8.02 2.6-8z" stroke="#979ea8" stroke-width=".05" fill="#979ea8"/><path d="M-610.55-318.52h-303.4l-.76.06-.7.16-.65.27-.6.37-.55.46-.46.54-.37.6-.27.66-.17.7-.05.76V33.94l.05.77.17.7.27.65.37.6.46.55.54.46.6.37.66.27.7.17.76.05h45.37v2.95h-45.5l-1.1-.08-1.14-.3-1.1-.44-1-.6-.9-.77-.75-.9-.6-1-.46-1.1-.3-1.13-.08-1.1v-348.13l.1-1.1.27-1.15.44-1.1.6-1 .77-.9.9-.75 1-.6 1.1-.46 1.13-.3 1.1-.08h303.52zm585.72-2.87l1.14.3 1.1.44 1 .6.9.77.75.9.6 1 .46 1.1.3 1.13.08 1.1v47.44h-2.96v-47.3l-.05-.78-.17-.7-.27-.65-.37-.6-.46-.55-.54-.46-.6-.37-.66-.27-.7-.16-.76-.06H-440.5v-2.96h414.56z" stroke="#979ea8" stroke-width=".05" fill="#979ea8"/><path d="M-18.52-265.13h-2.96v-1.54h2.96z" fill="#979ea8"/><path stroke="#979ea8" stroke-width=".05" fill="#979ea8"/><path d="M-852.8 40l-14.27 4.63v-9.27z" fill="#979ea8"/><path d="M-848.03 40l-20.5 6.66V33.34zm-17.56 2.6l8.03-2.6-8.02-2.6z" stroke="#979ea8" stroke-width=".05" fill="#979ea8"/><g><use xlink:href="#D" transform="matrix(1,0,0,1,-610.5537617679626,-333.3333333333333) translate(0 17.77777777777778)"/><use xlink:href="#E" transform="matrix(1,0,0,1,-610.5537617679626,-333.3333333333333) translate(60.370370370370374 17.77777777777778)"/><use xlink:href="#F" transform="matrix(1,0,0,1,-610.5537617679626,-333.3333333333333) translate(97.40740740740742 17.77777777777778)"/></g><path d="M-340.05 103l-.03.54-.1 1-.16 1-.2.98-.22 1-.28.98-.32 1-.38 1.02-.44 1.04-.5 1.05-.55 1.08-.64 1.1-.73 1.15-.82 1.18-.93 1.24-1.06 1.28-1.23 1.35-1.4 1.43-1.6 1.5-1.9 1.63-2.2 1.74-2.6 1.9-3.1 2.05-3.75 2.27-4.6 2.52-5.8 2.86-7.38 3.3-9.78 3.85-13.5 4.68-20.1 6.04-35.23 8.95-172.1 38.56-20.08 6.03-13.5 4.67-9.78 3.86-7.4 3.3-5.78 2.85-4.62 2.53-3.76 2.28-3.1 2.06-2.6 1.9-2.2 1.73-1.88 1.62-1.6 1.5-1.4 1.43-.82.9" stroke="#979ea8" stroke-width="3" stroke-linejoin="round" fill="none"/><path d="M-338.56 103.07l-2.95-.06.02-1.5h2.96z" stroke="#979ea8" stroke-width=".05" fill="#979ea8"/><path d="M-718.12 255.03l1.27-14.95 8.54 3.6z" stroke="#979ea8" stroke-width="3" fill="#979ea8"/><path d="M-340.03 103l-.02.94-.15 2.34-.24 2.27-.32 2.2-.4 2.16-.5 2.12-.6 2.08-.66 2.06-.76 2.04-.86 2.04-.96 2.05-1.07 2.05-1.2 2.08-1.35 2.1-1.5 2.18-1.7 2.23-1.9 2.3-2.15 2.4-2.47 2.5-2.84 2.67-3.32 2.86-3.94 3.13-4.8 3.47-6.06 4.02-8.22 4.95-13.44 7.35-48.52 25.15-8.22 4.96-6.06 4.03-4.8 3.5-3.94 3.1-3.32 2.87-2.84 2.67-2.47 2.5-2.16 2.4-1.9 2.3-1.68 2.22-1.5 2.16-1.34 2.1-1.2 2.1-1.08 2.05-.96 2.06-.68 1.62" stroke="#979ea8" stroke-width="3" stroke-linejoin="round" fill="none"/><path d="M-338.56 103.07l-2.95-.06.02-1.5h2.96z" stroke="#979ea8" stroke-width=".05" fill="#979ea8"/><path d="M-497.1 254.73l-1.85-14.88 9.1 1.74z" stroke="#979ea8" stroke-width="3" fill="#979ea8"/><path d="M-339.97 103l.1 4.7.35 5.62.54 5.15.7 4.78.86 4.47 1 4.24 1.12 4.05 1.28 3.93 1.43 3.85 1.62 3.83 1.82 3.9 2.1 4.02 2.52 4.34 3.17 5 4.72 6.75 18.02 24.55 3.17 5 2.5 4.33 2.12 4.03 1.82 3.9 1.6 3.82 1.44 3.85 1.28 3.92 1.13 4.04 1 4.24.85 4.47.17 1.2" stroke="#979ea8" stroke-width="3" stroke-linejoin="round" fill="none"/><path d="M-338.5 103l-2.94.07-.04-1.57h2.96z" stroke="#979ea8" stroke-width=".05" fill="#979ea8"/><path d="M-280.36 254.66l-5.7-13.88 9.25-.7z" stroke="#979ea8" stroke-width="3" fill="#979ea8"/><path d="M-339.96 103l.07 1.25.15 1.33.2 1.32.25 1.3.3 1.3.37 1.3.42 1.32.48 1.3.56 1.34.63 1.34.72 1.38.8 1.4.9 1.43 1.04 1.5 1.17 1.53 1.33 1.6 1.5 1.66 1.72 1.74 1.97 1.85 2.3 1.97 2.66 2.1 3.15 2.3 3.75 2.5 4.55 2.74 5.6 3.08 7.08 3.5 9.28 4.12 12.8 5.06 19.83 6.86 128.6 39.02 12.82 5.06 9.27 4.1 7.07 3.52 5.6 3.07 4.55 2.74 3.75 2.5 3.15 2.28 2.67 2.1 2.28 1.98 1.97 1.86 1.72 1.75 1.5 1.68 1.33 1.6 1.16 1.53.68 1" stroke="#979ea8" stroke-width="3" stroke-linejoin="round" fill="none"/><path d="M-338.5 103l-2.94.07-.04-1.57h2.96z" stroke="#979ea8" stroke-width=".05" fill="#979ea8"/><path d="M-61.5 254.88l-8.8-12.14 8.8-2.86z" stroke="#979ea8" stroke-width="3" fill="#979ea8"/><path d="M-487.5 151.83a6 6 0 0 1 6-6h283a6 6 0 0 1 6 6v38a6 6 0 0 1-6 6h-283a6 6 0 0 1-6-6z" fill="#cfe4ff"/><path d="M-483.8 146.3l.45-.17.9-.22.95-.07h2.02m4.04 0h4.05m4.05 0h4.04m4.04 0h4.04m4.04 0h4.04m4.05 0h4.05m4.04 0h4.04m4.04 0h4.04m4.04 0h4.05m4.05 0h4.04m4.04 0h4.04m4.04 0h4.04m4.05 0h4.05m4.04 0h4.04m4.04 0h4.04m4.04 0h4.05m4.05 0h4.04m4.04 0h4.04m4.04 0h4.04m4.05 0h4.05m4.04 0h4.04m4.04 0h4.04m4.04 0h4.05m4.05 0h4.04m4.04 0h4.04m4.04 0h4.04m4.05 0h4.05m4.04 0h4.04m4.04 0h4.04m4.04 0h4.05m4.05 0h4.04m4.04 0h4.04m4.04 0h4.04m4.05 0h4.05m4.04 0h4.04m4.04 0h2.02l.94.08.9.23.45.18m3.23 3.24l.18.44.23.92.07.93v1.9m0 3.8v3.8m0 3.8v3.8m0 3.8v3.8m0 3.8v3.8m0 3.8v1.9l-.07.94-.22.92-.17.42m-3.24 3.24l-.45.18-.9.22-.95.07h-2.02m-4.04 0h-4.05m-4.05 0h-4.04m-4.04 0h-4.04m-4.04 0h-4.04m-4.05 0h-4.05m-4.04 0h-4.04m-4.04 0h-4.04m-4.04 0h-4.05m-4.05 0h-4.04m-4.04 0h-4.04m-4.04 0h-4.04m-4.05 0h-4.05m-4.04 0h-4.04m-4.04 0h-4.04m-4.04 0h-4.05m-4.05 0h-4.04m-4.04 0h-4.04m-4.04 0h-4.04m-4.05 0h-4.05m-4.04 0h-4.04m-4.04 0h-4.04m-4.04 0h-4.05m-4.05 0h-4.04m-4.04 0h-4.04m-4.04 0h-4.04m-4.05 0h-4.05m-4.04 0h-4.04m-4.04 0h-4.04m-4.04 0H-435m-4.05 0h-4.04m-4.04 0h-4.04m-4.04 0h-4.04m-4.05 0h-4.05m-4.04 0h-4.04m-4.04 0h-2.02l-.94-.07-.9-.22-.45-.18m-3.23-3.24l-.18-.43-.23-.93-.07-.94v-1.9m0-3.8v-3.8m0-3.8v-3.8m0-3.8v-3.8m0-3.8v-3.8m0-3.8v-1.9l.07-.94.22-.92.17-.44" stroke="#979ea8" fill="none"/><g><use xlink:href="#G" transform="matrix(1,0,0,1,-475.5,157.83333333333331) translate(1.117283950617292 19.40277777777778)"/><use xlink:href="#H" transform="matrix(1,0,0,1,-475.5,157.83333333333331) translate(51.67283950617284 19.40277777777778)"/><use xlink:href="#I" transform="matrix(1,0,0,1,-475.5,157.83333333333331) translate(76.3641975308642 19.40277777777778)"/><use xlink:href="#J" transform="matrix(1,0,0,1,-475.5,157.83333333333331) translate(131.7962962962963 19.40277777777778)"/><use xlink:href="#K" transform="matrix(1,0,0,1,-475.5,157.83333333333331) translate(161.42592592592592 19.40277777777778)"/></g><defs><path fill="#fff" d="M67-125c0 53 21 87 73 88 37 1 54-22 65-47l45 17C233-25 199 4 140 4 58 4 20-42 15-125 8-235 124-281 211-232c18 10 29 29 36 50l-46 12c-8-25-30-41-62-41-52 0-71 34-72 86" id="L"/><path fill="#fff" d="M110-194c64 0 96 36 96 99 0 64-35 99-97 99-61 0-95-36-95-99 0-62 34-99 96-99zm-1 164c35 0 45-28 45-65 0-40-10-65-43-65-34 0-45 26-45 65 0 36 10 65 43 65" id="M"/><path fill="#fff" d="M135-194c53 0 70 44 70 98 0 56-19 98-73 100-31 1-45-17-59-34 3 33 2 69 2 105H25l-1-265h48c2 10 0 23 3 31 11-24 29-35 60-35zM114-30c33 0 39-31 40-66 0-38-9-64-40-64-56 0-55 130 0 130" id="N"/><path fill="#fff" d="M123 10C108 53 80 86 19 72V37c35 8 53-11 59-39L3-190h52l48 148c12-52 28-100 44-148h51" id="O"/><path fill="#fff" d="M135-150c-39-12-60 13-60 57V0H25l-1-190h47c2 13-1 29 3 40 6-28 27-53 61-41v41" id="P"/><path fill="#fff" d="M25-224v-37h50v37H25zM25 0v-190h50V0H25" id="Q"/><path fill="#fff" d="M195-6C206 82 75 100 31 46c-4-6-6-13-8-21l49-6c3 16 16 24 34 25 40 0 42-37 40-79-11 22-30 35-61 35-53 0-70-43-70-97 0-56 18-96 73-97 30 0 46 14 59 34l2-30h47zm-90-29c32 0 41-27 41-63 0-35-9-62-40-62-32 0-39 29-40 63 0 36 9 62 39 62" id="R"/><path fill="#fff" d="M114-157C55-157 80-60 75 0H25v-261h50l-1 109c12-26 28-41 61-42 86-1 58 113 63 194h-50c-7-57 23-157-34-157" id="S"/><path fill="#fff" d="M115-3C79 11 28 4 28-45v-112H4v-33h27l15-45h31v45h36v33H77v99c-1 23 16 31 38 25v30" id="T"/><path fill="#fff" d="M33-154v-36h34v36H33zM33 0v-36h34V0H33" id="U"/><g id="a"><use transform="matrix(0.03703703703703702,0,0,0.03703703703703702,0,0)" xlink:href="#L"/><use transform="matrix(0.03703703703703702,0,0,0.03703703703703702,9.592592592592588,0)" xlink:href="#M"/><use transform="matrix(0.03703703703703702,0,0,0.03703703703703702,17.703703703703695,0)" xlink:href="#N"/><use transform="matrix(0.03703703703703702,0,0,0.03703703703703702,25.814814814814802,0)" xlink:href="#O"/><use transform="matrix(0.03703703703703702,0,0,0.03703703703703702,33.22222222222221,0)" xlink:href="#P"/><use transform="matrix(0.03703703703703702,0,0,0.03703703703703702,38.40740740740739,0)" xlink:href="#Q"/><use transform="matrix(0.03703703703703702,0,0,0.03703703703703702,42.11111111111109,0)" xlink:href="#R"/><use transform="matrix(0.03703703703703702,0,0,0.03703703703703702,50.2222222222222,0)" xlink:href="#S"/><use transform="matrix(0.03703703703703702,0,0,0.03703703703703702,58.33333333333331,0)" xlink:href="#T"/><use transform="matrix(0.03703703703703702,0,0,0.03703703703703702,62.74074074074071,0)" xlink:href="#U"/></g><path fill="#fff" d="M85-194c31 0 48 13 60 33l-1-100h32l1 261h-30c-2-10 0-23-3-31C134-8 116 4 85 4 32 4 16-35 15-94c0-66 23-100 70-100zm9 24c-40 0-46 34-46 75 0 40 6 74 45 74 42 0 51-32 51-76 0-42-9-74-50-73" id="V"/><path fill="#fff" d="M100-194c62-1 85 37 85 99 1 63-27 99-86 99S16-35 15-95c0-66 28-99 85-99zM99-20c44 1 53-31 53-75 0-43-8-75-51-75s-53 32-53 75 10 74 51 75" id="W"/><path fill="#fff" d="M96-169c-40 0-48 33-48 73s9 75 48 75c24 0 41-14 43-38l32 2c-6 37-31 61-74 61-59 0-76-41-82-99-10-93 101-131 147-64 4 7 5 14 7 22l-32 3c-4-21-16-35-41-35" id="X"/><path fill="#fff" d="M135-143c-3-34-86-38-87 0 15 53 115 12 119 90S17 21 10-45l28-5c4 36 97 45 98 0-10-56-113-15-118-90-4-57 82-63 122-42 12 7 21 19 24 35" id="Y"/><path fill="#fff" d="M33 0v-38h34V0H33" id="Z"/><path fill="#fff" d="M16-82v-28h88v28H16" id="aa"/><path fill="#fff" d="M141 0L90-78 38 0H4l68-98-65-92h35l48 74 47-74h35l-64 92 68 98h-35" id="ab"/><path fill="#fff" d="M24 0v-261h32V0H24" id="ac"/><path fill="#fff" d="M210-169c-67 3-38 105-44 169h-31v-121c0-29-5-50-35-48C34-165 62-65 56 0H25l-1-190h30c1 10-1 24 2 32 10-44 99-50 107 0 11-21 27-35 58-36 85-2 47 119 55 194h-31v-121c0-29-5-49-35-48" id="ad"/><g id="b"><use transform="matrix(0.03703703703703702,0,0,0.03703703703703702,0,0)" xlink:href="#V"/><use transform="matrix(0.03703703703703702,0,0,0.03703703703703702,7.407407407407404,0)" xlink:href="#W"/><use transform="matrix(0.03703703703703702,0,0,0.03703703703703702,14.814814814814808,0)" xlink:href="#X"/><use transform="matrix(0.03703703703703702,0,0,0.03703703703703702,21.481481481481474,0)" xlink:href="#Y"/><use transform="matrix(0.03703703703703702,0,0,0.03703703703703702,28.148148148148135,0)" xlink:href="#Z"/><use transform="matrix(0.03703703703703702,0,0,0.03703703703703702,31.851851851851837,0)" xlink:href="#W"/><use transform="matrix(0.03703703703703702,0,0,0.03703703703703702,39.259259259259245,0)" xlink:href="#aa"/><use transform="matrix(0.03703703703703702,0,0,0.03703703703703702,43.66666666666664,0)" xlink:href="#ab"/><use transform="matrix(0.03703703703703702,0,0,0.03703703703703702,50.3333333333333,0)" xlink:href="#aa"/><use transform="matrix(0.03703703703703702,0,0,0.03703703703703702,54.74074074074071,0)" xlink:href="#ac"/><use transform="matrix(0.03703703703703702,0,0,0.03703703703703702,57.666666666666636,0)" xlink:href="#Z"/><use transform="matrix(0.03703703703703702,0,0,0.03703703703703702,61.37037037037034,0)" xlink:href="#X"/><use transform="matrix(0.03703703703703702,0,0,0.03703703703703702,68.037037037037,0)" xlink:href="#W"/><use transform="matrix(0.03703703703703702,0,0,0.03703703703703702,75.4444444444444,0)" xlink:href="#ad"/></g><path fill="#3a414a" d="M24-248c120-7 223 5 221 122C244-46 201 0 124 0H24v-248zM76-40c74 7 117-18 117-86 0-67-45-88-117-82v168" id="ae"/><path fill="#3a414a" d="M185-48c-13 30-37 53-82 52C43 2 14-33 14-96s30-98 90-98c62 0 83 45 84 108H66c0 31 8 55 39 56 18 0 30-7 34-22zm-45-69c5-46-57-63-70-21-2 6-4 13-4 21h74" id="af"/><path fill="#3a414a" d="M128 0H69L1-190h53L99-40l48-150h52" id="ag"/><path fill="#3a414a" d="M25-224v-37h50v37H25zM25 0v-190h50V0H25" id="ah"/><path fill="#3a414a" d="M190-63c-7 42-38 67-86 67-59 0-84-38-90-98-12-110 154-137 174-36l-49 2c-2-19-15-32-35-32-30 0-35 28-38 64-6 74 65 87 74 30" id="ai"/><path fill="#3a414a" d="M137-138c1-29-70-34-71-4 15 46 118 7 119 86 1 83-164 76-172 9l43-7c4 19 20 25 44 25 33 8 57-30 24-41C81-84 22-81 20-136c-2-80 154-74 161-7" id="aj"/><path fill="#3a414a" d="M76-54c-1 42 2 86-19 110H24C36 42 46 24 48 0H25v-54h51" id="ak"/><g id="c"><use transform="matrix(0.06172839506172839,0,0,0.06172839506172839,0,0)" xlink:href="#ae"/><use transform="matrix(0.06172839506172839,0,0,0.06172839506172839,15.987654320987653,0)" xlink:href="#af"/><use transform="matrix(0.06172839506172839,0,0,0.06172839506172839,28.333333333333332,0)" xlink:href="#ag"/><use transform="matrix(0.06172839506172839,0,0,0.06172839506172839,40.67901234567901,0)" xlink:href="#ah"/><use transform="matrix(0.06172839506172839,0,0,0.06172839506172839,46.851851851851855,0)" xlink:href="#ai"/><use transform="matrix(0.06172839506172839,0,0,0.06172839506172839,59.19753086419753,0)" xlink:href="#af"/><use transform="matrix(0.06172839506172839,0,0,0.06172839506172839,71.54320987654322,0)" xlink:href="#aj"/><use transform="matrix(0.06172839506172839,0,0,0.06172839506172839,83.8888888888889,0)" xlink:href="#ak"/></g><path fill="#3a414a" d="M169-182c-1-43-94-46-97-3 18 66 151 10 154 114 3 95-165 93-204 36-6-8-10-19-12-30l50-8c3 46 112 56 116 5-17-69-150-10-154-114-4-87 153-88 188-35 5 8 8 18 10 28" id="al"/><path fill="#3a414a" d="M135-150c-39-12-60 13-60 57V0H25l-1-190h47c2 13-1 29 3 40 6-28 27-53 61-41v41" id="am"/><g id="d"><use transform="matrix(0.06172839506172839,0,0,0.06172839506172839,0,0)" xlink:href="#al"/><use transform="matrix(0.06172839506172839,0,0,0.06172839506172839,14.814814814814813,0)" xlink:href="#af"/><use transform="matrix(0.06172839506172839,0,0,0.06172839506172839,27.160493827160494,0)" xlink:href="#am"/><use transform="matrix(0.06172839506172839,0,0,0.06172839506172839,35.80246913580247,0)" xlink:href="#ag"/><use transform="matrix(0.06172839506172839,0,0,0.06172839506172839,48.148148148148145,0)" xlink:href="#af"/><use transform="matrix(0.06172839506172839,0,0,0.06172839506172839,60.49382716049382,0)" xlink:href="#am"/><use transform="matrix(0.06172839506172839,0,0,0.06172839506172839,69.1358024691358,0)" xlink:href="#aj"/><use transform="matrix(0.06172839506172839,0,0,0.06172839506172839,81.48148148148148,0)" xlink:href="#ak"/></g><path fill="#3a414a" d="M238-95c0 69-44 99-111 99C63 4 22-25 22-93v-155h51v151c-1 38 19 59 55 60 90 1 49-130 58-211h52v153" id="an"/><g id="e"><use transform="matrix(0.06172839506172839,0,0,0.06172839506172839,0,0)" xlink:href="#an"/><use transform="matrix(0.06172839506172839,0,0,0.06172839506172839,15.987654320987653,0)" xlink:href="#aj"/><use transform="matrix(0.06172839506172839,0,0,0.06172839506172839,28.333333333333332,0)" xlink:href="#af"/><use transform="matrix(0.06172839506172839,0,0,0.06172839506172839,40.67901234567901,0)" xlink:href="#am"/><use transform="matrix(0.06172839506172839,0,0,0.06172839506172839,49.32098765432099,0)" xlink:href="#aj"/></g><path fill="#3a414a" d="M67-125c0 53 21 87 73 88 37 1 54-22 65-47l45 17C233-25 199 4 140 4 58 4 20-42 15-125 8-235 124-281 211-232c18 10 29 29 36 50l-46 12c-8-25-30-41-62-41-52 0-71 34-72 86" id="ao"/><path fill="#3a414a" d="M100-194c63 0 86 42 84 106H49c0 40 14 67 53 68 26 1 43-12 49-29l28 8c-11 28-37 45-77 45C44 4 14-33 15-96c1-61 26-98 85-98zm52 81c6-60-76-77-97-28-3 7-6 17-6 28h103" id="ap"/><path fill="#3a414a" d="M114-163C36-179 61-72 57 0H25l-1-190h30c1 12-1 29 2 39 6-27 23-49 58-41v29" id="aq"/><path fill="#3a414a" d="M59-47c-2 24 18 29 38 22v24C64 9 27 4 27-40v-127H5v-23h24l9-43h21v43h35v23H59v120" id="ar"/><path fill="#3a414a" d="M24-231v-30h32v30H24zM24 0v-190h32V0H24" id="as"/><path fill="#3a414a" d="M101-234c-31-9-42 10-38 44h38v23H63V0H32v-167H5v-23h27c-7-52 17-82 69-68v24" id="at"/><path fill="#3a414a" d="M96-169c-40 0-48 33-48 73s9 75 48 75c24 0 41-14 43-38l32 2c-6 37-31 61-74 61-59 0-76-41-82-99-10-93 101-131 147-64 4 7 5 14 7 22l-32 3c-4-21-16-35-41-35" id="au"/><path fill="#3a414a" d="M141-36C126-15 110 5 73 4 37 3 15-17 15-53c-1-64 63-63 125-63 3-35-9-54-41-54-24 1-41 7-42 31l-33-3c5-37 33-52 76-52 45 0 72 20 72 64v82c-1 20 7 32 28 27v20c-31 9-61-2-59-35zM48-53c0 20 12 33 32 33 41-3 63-29 60-74-43 2-92-5-92 41" id="av"/><g id="f"><use transform="matrix(0.06172839506172839,0,0,0.06172839506172839,0,0)" xlink:href="#ao"/><use transform="matrix(0.06172839506172839,0,0,0.06172839506172839,15.987654320987653,0)" xlink:href="#ap"/><use transform="matrix(0.06172839506172839,0,0,0.06172839506172839,28.333333333333332,0)" xlink:href="#aq"/><use transform="matrix(0.06172839506172839,0,0,0.06172839506172839,35.67901234567901,0)" xlink:href="#ar"/><use transform="matrix(0.06172839506172839,0,0,0.06172839506172839,41.851851851851855,0)" xlink:href="#as"/><use transform="matrix(0.06172839506172839,0,0,0.06172839506172839,46.7283950617284,0)" xlink:href="#at"/><use transform="matrix(0.06172839506172839,0,0,0.06172839506172839,52.90123456790124,0)" xlink:href="#as"/><use transform="matrix(0.06172839506172839,0,0,0.06172839506172839,57.777777777777786,0)" xlink:href="#au"/><use transform="matrix(0.06172839506172839,0,0,0.06172839506172839,68.8888888888889,0)" xlink:href="#av"/><use transform="matrix(0.06172839506172839,0,0,0.06172839506172839,81.23456790123458,0)" xlink:href="#ar"/><use transform="matrix(0.06172839506172839,0,0,0.06172839506172839,87.40740740740742,0)" xlink:href="#ap"/></g><path fill="#3a414a" d="M199 0l-22-63H83L61 0H9l90-248h61L250 0h-51zm-33-102l-36-108c-10 38-24 72-36 108h72" id="aw"/><path fill="#3a414a" d="M84 4C-5 8 30-112 23-190h32v120c0 31 7 50 39 49 72-2 45-101 50-169h31l1 190h-30c-1-10 1-25-2-33-11 22-28 36-60 37" id="ax"/><path fill="#3a414a" d="M106-169C34-169 62-67 57 0H25v-261h32l-1 103c12-21 28-36 61-36 89 0 53 116 60 194h-32v-121c2-32-8-49-39-48" id="ay"/><path fill="#3a414a" d="M100-194c62-1 85 37 85 99 1 63-27 99-86 99S16-35 15-95c0-66 28-99 85-99zM99-20c44 1 53-31 53-75 0-43-8-75-51-75s-53 32-53 75 10 74 51 75" id="az"/><path fill="#3a414a" d="M179-190L93 31C79 59 56 82 12 73V49c39 6 53-20 64-50L1-190h34L92-34l54-156h33" id="aA"/><g id="g"><use transform="matrix(0.06172839506172839,0,0,0.06172839506172839,0,0)" xlink:href="#aw"/><use transform="matrix(0.06172839506172839,0,0,0.06172839506172839,15.987654320987653,0)" xlink:href="#ax"/><use transform="matrix(0.06172839506172839,0,0,0.06172839506172839,28.333333333333332,0)" xlink:href="#ar"/><use transform="matrix(0.06172839506172839,0,0,0.06172839506172839,34.50617283950617,0)" xlink:href="#ay"/><use transform="matrix(0.06172839506172839,0,0,0.06172839506172839,46.85185185185185,0)" xlink:href="#az"/><use transform="matrix(0.06172839506172839,0,0,0.06172839506172839,59.197530864197525,0)" xlink:href="#aq"/><use transform="matrix(0.06172839506172839,0,0,0.06172839506172839,66.5432098765432,0)" xlink:href="#as"/><use transform="matrix(0.06172839506172839,0,0,0.06172839506172839,71.41975308641975,0)" xlink:href="#ar"/><use transform="matrix(0.06172839506172839,0,0,0.06172839506172839,77.59259259259258,0)" xlink:href="#aA"/></g><path fill="#3a414a" d="M87 75C49 33 22-17 22-94c0-76 28-126 65-167h31c-38 41-64 92-64 168S80 34 118 75H87" id="aB"/><path fill="#3a414a" d="M30-147c31-64 166-65 159 27C183-49 158 1 86 4 9 8 1-88 30-147zM88-20c53 0 68-48 68-100 0-31-11-51-44-50-52 1-68 46-68 97 0 32 13 53 44 53" id="aC"/><path fill="#3a414a" d="M76-167L44 0H12l33-167H18l4-23h27c3-47 25-81 82-69l-4 24c-35-8-44 15-46 45h37l-5 23H76" id="aD"/><path fill="#3a414a" d="M6 0l50-261h32L37 0H6" id="aE"/><path fill="#3a414a" d="M50-231l6-30h32l-6 30H50zM6 0l37-190h31L37 0H6" id="aF"/><path fill="#3a414a" d="M67-158c22-48 132-52 116 29L158 0h-32l25-140c3-38-53-32-70-12C52-117 51-52 38 0H6l36-190h30" id="aG"/><path fill="#3a414a" d="M111-194c62-3 86 47 72 106H45c-7 38 6 69 45 68 27-1 43-14 53-32l24 11C152-15 129 4 87 4 38 3 12-23 12-71c0-70 32-119 99-123zm44 81c14-66-71-72-95-28-4 8-8 17-11 28h106" id="aH"/><path fill="#3a414a" d="M33-261c38 41 65 92 65 168S71 34 33 75H2C39 34 66-17 66-93S39-220 2-261h31" id="aI"/><g id="h"><use transform="matrix(0.06172839506172839,0,0,0.06172839506172839,0,0)" xlink:href="#aB"/><use transform="matrix(0.06172839506172839,0,0,0.06172839506172839,7.345679012345679,0)" xlink:href="#aC"/><use transform="matrix(0.06172839506172839,0,0,0.06172839506172839,19.691358024691358,0)" xlink:href="#aD"/><use transform="matrix(0.06172839506172839,0,0,0.06172839506172839,25.864197530864196,0)" xlink:href="#aD"/><use transform="matrix(0.06172839506172839,0,0,0.06172839506172839,32.03703703703704,0)" xlink:href="#aE"/><use transform="matrix(0.06172839506172839,0,0,0.06172839506172839,36.91358024691358,0)" xlink:href="#aF"/><use transform="matrix(0.06172839506172839,0,0,0.06172839506172839,41.79012345679013,0)" xlink:href="#aG"/><use transform="matrix(0.06172839506172839,0,0,0.06172839506172839,54.135802469135804,0)" xlink:href="#aH"/><use transform="matrix(0.06172839506172839,0,0,0.06172839506172839,66.48148148148148,0)" xlink:href="#aI"/></g><path fill="#3a414a" d="M240-174c0 40-23 61-54 70L253 0h-59l-57-94H76V0H24v-248c93 4 217-23 216 74zM76-134c48-2 112 12 112-38 0-48-66-32-112-35v73" id="aJ"/><path fill="#3a414a" d="M108 0H70L1-190h34L89-25l56-165h34" id="aK"/><path fill="#3a414a" d="M117-194c89-4 53 116 60 194h-32v-121c0-31-8-49-39-48C34-167 62-67 57 0H25l-1-190h30c1 10-1 24 2 32 11-22 29-35 61-36" id="aL"/><g id="i"><use transform="matrix(0.06172839506172839,0,0,0.06172839506172839,0,0)" xlink:href="#aJ"/><use transform="matrix(0.06172839506172839,0,0,0.06172839506172839,15.987654320987653,0)" xlink:href="#ap"/><use transform="matrix(0.06172839506172839,0,0,0.06172839506172839,28.333333333333332,0)" xlink:href="#aK"/><use transform="matrix(0.06172839506172839,0,0,0.06172839506172839,39.44444444444444,0)" xlink:href="#az"/><use transform="matrix(0.06172839506172839,0,0,0.06172839506172839,51.79012345679012,0)" xlink:href="#au"/><use transform="matrix(0.06172839506172839,0,0,0.06172839506172839,62.90123456790123,0)" xlink:href="#av"/><use transform="matrix(0.06172839506172839,0,0,0.06172839506172839,75.24691358024691,0)" xlink:href="#ar"/><use transform="matrix(0.06172839506172839,0,0,0.06172839506172839,81.41975308641975,0)" xlink:href="#as"/><use transform="matrix(0.06172839506172839,0,0,0.06172839506172839,86.29629629629629,0)" xlink:href="#az"/><use transform="matrix(0.06172839506172839,0,0,0.06172839506172839,98.64197530864197,0)" xlink:href="#aL"/></g><path fill="#3a414a" d="M24 0v-248h52v208h133V0H24" id="aM"/><path fill="#3a414a" d="M135-143c-3-34-86-38-87 0 15 53 115 12 119 90S17 21 10-45l28-5c4 36 97 45 98 0-10-56-113-15-118-90-4-57 82-63 122-42 12 7 21 19 24 35" id="aN"/><g id="j"><use transform="matrix(0.06172839506172839,0,0,0.06172839506172839,0,0)" xlink:href="#aM"/><use transform="matrix(0.06172839506172839,0,0,0.06172839506172839,13.518518518518517,0)" xlink:href="#as"/><use transform="matrix(0.06172839506172839,0,0,0.06172839506172839,18.39506172839506,0)" xlink:href="#aN"/><use transform="matrix(0.06172839506172839,0,0,0.06172839506172839,29.50617283950617,0)" xlink:href="#ar"/></g><path fill="#3a414a" d="M85 4C-2 5 27-109 22-190h50c7 57-23 150 33 157 60-5 35-97 40-157h50l1 190h-47c-2-12 1-28-3-38-12 25-28 42-61 42" id="aO"/><path fill="#3a414a" d="M135-194c52 0 70 43 70 98 0 56-19 99-73 100-30 1-46-15-58-35L72 0H24l1-261h50v104c11-23 29-37 60-37zM114-30c31 0 40-27 40-66 0-37-7-63-39-63s-41 28-41 65c0 36 8 64 40 64" id="aP"/><path fill="#3a414a" d="M85-194c31 0 48 13 60 33l-1-100h32l1 261h-30c-2-10 0-23-3-31C134-8 116 4 85 4 32 4 16-35 15-94c0-66 23-100 70-100zm9 24c-40 0-46 34-46 75 0 40 6 74 45 74 42 0 51-32 51-76 0-42-9-74-50-73" id="aQ"/><g id="k"><use transform="matrix(0.06172839506172839,0,0,0.06172839506172839,0,0)" xlink:href="#al"/><use transform="matrix(0.06172839506172839,0,0,0.06172839506172839,14.814814814814813,0)" xlink:href="#aO"/><use transform="matrix(0.06172839506172839,0,0,0.06172839506172839,28.33333333333333,0)" xlink:href="#aP"/><use transform="matrix(0.06172839506172839,0,0,0.06172839506172839,41.85185185185185,0)" xlink:href="#az"/><use transform="matrix(0.06172839506172839,0,0,0.06172839506172839,54.197530864197525,0)" xlink:href="#aq"/><use transform="matrix(0.06172839506172839,0,0,0.06172839506172839,61.5432098765432,0)" xlink:href="#aQ"/><use transform="matrix(0.06172839506172839,0,0,0.06172839506172839,73.88888888888889,0)" xlink:href="#as"/><use transform="matrix(0.06172839506172839,0,0,0.06172839506172839,78.76543209876543,0)" xlink:href="#aL"/><use transform="matrix(0.06172839506172839,0,0,0.06172839506172839,91.11111111111111,0)" xlink:href="#av"/><use transform="matrix(0.06172839506172839,0,0,0.06172839506172839,103.4567901234568,0)" xlink:href="#ar"/><use transform="matrix(0.06172839506172839,0,0,0.06172839506172839,109.62962962962963,0)" xlink:href="#ap"/></g><g id="l"><use transform="matrix(0.06172839506172839,0,0,0.06172839506172839,0,0)" xlink:href="#ao"/><use transform="matrix(0.06172839506172839,0,0,0.06172839506172839,15.987654320987653,0)" xlink:href="#ap"/><use transform="matrix(0.06172839506172839,0,0,0.06172839506172839,28.333333333333332,0)" xlink:href="#aq"/><use transform="matrix(0.06172839506172839,0,0,0.06172839506172839,35.67901234567901,0)" xlink:href="#ar"/><use transform="matrix(0.06172839506172839,0,0,0.06172839506172839,41.851851851851855,0)" xlink:href="#as"/><use transform="matrix(0.06172839506172839,0,0,0.06172839506172839,46.7283950617284,0)" xlink:href="#at"/><use transform="matrix(0.06172839506172839,0,0,0.06172839506172839,52.90123456790124,0)" xlink:href="#as"/><use transform="matrix(0.06172839506172839,0,0,0.06172839506172839,57.777777777777786,0)" xlink:href="#au"/><use transform="matrix(0.06172839506172839,0,0,0.06172839506172839,68.8888888888889,0)" xlink:href="#av"/><use transform="matrix(0.06172839506172839,0,0,0.06172839506172839,81.23456790123458,0)" xlink:href="#ar"/><use transform="matrix(0.06172839506172839,0,0,0.06172839506172839,87.40740740740742,0)" xlink:href="#ap"/></g><g id="m"><use transform="matrix(0.06172839506172839,0,0,0.06172839506172839,0,0)" xlink:href="#aw"/><use transform="matrix(0.06172839506172839,0,0,0.06172839506172839,15.987654320987653,0)" xlink:href="#ax"/><use transform="matrix(0.06172839506172839,0,0,0.06172839506172839,28.333333333333332,0)" xlink:href="#ar"/><use transform="matrix(0.06172839506172839,0,0,0.06172839506172839,34.50617283950617,0)" xlink:href="#ay"/><use transform="matrix(0.06172839506172839,0,0,0.06172839506172839,46.85185185185185,0)" xlink:href="#az"/><use transform="matrix(0.06172839506172839,0,0,0.06172839506172839,59.197530864197525,0)" xlink:href="#aq"/><use transform="matrix(0.06172839506172839,0,0,0.06172839506172839,66.5432098765432,0)" xlink:href="#as"/><use transform="matrix(0.06172839506172839,0,0,0.06172839506172839,71.41975308641975,0)" xlink:href="#ar"/><use transform="matrix(0.06172839506172839,0,0,0.06172839506172839,77.59259259259258,0)" xlink:href="#aA"/></g><path fill="#979ea8" d="M169-182c-1-43-94-46-97-3 18 66 151 10 154 114 3 95-165 93-204 36-6-8-10-19-12-30l50-8c3 46 112 56 116 5-17-69-150-10-154-114-4-87 153-88 188-35 5 8 8 18 10 28" id="aR"/><path fill="#979ea8" d="M25-224v-37h50v37H25zM25 0v-190h50V0H25" id="aS"/><path fill="#979ea8" d="M195-6C206 82 75 100 31 46c-4-6-6-13-8-21l49-6c3 16 16 24 34 25 40 0 42-37 40-79-11 22-30 35-61 35-53 0-70-43-70-97 0-56 18-96 73-97 30 0 46 14 59 34l2-30h47zm-90-29c32 0 41-27 41-63 0-35-9-62-40-62-32 0-39 29-40 63 0 36 9 62 39 62" id="aT"/><path fill="#979ea8" d="M135-194c87-1 58 113 63 194h-50c-7-57 23-157-34-157-59 0-34 97-39 157H25l-1-190h47c2 12-1 28 3 38 12-26 28-41 61-42" id="aU"/><g id="n"><use transform="matrix(0.06172839506172839,0,0,0.06172839506172839,0,0)" xlink:href="#aR"/><use transform="matrix(0.06172839506172839,0,0,0.06172839506172839,14.814814814814813,0)" xlink:href="#aS"/><use transform="matrix(0.06172839506172839,0,0,0.06172839506172839,20.98765432098765,0)" xlink:href="#aT"/><use transform="matrix(0.06172839506172839,0,0,0.06172839506172839,34.50617283950617,0)" xlink:href="#aU"/></g><path fill="#979ea8" d="M240-174c0 40-23 61-54 70L253 0h-59l-57-94H76V0H24v-248c93 4 217-23 216 74zM76-134c48-2 112 12 112-38 0-48-66-32-112-35v73" id="aV"/><path fill="#979ea8" d="M185-48c-13 30-37 53-82 52C43 2 14-33 14-96s30-98 90-98c62 0 83 45 84 108H66c0 31 8 55 39 56 18 0 30-7 34-22zm-45-69c5-46-57-63-70-21-2 6-4 13-4 21h74" id="aW"/><path fill="#979ea8" d="M128 0H69L1-190h53L99-40l48-150h52" id="aX"/><path fill="#979ea8" d="M110-194c64 0 96 36 96 99 0 64-35 99-97 99-61 0-95-36-95-99 0-62 34-99 96-99zm-1 164c35 0 45-28 45-65 0-40-10-65-43-65-34 0-45 26-45 65 0 36 10 65 43 65" id="aY"/><path fill="#979ea8" d="M147 0L96-86 75-71V0H25v-261h50v150l67-79h53l-66 74L201 0h-54" id="aZ"/><g id="o"><use transform="matrix(0.06172839506172839,0,0,0.06172839506172839,0,0)" xlink:href="#aV"/><use transform="matrix(0.06172839506172839,0,0,0.06172839506172839,15.987654320987653,0)" xlink:href="#aW"/><use transform="matrix(0.06172839506172839,0,0,0.06172839506172839,28.333333333333332,0)" xlink:href="#aX"/><use transform="matrix(0.06172839506172839,0,0,0.06172839506172839,40.67901234567901,0)" xlink:href="#aY"/><use transform="matrix(0.06172839506172839,0,0,0.06172839506172839,54.19753086419753,0)" xlink:href="#aZ"/><use transform="matrix(0.06172839506172839,0,0,0.06172839506172839,66.54320987654322,0)" xlink:href="#aS"/><use transform="matrix(0.06172839506172839,0,0,0.06172839506172839,72.71604938271605,0)" xlink:href="#aU"/><use transform="matrix(0.06172839506172839,0,0,0.06172839506172839,86.23456790123457,0)" xlink:href="#aT"/></g><path fill="#979ea8" d="M121-226c-27-7-43 5-38 36h38v33H83V0H34v-157H6v-33h28c-9-59 32-81 87-68v32" id="ba"/><g id="p"><use transform="matrix(0.06172839506172839,0,0,0.06172839506172839,0,0)" xlink:href="#aY"/><use transform="matrix(0.06172839506172839,0,0,0.06172839506172839,13.518518518518517,0)" xlink:href="#ba"/></g><path fill="#979ea8" d="M85 4C-2 5 27-109 22-190h50c7 57-23 150 33 157 60-5 35-97 40-157h50l1 190h-47c-2-12 1-28-3-38-12 25-28 42-61 42" id="bb"/><path fill="#979ea8" d="M135-194c52 0 70 43 70 98 0 56-19 99-73 100-30 1-46-15-58-35L72 0H24l1-261h50v104c11-23 29-37 60-37zM114-30c31 0 40-27 40-66 0-37-7-63-39-63s-41 28-41 65c0 36 8 64 40 64" id="bc"/><path fill="#979ea8" d="M14-72v-43h91v43H14" id="bd"/><path fill="#979ea8" d="M67-125c0 53 21 87 73 88 37 1 54-22 65-47l45 17C233-25 199 4 140 4 58 4 20-42 15-125 8-235 124-281 211-232c18 10 29 29 36 50l-46 12c-8-25-30-41-62-41-52 0-71 34-72 86" id="be"/><path fill="#979ea8" d="M199 0l-22-63H83L61 0H9l90-248h61L250 0h-51zm-33-102l-36-108c-10 38-24 72-36 108h72" id="bf"/><path fill="#979ea8" d="M62-158H24l-5-90h48" id="bg"/><path fill="#979ea8" d="M137-138c1-29-70-34-71-4 15 46 118 7 119 86 1 83-164 76-172 9l43-7c4 19 20 25 44 25 33 8 57-30 24-41C81-84 22-81 20-136c-2-80 154-74 161-7" id="bh"/><g id="q"><use transform="matrix(0.06172839506172839,0,0,0.06172839506172839,0,0)" xlink:href="#aR"/><use transform="matrix(0.06172839506172839,0,0,0.06172839506172839,14.814814814814813,0)" xlink:href="#bb"/><use transform="matrix(0.06172839506172839,0,0,0.06172839506172839,28.33333333333333,0)" xlink:href="#bc"/><use transform="matrix(0.06172839506172839,0,0,0.06172839506172839,41.85185185185185,0)" xlink:href="#bd"/><use transform="matrix(0.06172839506172839,0,0,0.06172839506172839,49.197530864197525,0)" xlink:href="#be"/><use transform="matrix(0.06172839506172839,0,0,0.06172839506172839,65.18518518518518,0)" xlink:href="#bf"/><use transform="matrix(0.06172839506172839,0,0,0.06172839506172839,81.17283950617283,0)" xlink:href="#bg"/><use transform="matrix(0.06172839506172839,0,0,0.06172839506172839,86.41975308641975,0)" xlink:href="#bh"/></g><path fill="#979ea8" d="M133-34C117-15 103 5 69 4 32 3 11-16 11-54c-1-60 55-63 116-61 1-26-3-47-28-47-18 1-26 9-28 27l-52-2c7-38 36-58 82-57s74 22 75 68l1 82c-1 14 12 18 25 15v27c-30 8-71 5-69-32zm-48 3c29 0 43-24 42-57-32 0-66-3-65 30 0 17 8 27 23 27" id="bi"/><path fill="#979ea8" d="M190-63c-7 42-38 67-86 67-59 0-84-38-90-98-12-110 154-137 174-36l-49 2c-2-19-15-32-35-32-30 0-35 28-38 64-6 74 65 87 74 30" id="bj"/><g id="r"><use transform="matrix(0.06172839506172839,0,0,0.06172839506172839,0,0)" xlink:href="#bc"/><use transform="matrix(0.06172839506172839,0,0,0.06172839506172839,13.518518518518517,0)" xlink:href="#bi"/><use transform="matrix(0.06172839506172839,0,0,0.06172839506172839,25.864197530864196,0)" xlink:href="#bh"/><use transform="matrix(0.06172839506172839,0,0,0.06172839506172839,38.20987654320987,0)" xlink:href="#aS"/><use transform="matrix(0.06172839506172839,0,0,0.06172839506172839,44.382716049382715,0)" xlink:href="#bj"/></g><path fill="#979ea8" d="M135-150c-39-12-60 13-60 57V0H25l-1-190h47c2 13-1 29 3 40 6-28 27-53 61-41v41" id="bk"/><path fill="#979ea8" d="M115-3C79 11 28 4 28-45v-112H4v-33h27l15-45h31v45h36v33H77v99c-1 23 16 31 38 25v30" id="bl"/><g id="s"><use transform="matrix(0.06172839506172839,0,0,0.06172839506172839,0,0)" xlink:href="#be"/><use transform="matrix(0.06172839506172839,0,0,0.06172839506172839,15.987654320987653,0)" xlink:href="#aW"/><use transform="matrix(0.06172839506172839,0,0,0.06172839506172839,28.333333333333332,0)" xlink:href="#bk"/><use transform="matrix(0.06172839506172839,0,0,0.06172839506172839,36.9753086419753,0)" xlink:href="#bl"/><use transform="matrix(0.06172839506172839,0,0,0.06172839506172839,44.32098765432098,0)" xlink:href="#aS"/><use transform="matrix(0.06172839506172839,0,0,0.06172839506172839,50.49382716049382,0)" xlink:href="#ba"/><use transform="matrix(0.06172839506172839,0,0,0.06172839506172839,57.8395061728395,0)" xlink:href="#aS"/><use transform="matrix(0.06172839506172839,0,0,0.06172839506172839,64.01234567901234,0)" xlink:href="#bj"/><use transform="matrix(0.06172839506172839,0,0,0.06172839506172839,76.35802469135803,0)" xlink:href="#bi"/><use transform="matrix(0.06172839506172839,0,0,0.06172839506172839,88.70370370370371,0)" xlink:href="#bl"/><use transform="matrix(0.06172839506172839,0,0,0.06172839506172839,96.0493827160494,0)" xlink:href="#aW"/><use transform="matrix(0.06172839506172839,0,0,0.06172839506172839,108.39506172839508,0)" xlink:href="#bh"/></g><path fill="#979ea8" d="M136-208V0H84v-208H4v-40h212v40h-80" id="bm"/><g id="t"><use transform="matrix(0.06172839506172839,0,0,0.06172839506172839,0,0)" xlink:href="#bm"/><use transform="matrix(0.06172839506172839,0,0,0.06172839506172839,12.28395061728395,0)" xlink:href="#bk"/><use transform="matrix(0.06172839506172839,0,0,0.06172839506172839,20.925925925925924,0)" xlink:href="#bb"/><use transform="matrix(0.06172839506172839,0,0,0.06172839506172839,34.44444444444444,0)" xlink:href="#bh"/><use transform="matrix(0.06172839506172839,0,0,0.06172839506172839,46.79012345679012,0)" xlink:href="#bl"/></g><path fill="#3a414a" d="M232-93c-1 65-40 97-104 97C67 4 28-28 28-90v-158h33c8 89-33 224 67 224 102 0 64-133 71-224h33v155" id="bn"/><g id="u"><use transform="matrix(0.06172839506172839,0,0,0.06172839506172839,0,0)" xlink:href="#bn"/><use transform="matrix(0.06172839506172839,0,0,0.06172839506172839,15.987654320987653,0)" xlink:href="#aN"/><use transform="matrix(0.06172839506172839,0,0,0.06172839506172839,27.098765432098766,0)" xlink:href="#ap"/><use transform="matrix(0.06172839506172839,0,0,0.06172839506172839,39.44444444444444,0)" xlink:href="#aq"/></g><path fill="#3a414a" d="M212-179c-10-28-35-45-73-45-59 0-87 40-87 99 0 60 29 101 89 101 43 0 62-24 78-52l27 14C228-24 195 4 139 4 59 4 22-46 18-125c-6-104 99-153 187-111 19 9 31 26 39 46" id="bo"/><g id="v"><use transform="matrix(0.06172839506172839,0,0,0.06172839506172839,0,0)" xlink:href="#bo"/><use transform="matrix(0.06172839506172839,0,0,0.06172839506172839,15.987654320987653,0)" xlink:href="#ap"/><use transform="matrix(0.06172839506172839,0,0,0.06172839506172839,28.333333333333332,0)" xlink:href="#aq"/><use transform="matrix(0.06172839506172839,0,0,0.06172839506172839,35.67901234567901,0)" xlink:href="#ar"/><use transform="matrix(0.06172839506172839,0,0,0.06172839506172839,41.851851851851855,0)" xlink:href="#as"/><use transform="matrix(0.06172839506172839,0,0,0.06172839506172839,46.7283950617284,0)" xlink:href="#at"/><use transform="matrix(0.06172839506172839,0,0,0.06172839506172839,52.90123456790124,0)" xlink:href="#as"/><use transform="matrix(0.06172839506172839,0,0,0.06172839506172839,57.777777777777786,0)" xlink:href="#au"/><use transform="matrix(0.06172839506172839,0,0,0.06172839506172839,68.8888888888889,0)" xlink:href="#av"/><use transform="matrix(0.06172839506172839,0,0,0.06172839506172839,81.23456790123458,0)" xlink:href="#ar"/><use transform="matrix(0.06172839506172839,0,0,0.06172839506172839,87.40740740740742,0)" xlink:href="#ap"/><use transform="matrix(0.06172839506172839,0,0,0.06172839506172839,99.7530864197531,0)" xlink:href="#aN"/></g><path fill="#3a414a" d="M185-189c-5-48-123-54-124 2 14 75 158 14 163 119 3 78-121 87-175 55-17-10-28-26-33-46l33-7c5 56 141 63 141-1 0-78-155-14-162-118-5-82 145-84 179-34 5 7 8 16 11 25" id="bp"/><g id="w"><use transform="matrix(0.06172839506172839,0,0,0.06172839506172839,0,0)" xlink:href="#bp"/><use transform="matrix(0.06172839506172839,0,0,0.06172839506172839,14.814814814814813,0)" xlink:href="#ap"/><use transform="matrix(0.06172839506172839,0,0,0.06172839506172839,27.160493827160494,0)" xlink:href="#aq"/><use transform="matrix(0.06172839506172839,0,0,0.06172839506172839,34.50617283950617,0)" xlink:href="#aK"/><use transform="matrix(0.06172839506172839,0,0,0.06172839506172839,45.61728395061728,0)" xlink:href="#ap"/><use transform="matrix(0.06172839506172839,0,0,0.06172839506172839,57.962962962962955,0)" xlink:href="#aq"/></g><path fill="#3a414a" d="M30-248c118-7 216 8 213 122C240-48 200 0 122 0H30v-248zM63-27c89 8 146-16 146-99s-60-101-146-95v194" id="bq"/><path fill="#3a414a" d="M177-190C167-65 218 103 67 71c-23-6-38-20-44-43l32-5c15 47 100 32 89-28v-30C133-14 115 1 83 1 29 1 15-40 15-95c0-56 16-97 71-98 29-1 48 16 59 35 1-10 0-23 2-32h30zM94-22c36 0 50-32 50-73 0-42-14-75-50-75-39 0-46 34-46 75s6 73 46 73" id="br"/><path fill="#3a414a" d="M24 0v-261h32V0H24" id="bs"/><g id="x"><use transform="matrix(0.06172839506172839,0,0,0.06172839506172839,0,0)" xlink:href="#bq"/><use transform="matrix(0.06172839506172839,0,0,0.06172839506172839,15.987654320987653,0)" xlink:href="#as"/><use transform="matrix(0.06172839506172839,0,0,0.06172839506172839,20.864197530864196,0)" xlink:href="#br"/><use transform="matrix(0.06172839506172839,0,0,0.06172839506172839,33.20987654320987,0)" xlink:href="#as"/><use transform="matrix(0.06172839506172839,0,0,0.06172839506172839,38.08641975308642,0)" xlink:href="#ar"/><use transform="matrix(0.06172839506172839,0,0,0.06172839506172839,44.25925925925926,0)" xlink:href="#av"/><use transform="matrix(0.06172839506172839,0,0,0.06172839506172839,56.60493827160494,0)" xlink:href="#bs"/></g><g id="y"><use transform="matrix(0.06172839506172839,0,0,0.06172839506172839,0,0)" xlink:href="#bp"/><use transform="matrix(0.06172839506172839,0,0,0.06172839506172839,14.814814814814813,0)" xlink:href="#as"/><use transform="matrix(0.06172839506172839,0,0,0.06172839506172839,19.691358024691354,0)" xlink:href="#br"/><use transform="matrix(0.06172839506172839,0,0,0.06172839506172839,32.03703703703703,0)" xlink:href="#aL"/><use transform="matrix(0.06172839506172839,0,0,0.06172839506172839,44.38271604938271,0)" xlink:href="#as"/><use transform="matrix(0.06172839506172839,0,0,0.06172839506172839,49.25925925925925,0)" xlink:href="#aL"/><use transform="matrix(0.06172839506172839,0,0,0.06172839506172839,61.60493827160493,0)" xlink:href="#br"/></g><g id="z"><use transform="matrix(0.06172839506172839,0,0,0.06172839506172839,0,0)" xlink:href="#bq"/><use transform="matrix(0.06172839506172839,0,0,0.06172839506172839,15.987654320987653,0)" xlink:href="#ap"/><use transform="matrix(0.06172839506172839,0,0,0.06172839506172839,28.333333333333332,0)" xlink:href="#aK"/><use transform="matrix(0.06172839506172839,0,0,0.06172839506172839,39.44444444444444,0)" xlink:href="#as"/><use transform="matrix(0.06172839506172839,0,0,0.06172839506172839,44.32098765432099,0)" xlink:href="#au"/><use transform="matrix(0.06172839506172839,0,0,0.06172839506172839,55.4320987654321,0)" xlink:href="#ap"/></g><path fill="#979ea8" d="M238-95c0 69-44 99-111 99C63 4 22-25 22-93v-155h51v151c-1 38 19 59 55 60 90 1 49-130 58-211h52v153" id="bt"/><g id="A"><use transform="matrix(0.06172839506172839,0,0,0.06172839506172839,0,0)" xlink:href="#bt"/><use transform="matrix(0.06172839506172839,0,0,0.06172839506172839,15.987654320987653,0)" xlink:href="#bh"/><use transform="matrix(0.06172839506172839,0,0,0.06172839506172839,28.333333333333332,0)" xlink:href="#aW"/></g><path fill="#979ea8" d="M24 0v-248h52V0H24" id="bu"/><path fill="#979ea8" d="M114-157C55-157 80-60 75 0H25v-261h50l-1 109c12-26 28-41 61-42 86-1 58 113 63 194h-50c-7-57 23-157-34-157" id="bv"/><path fill="#979ea8" d="M88-194c31-1 46 15 58 34l-1-101h50l1 261h-48c-2-10 0-23-3-31C134-8 116 4 84 4 32 4 16-41 15-95c0-56 19-97 73-99zm17 164c33 0 40-30 41-66 1-37-9-64-41-64s-38 30-39 65c0 43 13 65 39 65" id="bw"/><g id="B"><use transform="matrix(0.06172839506172839,0,0,0.06172839506172839,0,0)" xlink:href="#bu"/><use transform="matrix(0.06172839506172839,0,0,0.06172839506172839,6.172839506172839,0)" xlink:href="#aU"/><use transform="matrix(0.06172839506172839,0,0,0.06172839506172839,19.691358024691358,0)" xlink:href="#bv"/><use transform="matrix(0.06172839506172839,0,0,0.06172839506172839,33.20987654320987,0)" xlink:href="#aW"/><use transform="matrix(0.06172839506172839,0,0,0.06172839506172839,45.55555555555555,0)" xlink:href="#bk"/><use transform="matrix(0.06172839506172839,0,0,0.06172839506172839,54.197530864197525,0)" xlink:href="#aS"/><use transform="matrix(0.06172839506172839,0,0,0.06172839506172839,60.37037037037037,0)" xlink:href="#bl"/><use transform="matrix(0.06172839506172839,0,0,0.06172839506172839,67.71604938271605,0)" xlink:href="#aW"/><use transform="matrix(0.06172839506172839,0,0,0.06172839506172839,80.06172839506173,0)" xlink:href="#bw"/></g><g id="C"><use transform="matrix(0.06172839506172839,0,0,0.06172839506172839,0,0)" xlink:href="#bm"/><use transform="matrix(0.06172839506172839,0,0,0.06172839506172839,12.28395061728395,0)" xlink:href="#bk"/><use transform="matrix(0.06172839506172839,0,0,0.06172839506172839,20.925925925925924,0)" xlink:href="#bb"/><use transform="matrix(0.06172839506172839,0,0,0.06172839506172839,34.44444444444444,0)" xlink:href="#bh"/><use transform="matrix(0.06172839506172839,0,0,0.06172839506172839,46.79012345679012,0)" xlink:href="#bl"/></g><g id="D"><use transform="matrix(0.06172839506172839,0,0,0.06172839506172839,0,0)" xlink:href="#aV"/><use transform="matrix(0.06172839506172839,0,0,0.06172839506172839,15.987654320987653,0)" xlink:href="#aW"/><use transform="matrix(0.06172839506172839,0,0,0.06172839506172839,28.333333333333332,0)" xlink:href="#bi"/><use transform="matrix(0.06172839506172839,0,0,0.06172839506172839,40.67901234567901,0)" xlink:href="#bw"/></g><g id="E"><use transform="matrix(0.06172839506172839,0,0,0.06172839506172839,0,0)" xlink:href="#aX"/><use transform="matrix(0.06172839506172839,0,0,0.06172839506172839,12.345679012345679,0)" xlink:href="#aS"/><use transform="matrix(0.06172839506172839,0,0,0.06172839506172839,18.51851851851852,0)" xlink:href="#bi"/></g><path fill="#979ea8" d="M186 0v-106H76V0H24v-248h52v99h110v-99h50V0h-50" id="bx"/><path fill="#979ea8" d="M24-248c93 1 206-16 204 79-1 75-69 88-152 82V0H24v-248zm52 121c47 0 100 7 100-41 0-47-54-39-100-39v80" id="by"/><g id="F"><use transform="matrix(0.06172839506172839,0,0,0.06172839506172839,0,0)" xlink:href="#bx"/><use transform="matrix(0.06172839506172839,0,0,0.06172839506172839,15.987654320987653,0)" xlink:href="#bm"/><use transform="matrix(0.06172839506172839,0,0,0.06172839506172839,29.50617283950617,0)" xlink:href="#bm"/><use transform="matrix(0.06172839506172839,0,0,0.06172839506172839,43.02469135802469,0)" xlink:href="#by"/><use transform="matrix(0.06172839506172839,0,0,0.06172839506172839,57.839506172839506,0)" xlink:href="#aR"/></g><g id="G"><use transform="matrix(0.06172839506172839,0,0,0.06172839506172839,0,0)" xlink:href="#bp"/><use transform="matrix(0.06172839506172839,0,0,0.06172839506172839,14.814814814814813,0)" xlink:href="#as"/><use transform="matrix(0.06172839506172839,0,0,0.06172839506172839,19.691358024691354,0)" xlink:href="#br"/><use transform="matrix(0.06172839506172839,0,0,0.06172839506172839,32.03703703703703,0)" xlink:href="#aL"/></g><g id="H"><use transform="matrix(0.06172839506172839,0,0,0.06172839506172839,0,0)" xlink:href="#ar"/><use transform="matrix(0.06172839506172839,0,0,0.06172839506172839,6.172839506172839,0)" xlink:href="#az"/></g><path fill="#3a414a" d="M210-169c-67 3-38 105-44 169h-31v-121c0-29-5-50-35-48C34-165 62-65 56 0H25l-1-190h30c1 10-1 24 2 32 10-44 99-50 107 0 11-21 27-35 58-36 85-2 47 119 55 194h-31v-121c0-29-5-49-35-48" id="bz"/><path fill="#3a414a" d="M143 0L79-87 56-68V0H24v-261h32v163l83-92h37l-77 82L181 0h-38" id="bA"/><g id="I"><use transform="matrix(0.06172839506172839,0,0,0.06172839506172839,0,0)" xlink:href="#bz"/><use transform="matrix(0.06172839506172839,0,0,0.06172839506172839,18.456790123456788,0)" xlink:href="#av"/><use transform="matrix(0.06172839506172839,0,0,0.06172839506172839,30.80246913580247,0)" xlink:href="#aq"/><use transform="matrix(0.06172839506172839,0,0,0.06172839506172839,38.148148148148145,0)" xlink:href="#bA"/></g><g id="J"><use transform="matrix(0.06172839506172839,0,0,0.06172839506172839,0,0)" xlink:href="#av"/><use transform="matrix(0.06172839506172839,0,0,0.06172839506172839,12.345679012345679,0)" xlink:href="#aN"/></g><path fill="#3a414a" d="M206 0h-36l-40-164L89 0H53L-1-190h32L70-26l43-164h34l41 164 42-164h31" id="bB"/><g id="K"><use transform="matrix(0.06172839506172839,0,0,0.06172839506172839,0,0)" xlink:href="#ar"/><use transform="matrix(0.06172839506172839,0,0,0.06172839506172839,6.172839506172839,0)" xlink:href="#aq"/><use transform="matrix(0.06172839506172839,0,0,0.06172839506172839,13.518518518518519,0)" xlink:href="#ax"/><use transform="matrix(0.06172839506172839,0,0,0.06172839506172839,25.864197530864196,0)" xlink:href="#aN"/><use transform="matrix(0.06172839506172839,0,0,0.06172839506172839,36.9753086419753,0)" xlink:href="#ar"/><use transform="matrix(0.06172839506172839,0,0,0.06172839506172839,43.148148148148145,0)" xlink:href="#bB"/><use transform="matrix(0.06172839506172839,0,0,0.06172839506172839,59.1358024691358,0)" xlink:href="#az"/><use transform="matrix(0.06172839506172839,0,0,0.06172839506172839,71.48148148148148,0)" xlink:href="#aq"/><use transform="matrix(0.06172839506172839,0,0,0.06172839506172839,78.82716049382717,0)" xlink:href="#ar"/><use transform="matrix(0.06172839506172839,0,0,0.06172839506172839,85,0)" xlink:href="#ay"/><use transform="matrix(0.06172839506172839,0,0,0.06172839506172839,97.34567901234568,0)" xlink:href="#aA"/></g></defs></g></svg>